<?xml version="1.0" encoding="UTF-8" standalone="no"?>
<!-- Created with Inkscape (http://www.inkscape.org/) -->

<svg
   version="1.1"
   id="svg1"
   width="1306"
   height="1150"
   viewBox="0 0 1306 1150"
   xmlns="http://www.w3.org/2000/svg"
   xmlns:svg="http://www.w3.org/2000/svg">
  <defs
     id="defs1" />
  <g
     id="g1">
    <path
       style="fill:#3b3937;stroke:none"
       d="m 115,555.57143 c 6.22035,4.03088 8.73665,13.73425 12.68134,20 10.22615,16.24316 19.64917,32.10114 31.93363,47 14.93346,18.11157 33.25957,35.6427 51.38503,50.53625 5.51607,4.53248 12.48624,7.49085 17.77237,12.10108 5.21098,4.54468 4.13338,13.09271 9.5679,17.7099 3.86183,3.281 9.4632,2.57403 13.65973,5.35571 5.31628,3.52387 8.49487,10.25006 15.00076,11.87811 5.56266,1.39197 11.50522,-0.7373 17.03861,0.81324 6.58441,1.84503 11.26938,7.57483 17.96063,9.56176 5.56775,1.65326 10.52325,-0.37512 16,0.34644 7.11438,0.93726 13.73981,5.02948 21,5.60413 6.41586,0.50787 11.81506,-2.17017 18,-2.60804 8.36127,-0.59191 16.64294,4.29004 25,2.14429 6.68814,-1.71716 11.46512,-7.3175 18,-9.26849 6.49738,-1.93976 14.03317,0.3172 19.90973,-3.5185 5.19476,-3.39074 6.65793,-10.46051 12.13348,-13.22607 28.61325,-14.4519 60.0893,-23.10584 87.95679,-39.87964 50.51898,-30.40808 93.31287,-75.24921 130.53625,-120.55017 20.04078,-24.38965 39.03156,-50.84552 56.71839,-77 14.89508,-22.02618 27.46564,-43.92462 47.74536,-61.71375 37.23468,-32.66174 87.87573,-50.2973 136.99999,-35.71679 23.9121,7.09735 48.1657,24.48468 66,41.43054 -3.5563,2.35284 -1.7605,4.57996 2,4 2.8574,6.75903 5.7439,8.55139 4,16 l 5,-5 h 1 l -1,3 c 3.8604,4.68231 1.4194,10.83392 3.3704,16.01465 7.9838,21.20117 9.6704,39.61578 11.7994,61.98535 9.0953,95.57043 -40.1257,182.75153 -49,276 -2.5548,26.84448 4.1845,57.96423 10.7253,84 2.4811,9.87616 13.3468,20.31628 11.1049,30 7.7268,4.96082 12.5327,18.42542 18.1552,26.00001 9.7742,13.1677 21.9033,24.1468 34.84481,34.1127 37.3967,28.7977 85.9951,41.90486 129,60.39036 15.2761,6.5664 30.6791,14.925 44,24.8712 3.6237,2.7055 10.3521,10.0204 14,4.6257 l 4,3 c -4.4271,5.702 3.2832,7.7689 8,8.7886 8.2853,1.7911 17.109,1.1432 21.9946,-6.7925 5.141,-8.3505 2.2925,-17.9033 -1.7539,-25.9961 -8.2534,-16.5067 -21.92,-28.4205 -36.2407,-39.50066 -36.8903,-28.543 -82.1298,-42.9308 -118,-72.82493 -8.5408,-7.11786 -15.052,-16.31769 -22.2825,-24.67438 -10.3045,-11.90967 -20.0615,-24.85071 -24.9721,-40 -20.1109,-62.04236 8.1513,-123.04309 24.5092,-182 20.781,-74.89844 31.0024,-160.53058 8.0247,-236 -9.4482,-31.03229 -22.5313,-64.90021 -43.5656,-89.99615 -8.6547,-10.32593 -20.35131,-16.78943 -30.52921,-25.37421 -17.3513,-14.63526 -38.643,-31.77875 -60.1845,-39.81946 C 867.85189,259.6769 792.50165,271.89492 740,303.17562 c -24.35504,14.51086 -46.27509,35.4768 -65.16974,56.39581 -22.91101,25.36566 -44.12952,53.61023 -56.34332,85.42438 -1.85663,4.83606 -7.84772,8.12439 -8.36499,13.52008 -0.77448,8.07879 8.7478,-0.44409 9.87805,-3.94446 15.31329,9.57703 30.88623,25.45209 41.5108,40 3.21552,4.40289 9.58612,12.20374 9.12732,18 -0.48901,6.17828 -7.90661,12.50922 -10.63812,18 h -2 c -4.77106,-16.52362 -21.12531,-30.87262 -34,-41.38501 -7.89789,-6.44873 -17.4325,-10.11969 -20,-20.61499 h -2 c -12.86798,22.3725 -32.96191,41.77808 -50.99615,60 -23.50666,23.75134 -48.1623,48.48639 -77.00385,65.80017 -12.54724,7.53217 -25.98538,18.26569 -40,22.69208 -8.94348,2.82471 -19.66425,-4.98389 -29,-3.08331 -4.54587,0.92541 -7.55173,5.28747 -12,6.10034 -3.45621,0.63159 -7.39432,-1.52362 -11,-1.48999 -5.84598,0.0545 -10.4472,3.74817 -16,4.12268 -3.80447,0.25659 -7.17007,-2.09705 -11,-1.78705 -4.42877,0.35852 -8.70972,4.99506 -12.91049,4.47375 -3.34836,-0.41552 -5.72428,-4.16925 -9.09336,-5.10101 -5.34051,-1.47705 -10.49636,2.26318 -15.57177,1.06629 -3.29416,-0.77686 -5.44791,-4.14197 -8.42438,-5.61573 -4.16946,-2.06445 -8.82361,-0.0492 -13,-1.64276 -4.22385,-1.61163 -6.68707,-5.91339 -11,-7.50305 -6.37735,-2.35053 -13.33029,2.62891 -19,-0.28473 -18.36218,-9.43616 -35.14973,-31.47369 -47.19598,-47.73303 -14.99669,-20.24164 -28.99991,-40.43646 -38.35418,-64.01465 -12.4233,-31.31396 -14.8679,-69.71716 -13.41049,-103 2.24939,-51.36884 15.21285,-103.86053 33.38581,-152 5.82707,-15.43567 15.11052,-29.44971 21.1898,-45 7.58731,-19.40765 21.09698,-35.86047 24.67053,-57 0.93906,-5.55505 4.61283,-12.42187 2.04706,-17.94141 -3.82552,-8.22949 -14.38525,-2.36951 -19.33255,1.03174 -4.36823,3.00305 -9.87436,4.46436 -13.6713,8.23914 -4.02778,4.00427 -5.98959,9.41589 -10.36883,13.20678 -6.79396,5.88117 -15.34332,9.26923 -20.92052,16.4676 -7.34805,9.48394 -18.25419,13.01306 -25.29011,22.0108 -11.81082,15.104 -19.89762,32.43237 -29.09801,48.98535 -20.11002,36.18121 -36.477884,77.84747 -43.365734,119 -8.20752,49.03705 -1.56438,101.80737 9.13888,150 3.162821,14.24097 6.631644,27.76953 13.015434,40.98151 3.05116,6.31469 10.01722,8.18841 6.56019,16.01849 m 124,-409 -19,-16 c 4.54701,-2.65649 18.28854,-14.12293 23.38194,-9.97156 3.48271,2.8385 -3.04405,21.75244 -4.38194,25.97156 m -21,-14 c 5.90384,4.29297 12.99554,7.97351 16.11728,15 3.55736,8.00696 -3.771,24.09839 -10.11728,29 -6.106,-9.73425 -14.43687,-19.0849 -26,-22 L 209.79013,143.39785 218,132.57143 m -22,22 c 8.74803,7.90796 25.63562,13.38354 25,28 l -2,-2 h -1 l -3,5 4,-2 -3,11 -5,-2 2,12 h -1 l 1,-4 -4,2 c -11.81992,-9.53784 -20.37706,-19.91022 -35,-26 v -2 l 22,-20 m 35,1 1,1 -1,-1 m -9,11 1,1 -1,-1 m 3,1 1,1 -1,-1 m -1,5 1,1 -1,-1 m -17,36 4,-3 h 1 l -5,12 h -5 v 1 h 4 l -3,6 -4,-4 2,8 -2,-1 1,3 -8,-2 -5,22 5,-5 -2,9 h -1 l -3,-3 -6,19 c -19.23849,-6.4129 -37.27542,-14.94281 -58,-15 4.59431,-19.85901 17.77364,-40.24335 29.00078,-57 3.97536,-5.93329 8.81517,-15.47278 15.03935,-19.21838 4.44739,-2.6764 9.9436,0.34326 13.95987,2.53088 10.37857,5.65308 23.85152,14.5802 27,26.6875 m 9.33333,-21.33331 0.33334,0.66662 -0.33334,-0.66662 M 214,194.57143 l -1,1 1,-1 m -3,9 -1,1 1,-1 m -66,6 11,4.7215 22,8.2785 c -4.96945,-8.73328 -23.57759,-12.922 -33,-13 m 56,10 2,3 v -3 h -2 m -5,4 2,7 -2,-7 m -21,71 3,-3 h 1 l -4,8 -1,12 h -2 l 1,2 c -3.58249,3.22955 -3.65837,5.41852 -3,10 l -23,-5 v 1 l 21,9 -1,-2 h 1 v 4 c -3.86783,0.50543 -3.50247,5.68152 -4.05556,9 -1.56773,9.40631 -4.90382,18.3302 -4.94444,28 h -20 v 1 c 8.04909,0.16614 16.98804,0.22186 21,8 l -2,13 h 1 l 1,-3 2,23 -8,2 9,1 3,41 -9,1 c 2.67392,0.63873 7.1218,0.44922 9.06172,2.60339 4.90561,5.44739 6.62419,23.19281 6.93828,30.39661 -16.37363,3.37964 -31.77548,9.2782 -46,18.06482 -5.67952,3.5083 -10.29366,8.71521 -16,11.93518 v -6 h 1 v 2 h 1 c -3.97377,-9.15039 -15.544813,-19.53992 -15.331793,-29.96063 0.10542,-5.15686 6.528983,-9.10138 10.331793,-11.68054 8.36174,-5.67109 17.45668,-8.97175 27,-12.01471 5.46799,-1.74353 11.93243,-2.07068 16,-6.34412 -20.84044,1.81738 -37.68417,12.88422 -55.000004,23 -2.04143,-10.95685 -3.27615,-22.0058 -5.08025,-33 -0.62337,-3.79889 -2.58652,-10.19672 -0.80247,-13.81482 2.33236,-4.73004 10.269034,-7.20795 14.882724,-8.84106 13.61607,-4.81971 28.51863,-8.04523 43,-8.34412 -4.49394,-4.08557 -12.48639,-1.70087 -18,-0.60034 -15.05574,3.00513 -27.59593,9.44299 -42.000004,13.60034 v -37 l 1.6034,-13.86108 L 116,367.57143 v -1 l -27.000004,5 c -3.19391,-12.64154 2.69807,-29.80231 6.14043,-42 1.0728,-3.80133 1.3945,-10.48639 4.423611,-13.25769 3.899333,-3.56744 13.511993,-1.74231 18.435963,-1.74231 -4.93275,-4.62207 -11.8567,-2.77637 -18.000003,-2 1.194583,-13.6825 8.839403,-28.33246 13.922073,-41 1.48064,-3.69025 3.38925,-10.92059 7.29166,-12.68671 10.78204,-4.87957 33.88026,5.28583 43.78627,9.53626 3.41644,1.46594 10.03615,2.88861 11.87885,6.42517 1.72206,3.30505 -0.5233,16.15564 -1.87885,19.72528 m 10,-23 -1,1 1,-1 m 683.99999,4 -1,1 1,-1 m 5,0.33331 c 0.7735,0 0.1602,0.49793 -0.3333,0.33338 l 0.3333,-0.33338 m 5,-0.33331 v 1 l -3,3 h -1 l 1,-4 h 3 m -40.99999,1 -1,1 1,-1 m 7.99999,0 v 1 l -5.99999,1 5.99999,-2 m -7.99999,91 -3.17053,-50 -9.82947,-36 c 5.4635,0.995 8.42285,0.14191 13,-3 h 1 l 14.99999,1 v -1 l -4,-1 c 8.6725,-2.92645 11.0438,24.33459 11.7145,30 1.6694,14.10168 0.2073,29.07861 -2.1497,43 -0.7009,4.14001 -1.6619,12.26843 -5.2669,14.97223 -3.6263,2.71973 -11.81339,0.96014 -16.29789,2.02777 m 42.99999,-91 -1,1 1,-1 m -22,90 5.9606,-36 -5.9606,-52 8,-1 -1,3 4,-2 c 5.9285,3.2962 14.4011,-3.93048 17.9105,1.15277 4.3409,6.2876 2.6567,14.87109 2.179,21.84723 -1.173,17.12836 -1.1749,51.23767 -15.6435,63.39661 -3.6066,3.03088 -11.0294,1.60339 -15.446,1.60339 m 66,-82 c 0,24.15088 -3.0093,46.88586 -15.6042,68 -2.9698,4.97852 -8.8479,15.57489 -14.4892,17.64734 -4.5476,1.67065 -12.1897,-2.01215 -16.9066,-2.64734 1.8283,-6.68475 5.6677,-12.45502 7.7832,-19 6.4838,-20.05951 11,-49.42023 5.2168,-70 l 34,6 m -111.99999,87 c -0.82648,-20.5733 -5.15955,-39.75391 -12.42517,-59 -3.32684,-8.81256 -9.30707,-16.92914 -11.57483,-26 l 16,-5 c 4.93219,0.31451 10.14996,-3.5943 14.60956,-0.10571 4.30066,3.36425 6.7641,11.07934 8.36188,16.10571 4.82788,15.18744 5.95129,33.13348 6.02777,49 0.0233,4.82721 2.1065,16.35541 -1.02698,20.25848 -3.02808,3.77185 -15.35315,4.37391 -19.97223,4.74152 m 72.99999,-92 1,1 -1,-1 m -88.99999,6 1,1 -1,-1 m 132.99999,2 c 8.8431,5.96576 17.8752,11.55389 27.0394,17.00305 3.0214,1.79663 8.8955,4.17731 9.4583,8.10187 1.0511,7.32989 -6.5554,17.03717 -10.0988,22.89508 -6.7954,11.23431 -16.1399,20.55389 -25.2291,29.91052 -3.4781,3.58032 -8.0627,9.5553 -13.1698,10.70136 -4.8079,1.07898 -14.4736,-1.66736 -19,-3.61188 l 23.9606,-44 7.0394,-41 m -144.99999,1 c 12.12451,18.58044 21.07983,40.79523 23.84412,63 0.6463,5.19165 3.6195,16.75262 0.12811,21.27313 -3.12225,4.04254 -16.01648,7.84345 -20.97223,8.72687 0,-21.17383 -12.12714,-42.86761 -19.83331,-62 -1.77429,-4.40509 -7.79669,-18.4361 -12.16669,-19 v -1 l 5,-1 v 1 h -2 v 1 l 7,-3 5,1 c 0.83209,-3.91125 2.87183,-6.93304 7,-5 l 7,-5 m -3,4 -4,2 7,-4 -3,2 m -15,3 -1,1 1,-1 m -2,1 -1,1 1,-1 m 1,99 c -9.50098,-28.08386 -22.96234,-52.96234 -44,-74 3.00757,-3.89685 7.0072,-6.31146 11,-9.14044 4.54315,-3.21894 13.05096,-10.17511 18.99615,-9.62189 4.46387,0.41541 7.65931,6.38709 9.77472,9.76233 6.82532,10.8902 11.38678,23.90051 15.57325,36 2.84686,8.22784 11.12158,25.11737 7.34259,33.81482 -2.25653,5.19348 -13.58222,11.22168 -18.68671,13.18518 m 187.99999,-91 3,3 -3,-3 m 9.6667,6.33331 0.6666,0.33338 -0.6666,-0.33338 m 7.3333,2.66669 c 6.8339,5.46802 13.0121,11.7738 20,17.10107 2.5605,1.95197 7.22987,4.14521 7.03317,7.93903 -0.3252,6.27191 -7.97907,13.78735 -12.04777,17.9599 -11.032,11.31348 -22.3549,21.33246 -35.9854,29.39661 -9.8476,5.82605 -18.5517,8.41217 -25,-3.39661 l -2,1 h -1 v -1 l 2,-1 -3,-3 c 22.7883,-17.94495 34.8753,-41.40479 50,-65 m -247.99999,8 3,-1 -3,1 m -4,2 c 21.26593,17.27081 40.27435,47.55585 45,75 l -16,11 C 740.15601,390.73647 727.02905,374.13289 713.03937,359.57222 708.02344,354.35158 703.49072,347.96596 697,344.57143 l 9,-7 4,-4 4,-3 5,-7 m -0.33331,2.33331 0.66662,0.33338 -0.66662,-0.33338 M 716,326.57143 l 1,1 -1,-1 m -1,2 1,1 -1,-1 m -2.66669,2.66669 0.33338,0.66662 -0.33338,-0.66662 M 706,335.57143 l 1,1 -1,-1 m 296,3 c 3.6448,2.72437 6.9638,5.63257 9.9962,9.03937 2.8621,3.21563 7.7313,8.2771 7.3602,12.96063 -0.4063,5.12976 -6.2211,9.32812 -9.6419,12.58948 -10.62514,10.13 -23.29681,19.25726 -36.71451,25.31561 -4.4883,2.02655 -11.3598,3.02087 -15,6.09491 h -1 l -9,-1 2,-3 -8,-6 v -1 c 24.7287,-13.16437 44.226,-32.27545 60.00001,-55 m -267,86 h -1 l -25.17053,-35 -24.82947,-25 c 4.13837,-3.46558 5.18756,-6.76691 4,-12 l 1,-2 4,-4 c 17.73596,5.26788 34.61609,31.90771 43.93518,47 2.68628,4.3504 9.27087,12.71619 8.8241,18 -0.41559,4.91486 -7.49817,9.73889 -10.75928,13 m -44,-73 3,-2 -3,2 m 1.33331,2.66669 0.33338,0.66662 -0.33338,-0.66662 M 684,356.57143 l -3,3 3,-3 m 340,7 c 3.4011,6.13324 13.3983,17.58752 11.1643,24.99921 -2.0445,6.78314 -11.5793,10.84936 -17.1643,14.20062 -15.1227,9.07434 -47.10131,30.91705 -56.00001,3.80017 l 4,1 19,-12.68134 L 1024,363.57143 m -349,2.33331 c 0.77338,0 0.1601,0.49787 -0.33331,0.33338 L 675,365.90474 m 3,0.66669 c 17.67535,9.45813 31.62555,26.94763 42.99921,43 3.09466,4.36768 10.66577,12.36127 10.29016,18 -0.39691,5.95898 -8.3548,13.70905 -11.28937,19 h -2 L 689.99615,410.74117 664,388.57143 c 4.42261,-3.39282 15.20587,-15.33484 13,-21 l 1,-1 m -9,7 -6,7 6,-7 m -506.33333,1.66669 -0.33334,0.66662 0.33334,-0.66662 m 750.33332,2.33331 -1,1 1,-1 M 668,380.90474 l 0.33331,0.33338 c -0.49353,0.16455 -1.10656,-0.33338 -0.33331,-0.33338 m -9,4.66669 -1,1 1,-1 m 2,3 -1,1 1,-1 m -501,1 -1,3 1,-3 m 774.99999,1 1,1 -1,-1 m 103.00001,1 c 3.5029,6.00293 12.3579,19.86481 10.1643,26.98535 -1.7991,5.83978 -10.1776,9.25726 -15.1643,11.76697 -15.1414,7.6203 -31.1881,13.03754 -48.00001,15.24768 -4.9835,-5.7027 -12.1468,-8.97272 -8.7716,-17.77545 1.8834,-4.91193 12.3052,-6.87079 16.7716,-8.9159 16.06421,-7.35559 29.52281,-19.90271 45.00001,-27.30865 m -333,78 L 677.91052,438.28981 640,410.57143 l 8,-4 -1,-3 4,-2 -3,-2 h 4 c 8.63849,-13.47607 27.70081,5.05994 35,12.03937 8.48816,8.11639 16.69141,17.19983 23.25073,26.96063 2.18592,3.25287 5.6521,7.86945 5.33875,12 -0.49274,6.49457 -7.57605,13.36163 -10.58948,19 m -546,-75 1,1 -1,-1 m 493,1 -1,1 1,-1 m -492,2 1,1 -1,-1 m 782.99999,0 -1,1 1,-1 m 2,0 -1,1 1,-1 m -786.66666,4.66669 0.33334,0.66662 -0.33334,-0.66662 M 157,404.57143 v 3 h 2 v -3 h -2 m 796.99999,5 -1,1 1,-1 m -314.99999,5 c 20.45264,11.2016 38.50897,23.59235 53.19293,42 8.84686,11.09033 12.61493,24.2301 -3.19293,32 -12.53888,-22.49976 -34.35468,-41.47498 -56,-55 L 639.36572,420.60848 639,414.57143 m -1,5.33331 c 0.77338,0 0.16016,0.49793 -0.33331,0.33338 L 638,419.90474 m 336.99999,-0.33331 1,1 -1,-1 m -339.99999,2 -1,1 1,-1 m 416,1 c 1.7742,6.48737 10.2927,20.08203 6.882,26.67126 -2.4651,4.76221 -10.3641,5.98731 -14.882,7.77857 -11.8494,4.69806 -23.5004,8.25043 -36,10.75 -4.2292,0.8457 -10.47211,3.10187 -14.65971,1.19678 -6.3223,-2.87622 -6.7252,-14.92902 -1.3403,-18.39661 v -1 l -3,1 25.00001,-9.20294 38,-18.79706 m -83.00001,9 -1,1 1,-1 m -335.99999,5 c 16.27484,11.65662 32.22394,22.0423 44.78931,38 3.40924,4.32959 9.99206,11.15411 10.14276,17 0.1499,5.81317 -8.63513,14.68402 -12.93207,18 -7.85089,-16.5957 -21.27496,-28.72034 -33.57562,-41.91052 -4.01697,-4.30744 -13.29962,-9.60651 -15.09723,-15.25922 -1.31983,-4.15033 3.87842,-12.96582 6.67285,-15.83026 m 347.99999,5 -1,1 1,-1 m 80.00001,11 c 1.1587,5.97491 6.8702,22.28833 3.882,27.58179 -2.3027,4.07898 -11.6731,5.86133 -15.882,6.93982 -13.7626,3.52642 -40.9604,14.14825 -54.72611,7.73687 -5.6594,-2.63586 -9.7782,-15.99884 -2.2739,-18.25848 l -1,-3 h 4 l -1,3 c 8.67831,-6.54639 19.71801,-6.87933 30.00001,-9.74536 12.7687,-3.55921 24.6216,-9.75665 37,-14.25464 m -72.00001,12 -1,1 1,-1 m -3,4 -1,1 1,-1 m -885.999993,3 -2.000001,3 2.000001,-3 m 543.000003,80 c -10.55835,-22.61475 -28.98645,-46.74402 -51,-59 1.35919,-4.09912 6.17682,-14.34338 11.00385,-15.08252 4.92437,-0.75409 17.10522,11.09082 20.90667,14.19824 16.79505,13.72876 47.87921,41.90277 19.08948,59.88428 m 423,-68 c 1.5746,6.2215 6.2773,23.83398 2.1112,29.38892 -3.0055,4.00738 -12.5734,4.30432 -17.1112,5.21295 -15.1957,3.04266 -44.614,8.4422 -58.80091,0.0416 -3.7561,-2.2241 -3.6329,-15.03043 0.8009,-15.64347 v -4 c 25.62001,-0.003 48.74021,-8.06476 73.00001,-15 m -890,7 11,27 c -23.29842,2.9599 -36.72197,15.85663 -56,27 l -3,-5 -1,4 h -1 v -3 h -1 l -2,2 5,-3 v -1 l -2,-2 -6,1 4,-4 3,3 -2,-7 h -1 l -2,2 2,-2 v -1 c -2.59468,-0.31451 -2.52298,-0.45984 -2,-3 l -5,-4 c 8.78162,-17.93506 39.69514,-30.58875 59,-31 m 462,65 h 2 l -14,14 c -14.42029,-21.862 -28.98529,-44.42468 -52,-58 3.1651,-4.54663 9.64917,-14.99329 15.16974,-16.55402 3.80231,-1.07495 9.1521,3.84528 11.83026,6.02161 9.4173,7.65271 17.83698,16.49963 24.65588,26.53241 4.48066,6.59241 15.7901,19.9989 12.34412,28 m -523,-47 v 3 h 1 l -1,-3 m -1,5 1,1 -1,-1 m 509,59 -3,-1 3,2 v 1 l -5,-1 -6,12 h -1 l -3,-2 -3,3 c -6.90857,-25.32068 -23.56006,-45.01672 -43,-62 v -1 l 9,-10 c 23.36255,5.60083 42.41998,38.85779 52,59 m 446,-56 c 1.243,6.69568 4.2626,25.92694 -0.858,31.25769 -4.1111,4.27979 -15.7516,2.74231 -21.142,2.74231 -19.3485,0 -37.8327,-2.47443 -57.00001,-4 l 1,-24 c 27.18731,0.33917 51.22741,-0.47699 78.00001,-6 m -872,19 c -20.18933,5.23663 -35.07716,16.43982 -52,28 l 2,-2 v -1 l -4,2 h -4 l -4,-11 4,1 v -1 l -5,-2 v -1 h 4 v -1 h -3 c 10.76173,-16.46625 54.18575,-42.12598 62,-12 m -77.33333,-13.66669 0.66666,0.33338 -0.66666,-0.33338 M 116,523.57143 l -1,1 1,-1 m 2,4 -1,1 1,-1 m 464,79 c -3.96216,-16.71973 -14.08734,-31.69916 -24.66589,-45 -3.34479,-4.20557 -14.12732,-11.38745 -14.12732,-17 0,-5.2215 12.45605,-17.51263 17.79321,-15.94678 14.81116,4.34534 29.80981,30.54102 35.26624,43.94678 1.6275,3.9986 5.42816,12.44775 4.03698,16.71448 -2.14648,6.58331 -12.8584,13.49579 -18.30322,17.28552 m 408.99999,-71 v 2 h 2 l -2,-2 m -791.99999,2 10,17 c -20.12703,2.97455 -34.29015,21.48767 -51,31 l -1,-4 -3,2 -5,-12 -2,1 c 3.7072,-19.34698 34.03987,-32.68066 52,-35 m 791.99999,4 1,1 -1,-1 m -861.99999,2 -1,1 1,-1 m 8,2 1,1 -1,-1 m -8,1 -1,1 1,-1 m 9,1 v 3 h 1 l -1,-3 m 431,72 h -1 c -4.84918,-23.19592 -21.63025,-46.49377 -38,-63 10.75836,-16.45917 21.62,0.12939 29.22913,11 6.85717,9.79639 12.79315,19.78864 16.9599,31 1.21984,3.28217 4.17535,9.31183 2.59881,12.77625 -1.59491,3.50488 -7.24237,5.17376 -9.78784,8.22375 m 420.99999,-70 c 23.84171,7.04749 53.46521,3 78.00001,3 l -6,22 h 1 v -2 h 1 c -2.1367,7.3053 -16.3246,3.43024 -22,3.06018 -12.0939,-0.78857 -23.9333,-1.53393 -36,-2.93054 -4.5136,-0.5224 -12.84221,-0.23529 -16.52311,-3.18982 -3.9014,-3.13147 -1.4614,-16.1897 0.5231,-19.93982 m -856.99999,6 -1,1 1,-1 m 502,0 -2,4 4,-4 h -2 m -411,18 c -11.29021,3.01929 -23.65096,7.37836 -33,14.50311 -5.70674,4.349 -12.36819,13.50397 -18.95679,15.95063 -3.62314,1.34545 -4.99292,-2.84235 -6.04321,-5.45374 l 3,3 c 0.25737,-5.64514 -6.93436,-10.86761 -4.72685,-15.98999 4.77003,-11.06854 22.94612,-18.27057 32.72685,-23.92126 3.89249,-2.24885 9.19818,-6.01825 13.98534,-4.4452 5.62599,1.8487 10.84121,11.21515 13.01466,16.35645 m 318,69 c -3.56177,-15.39551 -7.81342,-31.79089 -16.67053,-45 -3.43848,-5.12799 -16.12305,-16.18134 -16.12268,-22 3.6e-4,-5.64716 15.54754,-17.99927 20.79242,-15.1991 8.60766,4.59552 15.26983,16.92914 19.77008,25.1991 5.02679,9.23761 17.45886,25.65588 14.57635,36.99615 -1.29828,5.10773 -7.49927,9.83863 -11.23376,13.29395 -3.35877,3.10767 -6.63098,5.6474 -11.11188,6.7099 m -407,-83 -2,2 v -2 h 2 m -4,2 -1,1 1,-1 m 6,2 v 1 h -4 l 4,-1 m 490,0 1,1 -1,-1 m 2,0 1,1 -1,-1 m -487,1 -1,1 1,-1 m 484.33331,1.66669 0.33338,0.66662 -0.33338,-0.66662 M 138,566.57143 l -1,1 1,-1 m 926.6666,0.66669 -0.3332,0.66662 0.3332,-0.66662 M 139,568.57143 l -1,1 1,-1 m 7,0 -1,1 1,-1 m 918,11 -4,22 -56,-4.40973 -18.93281,-4.31793 1.9328,-20.27234 77.00001,7 m -825,10 c -19.17577,7.40588 -33.16203,20.23553 -46,36 h -1 l -5,-1 v -1 l 3,-1 v -2 l -11,-8 c -2.76903,-17.27802 17.33817,-26.08661 31,-31.60419 4.42174,-1.78582 11.05531,-6.13879 15.99614,-4.69903 5.19501,1.51385 10.03639,9.07403 13.00386,13.30322 m 380,-13 -5,5 5,-5 m -80,70 -18,12 c -3.43231,-16.58466 -9.59338,-34.43549 -18.30939,-49 -2.68829,-4.49213 -13.41757,-13.85693 -12.76931,-18.90662 0.36929,-2.87658 4.08258,-4.75763 6.07946,-6.41436 8.55606,-7.09851 12.46353,-5.58661 19.25003,3.32098 13.73285,18.02502 19.64862,36.99249 23.74921,59 m -385,-67 v 2 h 2 l -2,-2 m -3.33333,2.66669 -0.33334,0.66662 0.33334,-0.66662 M 610,581.57143 l 1,3 -1,-3 m -454,4 v 4 h -1 l 1,-4 m -3,1 -1,1 1,-1 m 101,14 v 2 c -17.99631,8.56311 -34.71085,29.25696 -41,48 h -1 l -9,-5 v -1 h 3 l -2,-3 h 2 l -6,-8 -4,1 -1,-5 c 7.48874,-13.14362 17.1265,-22.71613 30,-30.34491 4.97836,-2.95013 9.71884,-7.13605 16,-6.28705 4.84042,0.6543 8.98282,5.13025 13,7.63196 m 260,63 2,4 -4,1 1,-4 h -1 l -16,10 -10.74536,-42 -16.25464,-30 c 4.04883,-2.67059 11.94757,-9.33728 16.95987,-8.90125 3.91699,0.34076 7.29141,6.07978 9.40048,8.9159 7.47162,10.04724 13.00214,21.88147 16.16199,33.98535 1.7586,6.73633 9.54199,21.89038 2.47766,27 M 166,595.90474 c 0.77335,0 0.1602,0.49793 -0.33333,0.33338 L 166,595.90474 m 432,0 c 0.77325,0 0.16034,0.49793 -0.33331,0.33338 L 598,595.90474 m 462,8.66669 -3,21 -2,2 c -23.1329,-5.50732 -51.1694,-10.50812 -75.00001,-11 l 3,-20 77.00001,8 m -900,-6 -1,1 1,-1 m 6,3 -1,1 1,-1 m 425,1 -1,1 1,-1 m 3,1 -1,1 1,-1 m -328,7 -19.72223,37 -8.27777,11 1,3 -7,-1 v -1 l 3,-2 3,1 v -4 l -4,2 -5,-3 1,3 c -3.22322,-1.13599 -8.89371,-1.9425 -10.64275,-5.18286 -2.47171,-4.57922 1.31316,-10.87793 3.50463,-14.81714 5.44591,-9.78906 19.77984,-30.15295 32.13812,-31.43677 4.04236,-0.41992 7.79999,3.44647 11,5.43677 m 220,71 v -1 l 2,-1 -2,-2 -17,6 c -0.48755,-23.61743 -8.49881,-48.71198 -20,-69 3.87619,-2.75439 10.9469,-9.38116 15.99615,-8.89734 4.72059,0.45233 8.02646,7.34375 10.19214,10.89734 7.38254,12.11365 11.85813,27.09595 14.38733,41 1.40552,7.72675 6.02771,21.05194 -3.57562,24 m -323,-76 -1,1 1,-1 m 2,2 -1,1 1,-1 m 15,0 1,1 -1,-1 m -4,2.33331 c 0.77338,0 0.1602,0.49793 -0.33333,0.33338 L 176,609.90474 m 101,2.66669 c 5.96692,-4.15173 12.92993,1.73395 14,8 l -6,-4 c 5.34341,8.60638 2.36057,15.74597 1,25 5.51556,-4.81738 7.37952,-14.88452 8,-22 h 13 c 5.47165,6.29907 11.85764,5.36682 17.73996,9.97839 8.63013,6.76575 9.25339,19.94629 9.26004,30.02161 h 1 l 2,-27 h 1 l 2,4 -1,-4 c 5.53683,0.13269 14.00851,-2.08325 17,-7 h 1 l -1,6 c 12.25653,3.91663 8.90247,16.75226 7,27 8.97424,-5.65564 0.50177,-26.17731 9,-29 1.15512,-6.98364 10.41855,-8.30121 15.91049,-5.00928 7.05057,4.2262 8.29996,9.59925 10.08951,17.00928 h 2 l 1,-10 h 4 l 2,-6 -4,-3 3,1 3,-4 c -3.00555,-0.50092 -5.6748,-0.69916 -5,2 h -1 l -1,-2 c 3.59177,-1.84247 7.25113,-2.39825 10,1 19.21732,-4.57513 20.09671,18.92651 23,33 h -1 l -1,-6 -5,-5 2,-3 -6,4 h -1 l -4,-7 1,16 -3,1 c 5.168,9.54346 3.49255,29.44257 1,40 h -1 l 1,-5 -7,11 1,3 c -2.81671,1.73669 -8.20517,5.40503 -11.68597,3.76312 -4.67218,-2.20392 -6.26679,-17.36816 -5.31403,-21.76312 l -1,-1 -4,1 -2,8 3,-1 -4,10 3,-2 v 4 c -4.1109,0 -7.91537,-0.6615 -7,3 l -5,6 h -2 l -11,-23 v -14 h -1 l -2,13 -3,-1 -2,7 v 4 l -10.09027,5.70062 -13.90973,2.29938 -5,-3 2,-11 h -2 c -3.11298,9.14111 -7.13318,10.61237 -15,15 h -1 l -10,-18 3,-10 -8,12 -2,-1 -1,4 c -6.88895,-1.41309 -12.7652,7.85547 -19.91666,3.72223 -5.6958,-3.29193 1.42191,-23.02692 4.91666,-23.72223 v -1 l -1,-5 -8,9 -1,-3 c -2.43137,1.07104 -4.56061,2.06628 -5,-1 l -4,3 -3,-3 1,2 h -1 l -1,-10 -5,-2 3,1 1,-4 -3,1 v -3 h -1 l -2,5 -3,-1 -4,7 c 3.59697,-15.54065 13.28885,-33.29742 21.45294,-47 2.70691,-4.54321 7.32944,-13.50446 13.54706,-10 m 307.66669,-0.33331 -0.33338,0.66662 0.33338,-0.66662 M 284,615.57143 l 1,1 -1,-1 m -102.33333,1.66669 -0.33334,0.66662 0.33334,-0.66662 M 465,686.57143 c -6.95959,1.17383 -17.71146,1.90076 -23,-4 l 3,1 -3,-3 v -1 l 6,1 -2,-6 -4,1 c 0.64041,-6.05627 -1.68628,-12.0061 -0.84955,-17.91052 0.50781,-3.58338 3.58829,-6.2088 2.7284,-10.05707 -0.71344,-3.19281 -2.92002,-4.27594 -5.87885,-4.03241 -1.52109,-5.5614 -5.80017,-12.85852 -4.58951,-18.81866 1.13196,-5.57251 12.01273,-9.40674 15.80094,-5.02857 C 462.44629,635.02034 465,667.38192 465,686.57143 m -285,-69 -2,2 v -2 h 2 m 876,14 c -0.4084,5.00073 -2.1227,21.07898 -6.564,23.88196 -2.9878,1.88562 -8.4079,-1.09552 -11.436,-1.8465 -10.3796,-2.57428 -20.5286,-6.44433 -31,-8.58563 -6.3906,-1.30682 -27.04711,-0.86792 -30.93281,-6.19135 -2.6031,-3.56616 1.9137,-17.02691 2.9328,-21.25848 l 77.00001,14 m -655,-11 -1,1 1,-1 m -95,1 1,1 -1,-1 m -125,2 -1,1 1,-1 m 128,0 1,1 -1,-1 m 26,4 -7,-3 7,3 m -151.33333,-0.33331 -0.33334,0.66662 0.33334,-0.66662 M 310,626.57143 l 3,3 -3,-3 m 60.66666,0.66669 -0.33332,0.66662 0.33332,-0.66662 M 403,626.57143 l 1,3 h -1 v -3 m -29,1 1,1 -1,-1 m -186.33333,1.66669 -0.33334,0.66662 0.33334,-0.66662 M 331,628.57143 l -1,1 1,-1 m -146,1 -1,1 1,-1 m 13,3 1,1 -1,-1 m 855,0 -1,5 h 1 l 2,-5 h -2 m -694,2 1,1 -1,-1 m -159,2 v 1 h -3 l 3,-1 m 137.33334,1.66669 0.33332,0.66662 -0.33332,-0.66662 M 203,639.57143 l -1,1 1,-1 m 220,0 v 1 h 3 l -3,-1 m -223,1 3,3 -3,-3 m 849,20 c -0.6394,5.05469 -0.9232,15.74768 -5.5131,18.97144 -3.8628,2.71313 -12.2631,-0.4422 -16.4869,-1.23224 -13.7891,-2.57929 -27.79324,-7.37305 -41.00001,-12.04785 -4.376,-1.54902 -12.2305,-3.20734 -14.9575,-7.32868 -1.6234,-2.45331 -0.1612,-5.83856 0.5339,-8.36267 3.4395,-12.49103 17.286,-5.85394 27.42357,-4.42438 6.97304,0.98328 13.26934,2.78223 20.00004,4.83795 10.0559,3.07135 20.1838,5.79975 30,9.58643 m 1.3334,-15.33331 0.3332,0.66662 -0.3332,-0.66662 M 190,645.57143 l -1,1 1,-1 m 237,0 -1,1 1,-1 m -235,2 -1,1 1,-1 m 60,1 -1,3 1,-3 m -31,2 1,1 -1,-1 m 306,1 1,1 -1,-1 m 11,0 -1,1 1,-1 m -301,1 v 1 h 3 l -3,-1 m 16,0 1,4 -3,-2 1,4 h 2 l 2,-3 -3,-3 m 283,0 -1,1 1,-1 m 513,0 1,1 -1,-1 m -629.33334,1.66669 -0.33332,0.66662 0.33332,-0.66662 m 628.99994,0.66662 0.6668,0.33338 -0.6668,-0.33338 M 225,655.57143 l 3,1 -1,3 -2,-4 m 218,0 v 1 l 3,1 -3,-2 m -221,3 -1,1 1,-1 m 1.66667,1.66663 -0.33334,0.66674 0.33334,-0.66674 m 4.33333,0.33337 2,3 -2,-3 m 815,24 -7,22 -73.00001,-21 5,-24 75.00001,23 m -763,-21 1,1 -1,-1 m -67,4 -1,1 1,-1 m 65,0 1,1 -1,-1 m -25,1 v 2 h -2 l 2,-2 m 258,0 -1,1 1,-1 m -178,3 -1,9 3,-9 h -2 m 168,1 -5,4 v -1 l 5,-3 m -247,2 v 2 l -2,-2 h 2 m 16,0 1,1 -1,-1 m 177,2 1,1 -1,-1 m 40,0 1,3 3,-1 -4,-2 m -235,1 -1,1 1,-1 m 24,0 -2,2 2,-2 m -30,1 -1,1 1,-1 m 13,0.33337 c 0.77335,0 0.16025,0.49781 -0.33334,0.33326 L 259,678.9048 m 11,-0.33337 -1,1 1,-1 m -33,4 -2,3 2,-3 m 210,0 1,1 -1,-1 m -174,1 -1,1 1,-1 m 93,2 1,1 -1,-1 m 668,24 -5,19 c -18.7109,-0.0123 -35.75741,-5.85413 -53.00001,-12.42438 -5.0855,-1.9378 -15.1913,-4.69153 -17.9328,-9.78857 -2.7386,-5.09162 2.4616,-13.42316 2.9328,-18.78705 l 73.00001,22 m 6,-22 1,1 -1,-1 m -598,1 -1,1 1,-1 m 597,1 1,1 -1,-1 m -737,1 -1,1 1,-1 m 139,1 -1,1 1,-1 m -139,1 1,3 h -1 v -3 m 138,1 -1,1 1,-1 m -86,1 1,1 -1,-1 m 32,0 1,1 -1,-1 m -93,5 -1,1 1,-1 m 144,1 -4,4 2,-4 h 2 m 7,0 -1,1 1,-1 m -9,1 1,1 -1,-1 m 5,0 -1,1 1,-1 m -123,5 -1,1 1,-1 m 710,25 -4,24 c -19.598,0 -38.10891,-5.32147 -56.00001,-12.99927 -4.9797,-2.13696 -15.6467,-5.51294 -17.5934,-11.18518 -1.6922,-4.93091 3.7691,-16.97998 5.5934,-21.81555 l 42.99997,17.2793 29.00004,4.7207 m -646,-21 -1,1 1,-1 m 567.99999,26 -1,1 1,-1 m 2,1 c 18.6221,13.24725 48.30077,20.98505 71.00001,21 -0.3241,4.10571 -0.1165,14.26465 -3.5995,16.97223 -4.0375,3.13861 -12.7654,0.16339 -17.4005,0.0424 -20.64871,-0.53904 -39.43591,-7.35264 -59.00001,-13.01463 v -1 h 4 v -5 -1 l -1,-7 4,1 v -1 l -3,-4 3,2 2,-9 m -4,3 -1,1 1,-1 m -0.6667,10.66663 0.3334,0.66674 -0.3334,-0.66674 m -1.3333,2.33337 1,1 -1,-1 m 2,4 v 2 h 2 v -2 h -2 m -3,2 -1,1 1,-1 m -1,7 -1,1 1,-1 m 76.00001,12 c -0.3269,4.86761 0.566,19.98682 -3.4768,23.11108 -3.048,2.35547 -10.8477,0.88892 -14.5232,0.88892 -15.46171,0 -31.20251,-3.29541 -46.00001,-7.70837 -5.0257,-1.49878 -14.3675,-2.68726 -16,-8.29163 h 1 l 2,2 v -3 l 2,-5 5,-10 h -3 c 4.9625,-3.1842 15.3364,1.20142 21,2.2608 17.2408,3.22492 34.36761,7.11908 52.00001,5.7392 m -77.00001,-9 1,4 -1,-4 m 4,2 -1,1 1,-1 m -2,3 -3,2 3,-2 m -3.3333,4.66663 -0.3334,0.66674 0.3334,-0.66674 m 2.3333,3.33337 -1,1 1,-1 m -3,11 -1,1 1,-1 m 76.00001,11 v 17 c -24.09411,1.90161 -53.76121,6.76733 -77.00001,-2 v -9 h 1 l 5,1 v -16 c 24.5007,3.60217 45.7553,10.33838 71.00001,9 m -76.00001,-5 -1,1 1,-1 m 3,2 1,3 h -1 v -3 m 1,8 -1,1 1,-1 m -4,5 1,1 -1,-1 m 1,2 1,1 -1,-1 m 2,2 1,1 -1,-1 m 74.00001,5 4,24 c -20.2946,7.7818 -44.19661,14.04773 -66.00001,10 -1.4534,-9.84106 -4.6547,-23.88721 -12,-31 h 24 l 50.00001,-3 m -71.00001,9 -1,1 1,-1 m -3,2 1,3 -1,-3 m 5,1 -1,1 1,-1 m 0,4 -1,1 1,-1 m -2,10 -1,1 1,-1 m 24,40 -7,2 -6,-30 c 15.7621,1.84412 32.7352,-1.85321 48.00001,-5.92358 3.8476,-1.026 13.6252,-6.8772 17.0657,-3.43293 19.0544,19.07581 -21.8246,29.59357 -34.06571,34.0517 -4.501,1.63928 -13.7581,7.00354 -18,3.30481 m 60.00001,-19 c 8.1874,13.33167 1.2831,16.84827 -10,25.2207 -16.5092,12.25025 -30.49931,16.39765 -50.00001,18.7793 l -2,-2 -2,-13 -3,3 h -1 l -2,-5 5,2 v -4 c 23.1574,-0.54199 43.57901,-18.69897 65.00001,-25 m 9,13 c 2.5939,3.81323 9.7529,10.35626 9.8118,14.99615 0.065,5.10773 -8.4195,10.11713 -11.8118,13 -9.7202,8.26032 -20.761,14.87726 -32,20.83646 -4.2113,2.2329 -10.47521,3.3593 -14.00001,6.1674 l -5,-7 3,1 -4,-6 h -1 l -1,3 2,3 h -1 l -4,-15.00001 c 23.11001,-3.92822 40.59881,-21.19025 59.00001,-34 m -73.00001,5 2,2 -2,-2 m 5,11 1,1 -1,-1 M 1013,959.57144 l -7,-6 1,-2 -3,1 -5.00004,-6 5.00004,3 -7.00001,-9 c 13.74071,-8.4402 28.93631,-16.2809 41.00001,-27.07875 3.0867,-2.76269 10.2957,-11.81262 14.9105,-10.57556 11.432,3.06433 8.3319,14.31281 3.2824,20.65431 -10.5072,13.1953 -26.6435,30.7173 -43.1929,36 m -45.00001,-49.00001 -3,-3 3,3 M 1019,960.57144 c 8.5641,-5.3568 16.8171,-12.9064 24,-20.0039 4.2911,-4.2401 8.7745,-8.4101 12.6998,-12.9961 2.2781,-2.6615 4.9413,-8.60646 8.4846,-9.65821 4.7894,-1.42157 14.0442,8.02021 13.1227,12.69761 -2.7306,13.8591 -16.5279,25.8328 -26.3078,34.9852 -3.4151,3.196 -8.0385,8.4828 -12.9993,9.0487 -7.16,0.8167 -16.1646,-8.3411 -19,-14.0733 m -41.00001,-42.00001 -1,1 1,-1 m -2,1 -1,1 1,-1 M 1095,938.57144 c -2.8308,13.7153 -12.1353,27.4598 -21.2893,38 -2.8901,3.3277 -7.1029,9.0404 -11.7107,9.8788 -5.7749,1.0509 -14.8634,-5.4732 -20,-7.8788 l 39,-49 14,9 m -106.00001,-5 3,2 -3,-2 m 78.00001,55 c 9.9984,-15.1151 25.7688,-28.7189 30,-47 2.6345,0.6188 4.6641,1.5657 7.0016,2.9653 2.7297,1.6344 7.3332,3.4669 8.8773,6.4135 3.6752,7.0135 -8.9258,21.311 -12.5348,26.6212 -3.7263,5.4828 -9.2723,15.4584 -16.3441,16.929 -4.9672,1.0329 -12.7347,-3.6575 -17,-5.929 m -71.00001,-46 -1,1 1,-1 m 8.00001,7 1,1 -1,-1 m 84,48 29,-45 c 3.9952,1.6391 13.6743,3.9202 15.3534,8.2746 1.4873,3.8572 -2.2943,8.5954 -4.0725,11.7254 -4.8838,8.5964 -11.5571,25.9068 -21.2816,29.86796 -5.0728,2.0664 -13.8426,-3.67436 -18.9993,-4.86796 m 49,-36 10.382,7.3395 -3.1637,13.6605 -18.2183,29.99996 -7,-3 2,-2 -4,-1 1,2 h -1 l -1,-3 h -6 l 27,-43.99996 m -118,1 -1,1 1,-1 m 2,1 v 1 h 3 l -3,-1 m 7,3 1,1 -1,-1 m 111,46.99996 -3,1 2,3 -9,-3 22,-43.99996 c 4.9059,0.946 16.3309,5.3637 18.3573,10.3788 1.2922,3.1982 -0.8237,7.7518 -2.1528,10.6212 -3.8947,8.4079 -10.9801,22.32456 -19.2084,27.06626 -4.9419,2.8479 -8.5961,-0.046 -8.9961,-5.0663 m 35,-30.99996 c 4.2506,3.3733 12.7594,7.4894 14.2917,13.0146 0.9572,3.4513 -1.661,7.19626 -3.3535,9.98536 -4.3252,7.1273 -10.1917,21.6501 -18.9421,24.1528 -5.3096,1.5185 -12.0281,-4.6081 -16.9961,-6.1528 l 16.9352,-24.99996 8.0648,-16 m 19,15 13,9.99996 c -2.6282,12.5658 -11.5006,29.1914 -24,34 v -3 l -11,-6 1,2 -3,-1 24,-35.99996 m -70,9.99996 -1,2 h 2 l -1,-2 m 9,4 2,3 v -1 l -2,-2 m 70,44 -1,-7 h -1 l -1,3 2,-1 v 4 l -3,-5 c -4.6097,0.8499 -10.7605,-2.3921 -8.2469,-8 4.7594,-10.6181 14.0728,-18.6845 18.2469,-30 20.6914,10.0832 12.099,36.3318 -6,44 m 23,-24 c 6.8223,16.634 3.2579,35.3357 -19,27 l 19,-27 m -43,6 1,1 -1,-1 m 2,1 1,1 -1,-1 m 6.3334,4.6666 0.3332,0.6668 -0.3332,-0.6668 m 5.6666,3.3334 v 2 h 2 z"
       id="path1" />
  </g>
</svg>
