<?xml version="1.0" encoding="UTF-8" standalone="no"?>
<!-- Created with Inkscape (http://www.inkscape.org/) -->

<svg
   width="330.02335mm"
   height="247.42073mm"
   viewBox="0 0 330.02335 247.42073"
   version="1.1"
   id="svg1"
   xml:space="preserve"
   xmlns="http://www.w3.org/2000/svg"
   xmlns:svg="http://www.w3.org/2000/svg"><defs
     id="defs1" /><g
     id="layer1"
     transform="translate(62.153237,88.847681)"><path
       style="fill:#000000"
       d="m 128.19291,157.9045 c -0.50726,-0.64017 -0.57006,-0.96933 -0.45765,-2.39842 0.1089,-1.38438 0.0429,-1.7675 -0.40174,-2.33279 -0.29262,-0.372 -0.79899,-1.47208 -1.12527,-2.44462 l -0.59322,-1.76826 -2.13968,-0.56903 c -1.17682,-0.31298 -3.44619,-1.17618 -5.04303,-1.91823 -1.59685,-0.74206 -3.14607,-1.3492 -3.44272,-1.3492 -0.29664,0 -0.96101,-0.20107 -1.47637,-0.44683 -0.77823,-0.37111 -1.13245,-0.8531 -2.09029,-2.84427 -1.90926,-3.96902 -2.3573,-6.54212 -2.42151,-13.90681 -0.0536,-6.14502 -0.7274,-14.72598 -1.23209,-15.69028 -0.20767,-0.39679 -0.45747,-0.44857 -1.48963,-0.30874 -1.33355,0.18065 -6.83051,1.09713 -8.780747,1.46397 -4.381636,0.82418 -16.457081,2.83061 -20.556174,3.41556 -1.046677,0.14936 -2.892146,0.27343 -4.101042,0.2757 -1.208895,0.002 -2.912367,0.18436 -3.785492,0.40462 -1.560404,0.39365 -2.107052,0.48981 -7.408333,1.30308 -1.455208,0.22325 -3.360208,0.52684 -4.233333,0.67465 -5.199199,0.88018 -10.675626,1.23252 -16.36808,1.0531 l -4.197247,-0.13229 -1.88817,1.36451 c -2.872727,2.07602 -4.24816,3.0167 -7.709003,5.27229 -1.74625,1.13811 -3.829843,2.56654 -4.630208,3.17429 -0.800364,0.60775 -1.931458,1.36993 -2.513541,1.69373 -0.582084,0.32381 -2.042869,1.18104 -3.246191,1.90496 -3.501795,2.10667 -10.0501468,5.11702 -13.7289693,6.31135 -3.18342717,1.0335 -3.59803434,1.10451 -6.5727564,1.12568 -2.7712516,0.0197 -3.4468037,-0.0675 -5.3124127,-0.68584 -2.5075936,-0.83112 -4.7020976,-2.19528 -6.7261286,-4.18113 -2.287101,-2.24395 -6.612975,-5.76878 -9.968127,-8.12227 l -0.840002,-0.58923 -0.429056,1.52521 c -0.586878,2.08623 -1.907313,5.44597 -2.859831,7.27661 -0.639648,1.22934 -0.728279,1.59231 -0.46599,1.90835 0.480352,0.57879 0.658906,3.34936 0.288237,4.4725 -0.384056,1.1637 -0.917708,1.2349 -1.455858,0.19423 -0.219111,-0.42371 -0.703212,-1.01017 -1.075779,-1.30323 -0.640206,-0.50358 -0.742438,-0.51068 -1.862113,-0.12916 -1.402218,0.47778 -1.968981,0.32947 -1.968981,-0.51524 0,-0.72693 1.409205,-3.051 1.983634,-3.27143 0.218689,-0.0839 0.397616,-0.40847 0.397616,-0.72123 0,-0.31275 0.399396,-2.11571 0.887546,-4.00658 0.48815,-1.89088 1.331056,-5.15881 1.873125,-7.26209 1.425507,-5.5311 1.686053,-5.88411 3.90705,-5.29348 1.175298,0.31254 1.957081,0.72385 4.444779,2.33845 0.800365,0.51946 1.924488,1.18572 2.498052,1.48057 0.994011,0.511 2.237741,1.84162 1.970831,2.10854 -0.06924,0.0692 -0.894703,-0.32921 -1.834365,-0.88544 -5.585903,-3.30656 -7.008939,-4.08184 -7.833747,-4.26786 -0.827655,-0.18667 -0.942854,-0.141 -1.173297,0.46511 -0.140544,0.36965 -0.187695,0.88584 -0.104782,1.14708 0.249275,0.78539 3.809127,4.23311 6.266464,6.06908 4.055475,3.02998 6.12236,4.69367 7.869043,6.33399 1.627327,1.52823 2.113366,1.67521 2.127333,0.64335 0.0066,-0.48896 1.606068,-1.9073 3.1044639,-2.75295 1.5318652,-0.86453 1.7045799,-1.18028 0.8021913,-1.46652 -1.3351022,-0.4235 -5.4901042,-2.50964 -5.4901042,-2.75646 0,-0.52014 1.315071,-0.25114 3.336169,0.68243 1.128544,0.52128 2.6944147,1.18818 3.479713,1.482 l 1.4278151,0.53421 1.6328389,-0.71523 c 0.8980614,-0.39338 2.7044014,-1.22451 4.01408891,-1.84697 2.06184729,-0.97993 4.36562489,-1.67182 4.36562489,-1.31112 0,0.0637 -1.0959328,0.65713 -2.4354063,1.31883 -1.33947348,0.6617 -2.56131,1.30758 -2.7151923,1.43529 -0.1538823,0.12771 -0.992715,0.49395 -1.8640728,0.81387 -0.8713577,0.31992 -1.6973961,0.68604 -1.8356409,0.81359 -0.1382448,0.12755 -0.4991944,0.2319 -0.8021102,0.2319 -1.0388867,0 -4.5942713,2.35889 -5.4667853,3.62705 -0.724939,1.05366 -0.779476,1.25828 -0.483016,1.81222 0.416551,0.77833 1.9248496,1.48879 4.4610552,2.10129 4.491056,1.08461 10.4120355,-0.28393 18.1081088,-4.18541 2.158328,-1.09415 4.122859,-2.15745 4.365625,-2.3629 0.242766,-0.20545 1.036705,-0.70943 1.76431,-1.11996 1.947969,-1.09909 3.871446,-2.38403 7.232888,-4.83179 1.649755,-1.20134 3.112107,-2.18425 3.249671,-2.18425 0.137565,0 0.357796,-0.26789 0.489404,-0.59531 0.131607,-0.32742 0.246833,-0.43677 0.256057,-0.243 0.02004,0.42093 0.970379,-0.13009 4.243122,-2.46023 l 2.241977,-1.59625 -1.448227,-0.21047 c -3.04789,-0.44295 -7.826325,-1.32554 -8.457018,-1.56204 -0.362336,-0.13587 -1.594365,-0.42451 -2.737841,-0.64142 -1.719373,-0.32616 -2.162453,-0.33456 -2.561155,-0.0486 -0.265158,0.1902 -1.354849,0.97261 -2.421534,1.73867 -5.084064,3.65124 -8.7246959,5.78964 -9.2763915,5.44867 -0.3325841,-0.20555 0.2796278,-0.84982 1.3661389,-1.43768 1.7409506,-0.94194 9.2734756,-6.32245 9.2764896,-6.62622 8.95e-4,-0.0902 -0.56392,-0.31689 -1.255144,-0.50369 -0.691224,-0.1868 -3.161771,-1.0426 -5.490104,-1.90177 -2.3283333,-0.85917 -5.5430207,-2.04344 -7.1437498,-2.6317 -4.38240357,-1.61051 -12.372012,-5.60784 -17.8207582,-8.91602 -2.670896,-1.62161 -4.947938,-2.94839 -5.060094,-2.94839 -0.414668,0 -5.770171,-3.964633 -8.075397,-5.978146 -2.516051,-2.197659 -7.171971,-6.927803 -9.220696,-9.367692 -5.71426,-6.805284 -8.638679,-10.384653 -8.638679,-10.573387 0,-0.09611 -0.208359,-0.409699 -0.463021,-0.696859 -1.118575,-1.261324 -2.238072,-2.862236 -4.422672,-6.324546 -1.285462,-2.037292 -2.792756,-4.257882 -3.349543,-4.934646 -2.548145,-3.097218 -4.821826,-6.804284 -6.708804,-10.938194 -1.699846,-3.723952 -2.04109,-4.727473 -2.488571,-7.318328 -0.437602,-2.533649 -0.484949,-3.539766 -0.303163,-6.442167 0.235969,-3.767504 0.64498,-5.485037 2.03736,-8.555366 1.549409,-3.416593 3.757746,-6.003451 8.292266,-9.713605 1.708595,-1.397977 3.244745,-2.845112 3.413667,-3.215856 0.319644,-0.701542 2.129808,-3.057372 2.464497,-3.207408 0.220742,-0.09896 2.647589,-2.853897 6.349118,-7.2074811 2.410179,-2.8347521 12.655291,-13.0322746 14.010608,-13.9455273 0.338323,-0.2279719 1.223057,-0.9598038 1.966075,-1.6262931 5.447065,-4.8860295 13.6977446,-9.3199725 23.91676556,-12.8529475 8.09013514,-2.796966 12.04046144,-3.830218 16.66874944,-4.359898 1.382448,-0.158213 3.882761,-0.461646 5.55625,-0.674296 1.67349,-0.21265 4.05474,-0.508379 5.291667,-0.657175 1.236927,-0.148796 2.400711,-0.325596 2.586186,-0.392888 0.428971,-0.155635 0.16258,-1.38596 -0.458666,-2.118345 -0.432799,-0.510225 -4.077809,-6.047705 -6.060012,-9.206338 -0.529265,-0.843382 -1.705122,-2.629319 -2.613017,-3.96875 -1.886733,-2.783528 -4.302408,-7.334274 -4.302408,-8.105049 0,-0.397074 -0.609673,-0.811207 -2.579687,-1.752306 -1.418828,-0.677791 -3.175,-1.463419 -3.902604,-1.745841 -0.7276044,-0.282421 -1.6801044,-0.677077 -2.1166669,-0.877012 -0.4365625,-0.199936 -1.7100547,-0.726517 -2.8299827,-1.17018 -2.430381,-0.962803 -7.6949498,-3.497186 -10.7343793,-5.16757 -4.8645075,-2.673394 -8.9623141,-6.067193 -9.5778861,-7.932395 -0.33133,-1.003941 -1.542041,-3.397877 -3.37775,-6.678819 -1.190043,-2.126949 -1.658126,-3.322837 -1.658126,-4.236279 0,-0.342667 -0.434646,-1.442472 -0.96588,-2.444011 -1.282982,-2.418816 -1.142614,-2.802122 0.939869,-2.566515 1.533104,0.17345 1.563265,0.163764 2.442786,-0.784518 1.03291,-1.113663 1.808709,-1.492449 2.279579,-1.11301 0.521061,0.419883 0.388828,1.601132 -0.330729,2.954434 -0.363803,0.684218 -0.661459,1.49585 -0.661459,1.803626 0,0.736752 1.768351,7.695668 2.246165,8.839238 0.314486,0.752672 0.509021,0.893731 1.246063,0.903531 0.480369,0.0064 1.349647,0.195201 1.93173,0.419585 0.582084,0.224384 1.8917712,0.622312 2.910417,0.884285 1.8651805,0.479683 2.5368225,0.724656 6.86555277,2.50412 6.04768833,2.486097 15.71228423,7.853058 20.25423823,11.247621 0.509323,0.380658 1.402292,0.851138 1.984375,1.045513 2.322239,0.775463 4.894792,2.923716 4.894792,4.087478 0,0.464403 -0.194985,0.36257 -1.256771,-0.656365 -1.661628,-1.594568 -2.603865,-2.214283 -4.002973,-2.63278 -1.145484,-0.342633 -1.167181,-0.337098 -1.901899,0.485194 -1.34528,1.50563 -1.556542,4.012183 -0.518484,6.151654 0.695855,1.434182 3.472359,6.091645 4.365196,7.322428 1.083317,1.493358 1.755336,2.477909 3.428105,5.022396 0.780412,1.1871 1.93741,2.919729 2.571107,3.850285 1.402363,2.059307 1.60277,2.377447 2.525602,4.009315 l 0.727645,1.286714 1.330715,-0.175755 c 2.411475,-0.318497 8.450911,-0.438375 9.731236,-0.193157 1.501618,0.287602 1.595027,0.05097 0.506994,-1.284338 -0.412378,-0.506098 -1.192182,-1.730802 -1.732899,-2.721564 -0.850769,-1.558873 -2.428604,-3.858614 -4.925658,-7.179289 -0.363802,-0.483797 -1.252428,-1.697157 -1.974724,-2.696354 -0.722297,-0.999198 -2.253069,-2.884043 -3.401716,-4.188547 -1.175296,-1.334766 -1.949837,-2.418028 -1.771431,-2.477496 0.394627,-0.131543 4.098572,3.688304 6.22183,6.41652 0.873125,1.121896 2.06375,2.619843 2.645833,3.328772 0.582083,0.708928 1.947589,2.69532 3.034456,4.414203 1.086868,1.718883 2.426321,3.745237 2.976563,4.503007 0.550241,0.757771 1.000439,1.543808 1.000439,1.746748 0,0.278205 0.797395,0.447202 3.241146,0.686919 11.724506,1.150102 15.598318,1.836166 21.89427,3.877542 3.368861,1.092306 8.15798,2.309979 10.847917,2.758172 1.091406,0.181848 2.194679,0.440941 2.451717,0.575762 0.257038,0.13482 1.864382,0.481066 3.571875,0.769434 1.707493,0.288368 3.759376,0.643072 4.559741,0.788231 3.471526,0.629617 7.57032,1.063657 11.52715,1.220659 l 4.2511,0.16868 0.68834,-1.174561 c 0.63731,-1.087486 0.98455,-2.067576 2.16444,-6.109104 0.52655,-1.803627 1.09832,-6.308938 1.33544,-10.522705 0.0942,-1.67349 0.41938,-4.915869 0.72268,-7.205288 l 0.55147,-4.16258 -2.88125,-3.064672 c -5.13636,-5.463354 -6.15317,-6.736317 -7.42068,-9.290069 -1.06621,-2.148171 -1.19265,-2.582208 -1.04353,-3.582219 0.0933,-0.625835 0.0632,-1.705646 -0.067,-2.39958 -0.13486,-0.71889 -0.13715,-1.323211 -0.005,-1.404678 0.12724,-0.07864 0.23201,0.01288 0.23282,0.203366 8.1e-4,0.190489 0.12812,0.802404 0.2829,1.359812 0.22475,0.809384 0.37097,0.972896 0.72613,0.811993 0.24459,-0.11081 0.86142,-0.210777 1.37075,-0.222148 l 0.92604,-0.02067 0.22058,-2.074152 c 0.26207,-2.464283 0.11566,-3.229893 -0.65625,-3.431753 -0.94432,-0.246944 -2.3003,0.475677 -2.48848,1.326144 -0.28893,1.305831 -0.3409,1.303088 -0.36226,-0.01912 -0.0181,-1.123253 -0.15764,-1.441694 -1.06086,-2.421567 -1.30994,-1.421124 -1.891837,-3.123976 -1.27746,-3.738357 0.60779,-0.607786 2.58659,-0.265956 3.38593,0.584905 0.70402,0.749394 1.38851,0.813086 2.72715,0.253763 1.24541,-0.520364 2.26446,-0.506123 2.47193,0.03454 0.22284,0.580719 -0.58514,2.021605 -1.52205,2.714293 -0.71703,0.530122 -0.75277,0.646689 -0.61452,2.003942 0.0807,0.792593 0.0137,2.298923 -0.14899,3.347399 -0.28747,1.852775 -0.2776,1.925568 0.35133,2.591613 1.23465,1.307511 4.35959,5.692618 4.21891,5.920235 -0.1959,0.316974 -1.27255,-0.726354 -2.53528,-2.456818 -1.31958,-1.808371 -3.38186,-3.96875 -3.78853,-3.96875 -0.16775,0 -0.62884,0.254738 -1.02466,0.566085 -0.60985,0.479708 -0.69449,0.700211 -0.55475,1.445113 0.48896,2.606391 2.1765,4.955138 7.83717,10.907897 2.71129,2.851191 2.86523,2.969047 3.15961,2.41899 0.20763,-0.387957 0.39708,-0.490603 0.57575,-0.311938 0.17867,0.178666 0.12923,0.993349 -0.15024,2.475802 -0.65333,3.465661 -0.95072,5.885944 -1.21431,9.882427 -0.13437,2.037292 -0.37983,5.013855 -0.54547,6.614584 -0.35705,3.450585 -1.94749,10.01241 -2.67949,11.054985 l -0.51691,0.736234 0.74191,-0.164415 c 3.22613,-0.714949 3.92904,-0.981883 5.07436,-1.92702 0.67309,-0.55544 1.79768,-1.398998 2.4991,-1.874573 0.71427,-0.484283 1.21912,-1.011115 1.14758,-1.197541 -0.0703,-0.183073 -0.0265,-1.272943 0.0972,-2.421932 0.1237,-1.148989 0.36055,-3.577353 0.52633,-5.396363 0.16578,-1.819011 0.58965,-5.152761 0.94193,-7.408334 0.72312,-4.629978 0.77124,-6.063169 0.27978,-8.334375 -0.39355,-1.818797 -0.89823,-2.866296 -1.88025,-3.902604 -0.8544,-0.901641 -1.20578,-0.908881 -2.23128,-0.04598 -0.44554,0.374895 -1.01278,0.642588 -1.26053,0.594874 -0.37397,-0.07202 -0.30612,-0.251158 0.39948,-1.054788 l 0.84994,-0.968037 -1.50726,-1.148192 c -1.49198,-1.136547 -2.01725,-1.809649 -1.4122,-1.809649 0.17205,0 1.24779,0.704531 2.39055,1.565624 1.14276,0.861094 2.2991,1.635882 2.56965,1.721751 1.23589,0.392257 2.14407,1.824301 2.85799,4.506594 0.78403,2.94572 0.79266,2.629817 -0.28937,10.594573 -0.65069,4.789713 -1.46271,13.400064 -1.2828,13.602364 0.0531,0.05974 0.7224,-0.02831 1.48728,-0.195667 1.88477,-0.412384 5.68434,-0.0085 7.17035,0.762183 2.90877,1.508567 6.00235,4.30295 9.03701,8.162978 0.7276,0.925498 2.15635,2.632344 3.175,3.792992 3.9564,4.5079277 7.0437,8.4668065 6.89828,8.8457502 -0.2135,0.5563763 -0.49167,0.3075824 -2.66708,-2.3854273 -7.65128,-9.4717559 -12.03318,-14.3206839 -14.41766,-15.9543319 -2.74389,-1.879891 -3.32905,-2.067031 -6.48229,-2.073129 -2.62452,-0.0051 -3.06209,0.06543 -4.4545,0.717743 -2.66139,1.24681 -5.44713,3.650228 -6.98168,6.023504 -0.51751,0.800365 -1.25812,1.931459 -1.64579,2.513542 -1.69841,2.550105 -5.83574,15.8623347 -5.83574,18.7769947 0,0.312808 -0.18612,0.7998575 -0.41361,1.0823323 -0.38686,0.4803532 -0.40521,0.4365385 -0.28363,-0.6770345 0.21182,-1.9400079 0.9374,-6.09032075 1.38768,-7.9375003 1.25705,-5.1567379 4.11755,-12.3777462 5.75711,-14.5331372 0.3795,-0.498902 0.64936,-0.947731 0.5997,-0.997398 -0.0497,-0.04967 -0.90031,0.09755 -1.89032,0.327147 -1.24244,0.288142 -2.42237,0.36958 -3.8092,0.262909 -1.10505,-0.085 -2.84262,-0.216311 -3.86127,-0.291807 -4.567834,-0.338542 -7.029464,-0.675585 -13.361457,-1.829432 -1.236927,-0.225399 -3.439583,-0.53113 -4.894791,-0.679402 -1.455209,-0.148272 -4.729427,-0.618185 -7.276042,-1.04425 -2.546614,-0.426066 -6.058958,-0.963868 -7.805208,-1.195115 -1.74625,-0.231247 -3.889375,-0.580826 -4.7625,-0.776842 -1.789283,-0.401693 -3.851061,-0.605946 -8.466666,-0.838761 -3.939939,-0.198735 -3.191635,-0.198982 -8.238287,0.0027 -3.554806,0.142075 -4.293644,0.10782 -4.413541,-0.204627 -0.0792,-0.206398 -0.07059,-0.448682 0.01914,-0.53841 0.08973,-0.08973 3.628749,-0.155029 7.864493,-0.145114 7.775511,0.0182 8.442777,0.07122 16.542155,1.314435 4.292699,0.658907 5.639282,0.623917 3.307291,-0.08594 -0.873125,-0.265778 -1.825625,-0.591085 -2.116666,-0.722904 -0.717197,-0.324833 -5.414204,-1.515149 -7.247326,-1.836619 -5.568654,-0.976559 -20.940168,-2.327756 -23.563589,-2.071302 l -0.889714,0.08697 -0.02468,2.513542 -0.02469,2.513542 -2.116666,0.180554 c -7.163832,0.611085 -9.158031,0.805125 -12.964583,1.261484 -5.13329,0.615417 -7.384424,1.081122 -10.847917,2.244172 -1.455208,0.488663 -4.1650758,1.377312 -6.0219278,1.974777 -5.4449405,1.751975 -12.9089422,4.951182 -16.4676552,7.058337 -7.220919,4.2755891 -9.321086,5.8027284 -12.239152,8.8997144 -2.122964,2.25313366 -2.445223,2.8604697 -2.445223,4.6083211 0,2.1490138 1.071725,3.8533219 4.614544,7.3382705 5.713126,5.619805 10.243379,8.624929 22.9021225,15.192026 2.1100521,1.094652 4.1494889,2.208211 4.532082,2.474576 0.382593,0.266365 2.8231802,1.57123 5.4235275,2.899699 4.6506,2.375905 6.610424,3.191644 9.755849,4.060683 0.873125,0.241233 2.110407,0.611906 2.749516,0.823719 0.891613,0.295498 1.24855,0.313299 1.533878,0.0765 0.302057,-0.250685 0.307427,-0.354937 0.02861,-0.555369 -0.241628,-0.173696 -0.19513,-0.198418 0.157048,-0.0835 0.275166,0.08979 0.770391,-0.01372 1.1005,-0.230012 0.624317,-0.409068 3.780825,-1.40788 9.301726,-2.943341 5.613825,-1.561304 12.439005,-4.597247 17.099131,-7.605951 4.626593,-2.987055 14.282092,-8.365249 15.386619,-8.570477 0.553978,-0.102933 0.71643,-0.06295 0.532555,0.131082 -0.262577,0.277079 -7.182924,4.288697 -7.398328,4.288697 -0.206539,0 -8.200887,4.830371 -9.005838,5.441537 -2.25273,1.710403 -11.58179,5.824345 -15.875,7.00058 -5.232114,1.433471 -8.948649,2.760585 -10.639202,3.799083 -1.692707,1.039821 -1.836916,1.210922 -3.108551,3.688234 l -1.333497,2.597828 0.0038,3.48689 c 0.0042,3.854502 0.315268,4.956157 1.999998,7.083302 1.119495,1.413478 2.415599,2.113499 6.488668,3.504509 1.905966,0.650913 4.049091,1.445415 4.7625,1.765558 0.713409,0.320144 1.713826,0.764101 2.223149,0.986571 3.045067,1.330072 5.75948,2.736729 8.202083,4.250465 7.305544,4.527411 10.844007,6.633103 13.933034,8.29136 8.143559,4.371643 17.470881,8.232776 22.711757,9.401745 5.414125,1.207612 6.904542,1.342485 14.736664,1.333576 l 7.631547,-0.0087 0.16123,-0.642376 c 0.0887,-0.353307 0.0886,-1.435804 -1.1e-4,-2.405548 -0.0887,-0.969745 -0.35492,-7.061454 -0.59153,-13.537131 -0.23661,-6.475678 -0.47666,-12.30974 -0.53345,-12.964584 -0.27956,-3.223786 -0.052,-13.237294 0.33231,-14.622072 0.0712,-0.256774 0.23978,-0.398744 0.37449,-0.315489 0.14141,0.0874 0.24517,3.527645 0.24551,8.13978 3.2e-4,4.393623 0.0503,8.405125 0.11112,8.914448 0.0608,0.509323 0.1826,2.950104 0.27068,5.423958 0.66054,18.554028 1.9441,31.276207 3.64264,36.104626 2.98885,8.496367 8.75258,16.310377 13.18406,17.873887 1.64464,0.58026 5.16808,0.99941 7.26825,0.86463 2.60397,-0.16711 4.50321,-1.12588 6.69883,-3.38168 1.46551,-1.50569 2.35936,-2.58823 5.33755,-6.46429 0.3638,-0.47348 1.81133,-2.5167 3.21673,-4.54048 2.52872,-3.641369 5.47954,-7.148284 5.50259,-6.539589 0.0136,0.359003 -2.57504,4.225149 -3.80221,5.678629 -0.44884,0.53161 -1.6247,2.27382 -2.61303,3.87157 -0.98833,1.59776 -2.03181,3.11754 -2.31884,3.3773 -0.28704,0.25977 -0.92545,1.0774 -1.41869,1.81697 -1.59502,2.39158 -4.60651,5.22877 -6.62518,6.24174 -1.83207,0.91933 -1.85752,0.92366 -5.29167,0.90069 -3.62794,-0.0243 -6.10049,-0.48161 -7.7281,-1.42946 -0.46078,-0.26833 -0.90726,-0.4184 -0.99219,-0.33347 -0.0849,0.0849 -0.15441,2.50879 -0.15441,5.38637 0,2.87757 -0.10558,5.2972 -0.23461,5.37695 -0.61581,0.38059 -0.78405,-0.81507 -0.85377,-6.06767 l -0.0737,-5.55547 -0.80801,-0.77608 c -0.79837,-0.76684 -0.85133,-0.77749 -4.44553,-0.8938 l -3.63753,-0.11771 0.12706,3.53963 c 0.0699,1.94679 0.19163,6.18859 0.27054,9.4262 0.21943,9.00209 0.87801,13.02349 2.76403,16.87757 1.08878,2.22493 2.04354,3.03273 3.58442,3.03273 0.91711,0 2.42891,-1.61106 2.79139,-2.97467 0.16468,-0.61951 0.64867,-1.9699 1.07553,-3.00088 l 0.77611,-1.87451 -0.80024,-2.44883 c -0.84359,-2.5815 -1.03085,-4.10958 -0.48116,-3.92635 0.1755,0.0585 0.65209,1.2646 1.0591,2.68022 0.54155,1.88356 1.03552,2.97385 1.84182,4.06531 1.06588,1.44283 3.51651,4.41152 4.53635,5.49534 1.87976,1.99767 3.59873,4.70186 4.1206,6.48229 0.59344,2.0246 0.79191,2.38125 1.32511,2.38125 0.85939,0 2.0878,0.86753 2.65341,1.8739 0.46094,0.82013 0.48566,1.02159 0.17711,1.44356 -0.34068,0.4659 -0.44946,0.46992 -2.17632,0.0804 -0.99974,-0.22551 -2.02087,-0.49771 -2.26918,-0.60489 -0.40039,-0.17284 -0.46025,0.0398 -0.52916,1.87951 -0.0707,1.88749 -0.1286,2.08165 -0.64249,2.15494 -0.36556,0.0521 -0.77217,-0.18119 -1.15273,-0.66146 z m 1.46122,-0.37126 c 0.4488,-1.41402 -0.40411,-3.5078 -1.22279,-3.00182 -0.32882,0.20322 -0.30473,2.41395 0.0332,3.04535 0.36085,0.67425 0.96886,0.652 1.18961,-0.0435 z m 4.8865,-3.13411 c 0,-0.74342 -1.05477,-1.83803 -2.03673,-2.11366 -0.94771,-0.26602 -1.25126,-0.0524 -1.53561,1.0805 -0.1555,0.61957 -0.0757,0.72949 0.70634,0.97347 2.21814,0.69198 2.866,0.70547 2.866,0.0597 z m -4.66167,-0.79655 c 1.28928,-0.49018 1.17147,-2.97676 -0.27947,-5.89894 -0.34322,-0.69122 -0.71817,-1.25677 -0.83323,-1.25677 -0.11507,0 -0.41933,0.47625 -0.67615,1.05834 -0.25681,0.58208 -0.55462,1.05833 -0.6618,1.05833 -0.10718,0 -0.39846,0.14886 -0.64728,0.33081 -0.42451,0.3104 -0.41838,0.43157 0.0994,1.96482 0.52737,1.56164 1.52037,2.99604 2.07408,2.99604 0.143,0 0.559,-0.11369 0.92444,-0.25263 z m -3.38159,-5.50611 c 0.48416,-0.32328 0.89951,-1.30425 0.89951,-2.12445 0,-0.75088 -0.76329,-2.11971 -1.76113,-3.15827 -0.2683,-0.27926 -1.30095,-1.4227 -2.29477,-2.54098 -0.99382,-1.11829 -1.88805,-1.98312 -1.98718,-1.92186 -0.0991,0.0613 -0.53616,1.15622 -0.97118,2.43323 -0.56568,1.66056 -1.07353,2.62147 -1.78314,3.37389 -0.5457,0.57863 -0.99218,1.07343 -0.99218,1.09956 0,0.22984 4.53315,2.08641 6.08851,2.49357 2.26501,0.59293 2.40489,0.61017 2.80156,0.34531 z m -156.694334,-5.68449 c 0.363871,-1.35779 0.122768,-3.35471 -0.496344,-4.11095 -0.03424,-0.0418 -0.370426,0.0644 -0.747072,0.23597 -0.56862,0.25908 -0.807841,0.23141 -1.409929,-0.1631 l -0.725118,-0.47511 -1.005512,1.13307 c -1.036371,1.16784 -1.343005,2.38793 -0.600139,2.38793 0.222955,0 0.83669,-0.18022 1.363856,-0.40048 0.86387,-0.36095 1.022237,-0.35871 1.604335,0.0227 0.355218,0.23274 0.842811,0.76939 1.083539,1.19255 0.526977,0.92634 0.721749,0.9634 0.932384,0.17742 z m -0.701836,-5.02709 c 0.79964,-0.87097 2.017357,-3.43201 2.933974,-6.1706 1.393029,-4.16196 1.403201,-4.02477 -0.440281,-5.9382 -1.506052,-1.5632 -1.604809,-1.62127 -1.742907,-1.02493 -0.08052,0.34769 -0.312388,1.34654 -0.51527,2.21967 -0.202882,0.87312 -0.85781,3.24258 -1.455396,5.26546 -0.597587,2.02287 -1.086521,4.025 -1.086521,4.44916 0,1.73767 1.226602,2.37556 2.306401,1.19944 z m 83.683181,-17.93127 c 1.091406,-0.13541 3.175,-0.43897 4.630208,-0.67456 1.455208,-0.2356 2.943489,-0.46709 3.307292,-0.51443 2.739703,-0.3565 3.439583,-0.49044 3.439583,-0.65823 0,-0.29372 -2.184979,-0.52828 -4.920912,-0.52828 -1.356193,0 -3.333873,-0.11301 -4.394843,-0.25114 -1.06097,-0.13812 -3.179193,-0.37878 -4.707162,-0.53479 -3.106861,-0.31722 -5.542695,-0.67061 -8.428821,-1.22286 -1.070592,-0.20485 -2.095947,-0.37246 -2.278567,-0.37246 -0.214352,0 -0.394767,0.61229 -0.509026,1.72752 -0.09734,0.95014 -0.246801,2.07658 -0.332126,2.5032 l -0.155136,0.77569 2.478401,0.0843 c 3.56361,0.12129 9.561685,-0.0475 11.871109,-0.33401 z m -14.805675,-0.54004 c 0.09974,-0.37294 0.266613,-1.47437 0.370839,-2.44761 0.146728,-1.37012 0.110092,-1.79283 -0.162311,-1.87276 -0.898131,-0.26355 -3.354005,-0.71159 -4.18827,-0.7641 l -0.926041,-0.0583 -0.302171,1.71979 c -0.166194,0.94589 -0.315023,2.15189 -0.33073,2.68 l -0.02856,0.96021 2.315104,0.26051 c 2.976759,0.33496 3.037166,0.32609 3.252138,-0.47776 z m -6.254814,-0.71098 c 0.211305,-1.03726 0.683201,-4.11128 0.685574,-4.46595 0.0011,-0.16446 -0.80089,-0.42829 -1.783939,-0.58688 -2.877146,-0.46415 -6.699642,-1.27432 -8.268229,-1.75244 -1.942951,-0.59223 -4.105366,-1.23281 -7.14375,-2.1162 -1.382448,-0.40194 -3.149693,-0.95536 -3.927211,-1.22981 -0.777518,-0.27446 -1.5129728,-0.43764 -1.6343432,-0.36263 -0.1213704,0.075 -0.3588276,0.58121 -0.5276826,1.12489 -0.168855,0.54367 -0.5414887,1.5076 -0.828075,2.14205 -0.2865863,0.63446 -0.4845403,1.18619 -0.4398979,1.22608 0.1723922,0.15404 2.8531287,1.20452 5.6374177,2.2091 4.612466,1.66418 14.651393,4.21162 17.772207,4.5098 0.170338,0.0163 0.376407,-0.29783 0.457929,-0.69801 z m 44.604715,-2.31393 c 0.293611,-0.0932 1.456351,-0.27239 2.583868,-0.39823 1.796691,-0.20052 8.494593,-1.29773 12.765655,-2.09121 1.50893,-0.28032 5.519336,-1.01046 10.31875,-1.87863 3.99426,-0.72252 7.68299,-1.02906 10.69219,-0.88851 l 2.62239,0.12248 -0.91446,-1.13771 c -2.23341,-2.77865 -5.25839,-8.20815 -6.44095,-11.560817 -1.10306,-3.127277 -1.94781,-7.552768 -2.4205,-12.680489 -0.17771,-1.927784 -0.1818,-1.93606 -0.86642,-1.750827 -0.37833,0.102363 -1.14533,0.164843 -1.70445,0.138846 -0.55912,-0.026 -1.20705,0.10703 -1.43985,0.295618 -0.3184,0.25793 -0.37405,0.260942 -0.22458,0.01216 0.15597,-0.25961 -0.81456,-0.331196 -4.513276,-0.3329 -6.541758,-0.003 -8.95075,-0.286967 -14.733372,-1.736652 -6.434338,-1.613069 -16.855025,-6.052041 -24.730576,-10.534654 -0.923485,-0.52563 -1.735471,-0.95569 -1.804412,-0.95569 -0.06894,0 -0.623051,-0.338091 -1.231354,-0.751312 -0.608302,-0.413222 -2.058504,-1.326375 -3.222671,-2.02923 -1.164167,-0.702854 -3.754417,-2.271278 -5.756112,-3.485387 -5.188541,-3.147059 -13.646663,-6.942563 -15.509761,-6.959861 -0.756742,-0.007 -3.662775,-1.452811 -5.098784,-2.536704 -1.755682,-1.325179 -1.108143,-1.388739 -8.031176,0.788305 -2.619375,0.823699 -5.747989,1.981919 -6.9524749,2.573822 C 7.9462373,58.980915 7.4521365,59.12572 7.1395068,58.866261 6.5859201,58.406824 6.8188978,58.17999 8.9493802,57.104112 10.69583,56.222167 21.451609,52.519787 22.267296,52.519787 c 0.444086,0 0.442887,-0.117928 -0.01023,-1.005326 -0.624065,-1.222198 -1.031066,-4.333851 -0.909014,-6.949704 0.113902,-2.441153 0.148887,-2.555294 1.591802,-5.193277 0.811438,-1.483496 1.409189,-2.763418 1.328336,-2.844271 -0.08085,-0.08085 -0.406208,-0.147006 -0.723011,-0.147006 -1.853237,0 -13.117566,-4.950319 -17.7243412,-7.789292 C 5.2387565,28.232193 3.2625234,27.169345 1.4292107,26.229024 -4.3680994,23.255537 -10.667696,19.561979 -14.948951,16.626237 -18.65192,14.087038 -23.778135,9.2447647 -25.197557,6.9453031 -25.714066,6.1085583 -26.23542,5.4239489 -26.356121,5.4239489 c -0.327255,0 -6.025625,2.3098853 -7.245955,2.937213 -3.940047,2.0254351 -10.791648,6.3038381 -13.096875,8.1781921 -0.654844,0.532446 -2.440781,1.959643 -3.96875,3.171549 -4.999094,3.965024 -7.183593,6.720852 -9.075933,11.449634 -1.142559,2.855147 -1.22413,3.227509 -1.39985,6.390165 -0.208219,3.747591 0.0395,5.761746 1.157702,9.412832 1.056094,3.448312 2.006922,5.382597 4.487073,9.128125 3.45793,5.222174 7.111375,9.282576 10.816064,12.020865 2.286348,1.689935 4.083715,3.281155 3.997703,3.539191 -0.217169,0.651508 -0.819212,0.341744 -3.994502,-2.055261 -1.838333,-1.387745 -3.342424,-2.419069 -3.342424,-2.291831 0,0.245616 3.18488,4.876745 5.248619,7.63201 0.67852,0.905881 1.393887,1.650022 1.589704,1.653646 0.43603,0.0081 1.733744,-0.863369 2.878495,-1.932961 0.770368,-0.71979 0.921511,-0.766165 1.555545,-0.477279 0.386248,0.175986 0.765225,0.257019 0.842172,0.180073 0.07695,-0.07695 0.269919,-0.03283 0.428829,0.09803 0.158911,0.130865 0.943772,0.421309 1.744136,0.645431 0.800365,0.224122 2.526771,0.787367 3.836458,1.251655 2.980849,1.05672 5.777197,1.632032 5.927106,1.219423 0.05845,-0.160877 0.622824,-0.844739 1.254166,-1.519694 0.631341,-0.674955 1.059769,-1.315316 0.952061,-1.423024 -0.107708,-0.107708 -0.06876,-0.156145 0.08655,-0.107638 0.155312,0.04851 1.052674,-0.590649 1.994137,-1.420347 0.941463,-0.829697 2.540796,-2.131551 3.554072,-2.893008 1.013276,-0.761458 1.901852,-1.452168 1.974612,-1.534912 0.582415,-0.662329 7.7887328,-4.954685 8.9519575,-5.332124 0.5334548,-0.173094 1.8628865,-0.728208 2.9542928,-1.233587 2.75596464,-1.276157 4.246208,-1.917684 4.4537061,-1.917254 0.097076,2.02e-4 -0.3592791,0.476357 -1.0141228,1.058123 -1.19711416,1.063521 -2.811379,1.942373 -5.6151933,3.057071 -3.7810495,1.503212 -11.2428563,6.794884 -15.7073623,11.139152 -3.650616,3.552298 -5.091402,6.346076 -4.252278,8.245447 1.563081,3.538061 8.1511,9.328268 15.9175421,13.989924 3.2122094,1.928066 12.0048649,6.3596 14.5535176,7.33503 1.0178568,0.38956 2.5814338,0.99385 3.4746155,1.34288 1.6191848,0.63272 9.0840468,2.89222 13.8541578,4.19344 1.382448,0.37711 3.882761,0.93231 5.55625,1.23377 1.67349,0.30145 4.292865,0.77571 5.820833,1.0539 1.527969,0.27819 4.266406,0.75505 6.085417,1.0597 1.81901,0.30465 4.319323,0.72924 5.55625,0.94355 2.193471,0.38003 6.439554,0.81158 11.244791,1.14286 3.005464,0.2072 17.934221,0.12776 18.649435,-0.0992 z M 101.46771,88.24684 c 0,-0.140954 0.1786,-0.187747 0.39688,-0.103985 0.21828,0.08376 0.39687,0.199089 0.39687,0.25628 0,0.05719 -0.17859,0.103984 -0.39687,0.103984 -0.21828,0 -0.39688,-0.115326 -0.39688,-0.256279 z m 1.05834,-0.272888 c 0,-0.14552 0.12609,-0.264583 0.28019,-0.264583 0.15411,0 0.20662,0.119063 0.11668,0.264583 -0.0899,0.145521 -0.21602,0.264584 -0.2802,0.264584 -0.0642,0 -0.11667,-0.119063 -0.11667,-0.264584 z m -3.439587,-0.53747 c 0,-0.140954 0.178594,-0.25628 0.396875,-0.25628 0.218281,0 0.396875,0.04679 0.396875,0.103985 0,0.05719 -0.178594,0.172517 -0.396875,0.256279 -0.218281,0.08376 -0.396875,0.03697 -0.396875,-0.103984 z m -2.65086,-0.394628 c -0.279607,-0.336907 -0.263238,-0.375623 0.0999,-0.236276 0.238864,0.09166 0.434299,0.27298 0.434299,0.402932 0,0.340243 -0.153161,0.292461 -0.534194,-0.166656 z m 3.973777,0.163272 c 0,-0.148989 0.22562,-0.391639 0.50138,-0.539221 0.37344,-0.199857 0.58562,-0.166841 0.83146,0.129376 0.18154,0.21874 0.25357,0.474207 0.16007,0.567704 -0.0935,0.0935 -0.16999,0.04162 -0.16999,-0.115274 0,-0.312634 -0.4736,-0.30228 -0.99219,0.02169 -0.18377,0.114801 -0.33073,0.08624 -0.33073,-0.06428 z m -0.661459,-0.55409 c -0.08994,-0.145521 -0.03743,-0.264584 0.116677,-0.264584 0.154112,0 0.280202,0.119063 0.280202,0.264584 0,0.145521 -0.0525,0.264583 -0.11668,0.264583 -0.06417,0 -0.190262,-0.119062 -0.280199,-0.264583 z m 1.984379,-0.529167 c 0,-0.145521 0.12609,-0.264583 0.28019,-0.264583 0.15411,0 0.20662,0.119062 0.11668,0.264583 -0.0899,0.145521 -0.21602,0.264583 -0.2802,0.264583 -0.0642,0 -0.11667,-0.119062 -0.11667,-0.264583 z m -4.365628,-0.705468 c -0.465034,-0.372662 -0.470428,-0.403708 -0.04451,-0.256169 0.266564,0.09234 0.593985,0.167887 0.727604,0.167887 0.13362,0 0.242944,0.119063 0.242944,0.264583 0,0.37472 -0.312735,0.315181 -0.926041,-0.176301 z m -3.175,-0.352865 c 0.08994,-0.145521 0.216026,-0.264584 0.280198,-0.264584 0.06417,0 0.116677,0.119063 0.116677,0.264584 0,0.145521 -0.12609,0.264583 -0.280199,0.264583 -0.154109,0 -0.206613,-0.119062 -0.116676,-0.264583 z m 2.778125,-0.809365 c 0,-0.154109 0.119062,-0.206614 0.264583,-0.116677 0.145521,0.08994 0.264583,0.216026 0.264583,0.280198 0,0.06417 -0.119062,0.116677 -0.264583,0.116677 -0.145521,0 -0.264583,-0.126089 -0.264583,-0.280198 z m 1.852083,0.01561 c 0,-0.145521 0.119062,-0.264584 0.264583,-0.264584 0.145521,0 0.264583,0.119063 0.264583,0.264584 0,0.14552 -0.119062,0.264583 -0.264583,0.264583 -0.145521,0 -0.264583,-0.119063 -0.264583,-0.264583 z m -123.416824,-8.44838 c -0.17594,-0.284678 0.341916,-0.679303 0.579568,-0.441652 0.08733,0.08733 0.01285,0.158786 -0.16551,0.158786 -0.178362,0 -0.25071,0.119063 -0.160774,0.264584 0.08994,0.14552 0.103991,0.264583 0.03123,0.264583 -0.07276,0 -0.200792,-0.110836 -0.284514,-0.246301 z M -28.159,74.943223 c -0.275162,-0.717151 -0.135051,-0.884255 0.928972,-1.107942 0.632942,-0.133062 0.815799,-0.08 0.815799,0.236709 0,0.224516 -0.218281,0.408212 -0.48507,0.408212 -0.266788,0 -0.470969,0.0893 -0.453737,0.198437 0.153118,0.969745 -0.45838,1.170489 -0.805964,0.264584 z m -1.29132,-0.480135 c -0.375745,-0.601663 -0.174807,-0.673943 0.367089,-0.132047 0.209003,0.209003 0.28386,0.439427 0.166349,0.512052 -0.117511,0.07263 -0.357558,-0.09838 -0.533438,-0.380005 z m -1.902798,-0.107551 c 0,-0.268433 0.772619,-0.652745 0.899511,-0.44743 0.08408,0.136043 -0.08391,0.309271 -0.37332,0.384952 -0.289405,0.07568 -0.526191,0.103796 -0.526191,0.06248 z m 8.621038,-0.310079 c -0.221504,-0.57723 0.0726,-0.84553 0.38513,-0.351344 0.31288,0.494735 0.319541,0.786088 0.01797,0.786088 -0.129952,0 -0.311348,-0.195635 -0.403103,-0.434744 z m -16.513569,-0.933142 c 0.05821,-0.410993 0.263712,-0.616489 0.61649,-0.616489 0.787965,0 0.709242,1.032826 -0.08732,1.145656 -0.512978,0.07266 -0.601828,-0.01619 -0.529167,-0.529167 z m 4.873722,-0.140672 c 0.09434,-0.4717 0.04164,-0.882718 -0.126505,-0.986637 -0.175466,-0.108444 -0.230587,-0.02797 -0.140909,0.205732 0.08101,0.21112 0.01216,0.467377 -0.153018,0.56946 -0.190258,0.117586 -0.269591,0.0084 -0.216475,-0.298029 0.08189,-0.472396 -0.01928,-0.52676 -1.106784,-0.594729 -0.291041,-0.01819 -0.529166,-0.138249 -0.529166,-0.266797 0,-0.128549 0.238125,-0.295996 0.529166,-0.372105 0.339694,-0.08883 0.529167,-0.0081 0.529167,0.225421 0,0.20579 0.163396,0.3011 0.3762,0.219439 0.20691,-0.0794 0.623629,-0.01194 0.926042,0.149905 0.445747,0.238556 0.549841,0.217368 0.549841,-0.111918 0,-0.223401 -0.178594,-0.406184 -0.396875,-0.406184 -0.218281,0 -0.396875,-0.127344 -0.396875,-0.282986 0,-0.155642 0.267891,-0.244938 0.595313,-0.198437 0.327422,0.0465 0.595312,0.25322 0.595312,0.459374 0,0.206155 0.166883,0.430454 0.370851,0.498444 0.26715,0.08905 0.329566,-0.03426 0.223208,-0.440973 -0.0812,-0.310524 -0.03973,-0.564589 0.09217,-0.564589 0.131897,0 0.239813,-0.304683 0.239813,-0.677073 0,-0.412165 0.110407,-0.608838 0.282186,-0.502673 0.155203,0.09592 0.215767,0.240821 0.134587,0.322 -0.08118,0.08118 -0.01616,0.305974 0.144487,0.499542 0.220237,0.265369 0.18713,0.392218 -0.134587,0.515672 -0.524623,0.201317 -0.562687,0.636282 -0.05568,0.636282 0.204046,0 0.501702,0.374954 0.661458,0.833232 0.374856,1.075313 0.395416,1.018851 -0.370992,1.018851 -0.778359,0 -0.836786,-0.204163 -0.198437,-0.693407 0.404798,-0.310247 0.413115,-0.388263 0.06614,-0.62043 -0.512564,-0.34297 -0.870853,-0.347888 -0.661458,-0.0091 0.08994,0.145521 0.02469,0.264583 -0.144984,0.264583 -0.170114,0 -0.237822,0.184198 -0.150937,0.410617 0.09589,0.249892 0.04813,0.34298 -0.122022,0.237821 -0.153775,-0.09504 -0.211861,-0.349296 -0.129081,-0.565018 0.235393,-0.613425 -0.469131,-0.257768 -0.802627,0.40518 -0.472454,0.939182 -0.651406,0.983873 -0.478533,0.119509 z m 3.749505,0.194806 c -0.244881,-0.286001 -0.348283,-0.579924 -0.229782,-0.653162 0.118501,-0.07324 0.349377,0.160763 0.513058,0.520002 0.359552,0.789131 0.301678,0.816336 -0.283276,0.13316 z m 1.269714,0.05097 c -0.281446,-0.281447 -0.14715,-0.5893 0.257074,-0.5893 0.511057,0 0.966971,-1.116896 0.56114,-1.374676 -0.159367,-0.101228 -0.233674,-0.239384 -0.165128,-0.307013 0.06855,-0.06763 0.468095,0.151523 0.887888,0.487004 0.651549,0.520691 0.732396,0.720521 0.552387,1.365346 l -0.210871,0.755381 -0.161316,-0.79375 -0.161316,-0.79375 -0.705765,0.699542 c -0.388171,0.384749 -0.772513,0.632796 -0.854093,0.551216 z m 7.789173,-0.192425 c 0,-0.218281 0.115326,-0.396875 0.25628,-0.396875 0.140953,0 0.187746,0.178594 0.103984,0.396875 -0.08376,0.218282 -0.199088,0.396875 -0.25628,0.396875 -0.05719,0 -0.103984,-0.178593 -0.103984,-0.396875 z m -4.680449,-0.511037 c -0.366325,-0.417282 -0.186288,-0.679588 0.466443,-0.679588 0.330037,0 0.421138,0.149752 0.321919,0.529167 -0.160509,0.61379 -0.349862,0.649918 -0.788362,0.150421 z m 3.113837,-0.04018 c 0.0127,-0.308224 0.07539,-0.370919 0.159853,-0.159852 0.07643,0.190996 0.06703,0.419199 -0.02089,0.507118 -0.08792,0.08792 -0.150453,-0.06835 -0.138965,-0.347266 z m -14.215328,-0.04676 c 0.09615,-0.155576 0.02525,-0.343167 -0.157557,-0.416868 -0.237898,-0.09591 -0.242805,-0.139939 -0.01726,-0.154889 0.455316,-0.03018 0.674035,0.438045 0.309779,0.663168 -0.184638,0.114113 -0.239157,0.07719 -0.134959,-0.09141 z m 13.40069,-0.328062 c -0.238466,-0.154109 -0.2711,-0.258098 -0.08176,-0.260532 0.173312,-0.0022 0.388698,0.115011 0.478635,0.260532 0.203016,0.328487 0.111423,0.328487 -0.396875,0 z m -5.820833,-0.264584 c -0.309265,-0.199862 -0.236256,-0.257374 0.330729,-0.260531 0.400183,-0.0022 0.727604,0.115011 0.727604,0.260531 0,0.334542 -0.540667,0.334542 -1.058333,0 z m -5.363324,-0.689019 c -0.292537,-0.292536 -0.230758,-0.953092 0.07166,-0.766189 0.14552,0.08994 0.264583,0.03041 0.264583,-0.132292 0,-0.162697 0.131774,-0.214372 0.292831,-0.114833 0.178869,0.110547 0.194309,0.245334 0.03967,0.346344 -0.139238,0.09095 -0.303258,0.321634 -0.364489,0.51263 -0.06123,0.190996 -0.198148,0.260449 -0.304255,0.15434 z m 4.836164,-0.234604 c -0.188098,-0.226645 -0.265499,-0.488579 -0.172002,-0.582076 0.0935,-0.0935 0.169995,-0.02587 0.169995,0.150284 0,0.176153 0.148829,0.286102 0.33073,0.24433 0.383075,-0.08797 0.624098,0.395934 0.257991,0.51797 -0.134594,0.04487 -0.398616,-0.103864 -0.586714,-0.330508 z m -7.881833,-0.669848 c -0.30998,-0.496357 -0.295419,-0.510919 0.200939,-0.200938 0.533175,0.332973 0.716195,0.736076 0.334199,0.736076 -0.110516,0 -0.351328,-0.240812 -0.535138,-0.535138 z m 1.397535,0.270555 c -0.08994,-0.145521 -0.03743,-0.264584 0.116677,-0.264584 0.154109,0 0.280198,0.119063 0.280198,0.264584 0,0.145521 -0.05251,0.264583 -0.116677,0.264583 -0.06417,0 -0.190261,-0.119062 -0.280198,-0.264583 z M 3.6706868,60.068553 c -0.090298,-0.235312 -0.09891,-0.493108 -0.019139,-0.572879 0.2546494,-0.25465 1.276463,0.2005 1.169744,0.521042 -0.1622252,0.487261 -0.9695598,0.523633 -1.150605,0.05184 z m 4.0162568,50.897037 c 0.4496328,-0.86949 1.1689281,-3.06946 1.1737406,-3.58988 0.00158,-0.17034 -0.3673879,-0.39103 -0.8199179,-0.49042 -0.4525299,-0.0994 -1.4631958,-0.46394 -2.2459241,-0.8101 l -1.4231424,-0.62938 -0.3659587,0.59063 c -0.2012772,0.32485 -0.7815024,1.3892 -1.2893891,2.36521 l -0.9234305,1.77457 2.1462508,0.79112 c 2.7852388,1.02665 3.2160713,1.02645 3.7477713,-0.002 z m -6.0574659,-1.6286 c 1.4208247,-2.7496 1.9458206,-4.00295 1.7561659,-4.19261 -0.1225094,-0.12251 -2.83939518,-1.54038 -6.037524,-3.15083 -5.481253,-2.760138 -8.0808816,-4.260544 -11.6857586,-6.744574 l -1.537354,-1.059353 -2.024552,2.040623 -2.024552,2.040622 1.230802,0.758623 c 0.676941,0.417243 2.421427,1.450929 3.876635,2.297089 1.455208,0.84615 3.630332,2.12762 4.8336074,2.84771 1.8880405,1.12988 10.79931631,5.71103 11.1736842,5.74422 0.07276,0.006 0.2702411,-0.25523 0.4388461,-0.58152 z M -19.732719,97.113076 c 1.4697,-0.760012 3.845234,-3.847457 2.9603,-3.847457 -0.129782,0 -0.848716,-0.550913 -1.597631,-1.224252 l -1.361663,-1.224253 -1.775807,1.707764 c -0.976693,0.93927 -2.007519,1.835407 -2.290723,1.991417 -0.48625,0.267861 -0.465328,0.32564 0.375814,1.037843 1.198122,1.014461 2.472987,1.915961 2.731929,1.93184 0.116367,0.0071 0.547369,-0.16067 0.957781,-0.372902 z m -4.268903,-3.232248 c 0.984886,-0.607587 3.496421,-3.045726 3.496421,-3.394242 0,-0.155962 -0.60639,-0.874404 -1.347532,-1.596538 -1.39599,-1.360186 -3.216156,-3.82765 -3.507711,-4.755142 -0.09193,-0.292465 -0.193972,-1.193433 -0.226748,-2.002152 -0.04776,-1.1785 0.05756,-1.619328 0.530529,-2.220617 0.324567,-0.41262 0.558689,-0.778626 0.520271,-0.813347 -0.03842,-0.03472 -1.439163,-0.42694 -3.112766,-0.871599 -1.673603,-0.444659 -3.488179,-0.994515 -4.032391,-1.221901 l -0.989477,-0.41343 -1.590004,1.590004 c -0.874503,0.874503 -1.747844,1.590005 -1.940759,1.590005 -0.192915,0 -0.62687,0.293912 -0.964346,0.653138 l -0.613591,0.653138 0.8982,1.014807 c 0.49401,0.558144 1.37445,1.594911 1.956533,2.303927 2.619247,3.190416 9.381682,9.900853 9.99733,9.920458 0.11426,0.0036 0.530979,-0.19279 0.926041,-0.436509 z M -36.95786,79.58986 c 1.211573,-0.884156 3.223492,-2.773787 3.223492,-3.027561 0,-0.103937 -0.446484,-0.331712 -0.992187,-0.506166 -0.545703,-0.174455 -1.381864,-0.55227 -1.858136,-0.839589 l -0.865948,-0.522398 -1.028872,0.929524 c -0.56588,0.511239 -1.277531,1.062603 -1.581448,1.225254 -0.303916,0.162651 -0.552575,0.418272 -0.552575,0.568045 0,0.342098 2.17249,2.883761 2.465049,2.883937 0.11885,7.1e-5 0.654631,-0.319899 1.190625,-0.711046 z m -6.318479,-66.587349 c 1.391782,-0.925021 3.185357,-2.042895 3.985721,-2.484166 0.800365,-0.441271 2.526771,-1.4105702 3.836459,-2.1539989 1.309687,-0.7434288 2.530078,-1.3519606 2.711979,-1.3522929 0.616561,-0.00113 0.334386,-0.3939456 -1.391924,-1.9377112 -0.986106,-0.8818321 -1.914286,-1.5032701 -2.171344,-1.4537652 -0.246942,0.047557 -1.085443,0.8597235 -1.863335,1.8048152 -0.777892,0.9450918 -2.048317,2.4922549 -2.823165,3.4381404 -0.774849,0.9458854 -2.108018,2.4440966 -2.962597,3.3293576 -2.976732,3.083605 -2.89322,3.183299 0.678206,0.809621 z m 13.84145,-7.3768495 c 0.691224,-0.2923028 1.256771,-0.6489237 1.256771,-0.7924909 0,-0.4119141 -3.014307,-3.208105 -4.072929,-3.7782106 l -0.9574,-0.51559411 -1.226674,1.22667371 -1.226674,1.2266736 0.897568,0.7840491 c 0.493662,0.431227 1.314286,1.1270831 1.823609,1.546347 0.509323,0.4192639 0.967199,0.8560027 1.017501,0.9705308 0.10624,0.2418831 0.737155,0.07251 2.488228,-0.6679786 z m 2.879251,-3.0019239 c 0.092,-1.0274162 0.368101,-2.25639151 0.613559,-2.7310562 1.072676,-2.0743263 5.900402,-6.4136457 9.520258,-8.5571224 1.010232,-0.5982033 1.183631,-0.8090437 0.979187,-1.1906251 -0.40276,-0.7517289 -2.438897,-2.9772359 -2.7239,-2.9772359 -0.714827,0 -6.951571,5.2437343 -11.294742,9.4964016 l -3.267533,3.19944389 1.41545,1.11508785 c 0.778497,0.61329836 1.951231,1.68497086 2.606074,2.38149466 1.60723,1.7095278 1.942916,1.594641 2.151647,-0.7363884 z m 14.076892,-13.7199426 c 1.486606,-0.950971 1.498484,-0.968665 1.127281,-1.679326 -0.206336,-0.395026 -0.745148,-1.226188 -1.197359,-1.847027 l -0.822203,-1.128798 -0.855108,0.431053 c -1.494605,0.753419 -3.103104,1.818567 -3.103593,2.055199 -9.26e-4,0.447216 2.726891,3.3685475 3.035005,3.250313 0.172447,-0.06617 0.989637,-0.552811 1.815977,-1.081414 z m 10.2297943,-4.910005 c 1.0914062,-0.482075 4.6283546,-1.762017 7.8598854,-2.844316 l 5.8755103,-1.967817 -0.159318,-0.835625 c -0.242104,-1.269832 -1.3605119,-3.347111 -1.7361824,-3.224704 -0.1817863,0.05923 -1.640208,0.52855 -3.2409371,1.042927 -3.8658357,1.242245 -8.2179653,2.805409 -10.9802082,3.943786 -4.4164426,1.820106 -5.6967203,2.376577 -6.2838283,2.731256 -0.327436,0.197808 -0.882429,0.534067 -1.233318,0.747242 l -0.63798,0.387591 1.187281,1.825809 1.187281,1.82581 3.0887197,-1.37773 c 1.6987958,-0.757752 3.9816883,-1.772155 5.0730946,-2.254229 z m 16.7288507,-5.734693 c 2.340727,-0.502997 2.363651,-0.544618 1.640744,-2.978911 -0.39943,-1.345026 -0.446483,-1.39409 -1.193651,-1.244657 -0.427806,0.08556 -1.558487,0.299408 -2.512625,0.475215 -1.37304,0.252993 -1.7072,0.405973 -1.60246,0.733614 0.325086,1.01691 1.371014,3.448067 1.485179,3.452154 0.06944,0.0025 1.051702,-0.194351 2.182813,-0.437415 z m 8.671149,-1.405182 c 2.546614,-0.293667 5.344583,-0.625639 6.217708,-0.737714 l 1.5875,-0.203773 -0.02635,-1.661531 c -0.01449,-0.913842 -0.136712,-1.77189 -0.271595,-1.906773 -0.150602,-0.150601 -1.059378,-0.142719 -2.354897,0.02042 -1.16031,0.146116 -3.478874,0.42966 -5.152363,0.630096 -1.67349,0.200436 -3.489193,0.435276 -4.034896,0.521867 -0.545703,0.08659 -1.399002,0.220505 -1.89622,0.297588 l -0.904033,0.140152 0.4176,1.513494 c 0.494394,1.791814 0.78728,2.233508 1.361674,2.053505 0.234117,-0.07337 2.50926,-0.373668 5.055875,-0.667335 z m 13.306223,-1.271645 c 0.409175,-0.106766 0.463403,-0.38116 0.396875,-2.00818 l -0.07706,-1.884518 -1.45717,0.02648 c -0.801444,0.01456 -2.025751,0.111743 -2.720682,0.215954 l -1.263512,0.189475 0.153404,0.974671 c 0.08437,0.536069 0.214167,1.369199 0.288433,1.8514 l 0.13503,0.87673 2.035374,-0.05917 c 1.119455,-0.03255 2.248643,-0.114823 2.509305,-0.182837 z M 17.232189,-55.364075 c 0.09715,-0.400182 0.534947,-1.185203 0.972878,-1.744491 0.437931,-0.559288 0.688134,-1.09507 0.556006,-1.190625 -0.621022,-0.449126 -7.504357,-4.980269 -8.068108,-5.311052 -1.4958049,-0.877669 -10.84753347,-5.43563 -12.5450417,-6.114357 -1.0186458,-0.407293 -2.5664583,-1.045789 -3.4395833,-1.41888 -0.873125,-0.373091 -1.8439856,-0.681174 -2.1574681,-0.684628 -0.3134825,-0.0035 -1.4445762,-0.303106 -2.5135416,-0.665893 -1.0689653,-0.362788 -2.4495893,-0.660444 -3.0680523,-0.661459 -1.062856,-0.0017 -1.12448,0.03988 -1.12448,0.759594 0,2.031961 1.320367,3.494177 5.6885421,6.299673 2.9389978,1.887595 11.0524994,6.078139 13.4937497,6.969388 0.7276042,0.265634 1.9182291,0.718623 2.6458333,1.006644 0.7276042,0.28802 2.2450021,0.888851 3.3719949,1.335179 1.126994,0.446329 2.331936,0.996841 2.677651,1.223362 0.509225,0.333658 1.750331,0.687918 3.139584,0.89616 0.106368,0.01594 0.272884,-0.298432 0.370036,-0.698615 z m 88.659401,-16.624152 c 0.9665,-0.62059 2.45529,-2.217207 2.45529,-2.633105 0,-0.505209 -0.98734,-0.501266 -2.20815,0.0088 -1.40046,0.585152 -2.10059,0.491001 -2.95123,-0.396875 -0.77179,-0.805585 -2.28655,-1.110499 -2.64394,-0.532216 -0.22705,0.367366 0.69689,2.346721 1.58709,3.400031 0.70372,0.83266 0.81639,0.873297 1.96008,0.706986 0.66739,-0.09705 1.47778,-0.346187 1.80086,-0.55364 z M -14.435381,-73.79997 c 0.245031,-0.295245 0.200176,-0.7735 -0.204722,-2.182813 -0.285176,-0.992602 -0.785625,-2.935824 -1.112109,-4.318272 -0.829822,-3.513757 -0.804472,-3.477893 -2.173579,-3.075027 l -1.124202,0.330803 0.04034,1.305966 c 0.03196,1.034588 0.328625,1.828278 1.427653,3.819508 0.763021,1.382448 1.630159,2.960026 1.926973,3.50573 0.594187,1.092434 0.755327,1.17357 1.219643,0.614105 z m -3.027112,-10.31835 c 0.623934,-0.139 0.949414,-0.483596 1.521354,-1.610708 0.400182,-0.788632 0.727604,-1.620104 0.727604,-1.847714 0,-0.866488 -0.781337,-0.697143 -1.819692,0.394394 -1.049729,1.103495 -1.050064,1.103617 -2.525504,0.919273 -0.811601,-0.101403 -1.475637,-0.08324 -1.475637,0.04036 0,0.123602 0.322998,0.841648 0.717773,1.595659 0.694612,1.326691 0.739435,1.359871 1.389063,1.028247 0.369209,-0.188475 1.028476,-0.422256 1.465039,-0.519511 z m 135.929683,212.2428 c 0.0606,-0.18191 0.269,-0.33073 0.46302,-0.33073 0.19403,0 0.40239,0.14882 0.46302,0.33073 0.0656,0.19674 -0.122,0.33072 -0.46302,0.33072 -0.34102,0 -0.5286,-0.13398 -0.46302,-0.33072 z M -16.900266,128.0032 c -0.08303,-0.083 -0.08765,-0.25343 -0.01025,-0.37865 0.185749,-0.30055 0.903233,-0.29372 0.903233,0.009 0,0.29203 -0.686507,0.57652 -0.892981,0.37005 z m 22.9856891,-1.66466 c 0.089937,-0.14552 0.2755573,-0.26459 0.4124899,-0.26459 0.1369327,0 0.2489685,0.11907 0.2489685,0.26459 0,0.14552 -0.1856205,0.26458 -0.41249,0.26458 -0.2268694,0 -0.3389052,-0.11906 -0.2489684,-0.26458 z M 26.590631,122.2658 c 0,-0.25099 0.791998,-0.37748 0.933183,-0.14904 0.08601,0.13916 -0.08877,0.25303 -0.388401,0.25303 -0.29963,0 -0.544782,-0.0468 -0.544782,-0.10399 z m 1.343805,-0.8441 c 0.0127,-0.30823 0.07539,-0.37092 0.159852,-0.15986 0.07643,0.191 0.06703,0.4192 -0.02089,0.50712 -0.08792,0.0879 -0.150453,-0.0684 -0.138964,-0.34726 z m -8.58716,-0.25277 c -0.255317,-0.66534 -0.179999,-0.83702 0.131904,-0.30065 0.154434,0.26557 0.225054,0.5386 0.156932,0.60672 -0.06812,0.0681 -0.198098,-0.0696 -0.288836,-0.30607 z m 1.178827,-0.80557 c 0.0127,-0.30822 0.07539,-0.37092 0.159852,-0.15985 0.07643,0.191 0.06703,0.4192 -0.02089,0.50712 -0.08792,0.0879 -0.150453,-0.0683 -0.138964,-0.34727 z m 244.553927,-2.06559 c -0.85527,-0.7844 -2.18382,-1.89833 -2.95234,-2.47539 -0.76853,-0.57707 -2.42523,-1.98911 -3.68155,-3.13788 -1.25633,-1.14877 -2.59909,-2.3268 -2.9839,-2.61784 -1.42621,-1.07867 -2.95045,-2.64251 -3.64382,-3.73849 -0.39262,-0.62061 -0.9741,-1.1937 -1.29218,-1.27353 -0.31807,-0.0798 -1.57159,-0.92099 -2.78561,-1.86924 -3.70384,-2.89303 -4.64671,-3.587702 -7.36667,-5.427518 -1.30941,-0.885706 -4.13409,-3.547856 -4.51027,-4.25077 -0.13105,-0.244864 -0.55666,-0.525116 -0.94579,-0.622783 -1.10414,-0.277122 -10.1846,-6.770075 -13.14357,-9.398268 -0.98922,-0.878639 -1.99175,-1.597525 -2.22785,-1.597525 -0.61276,0 -3.87529,-1.514665 -5.89544,-2.737018 -0.94588,-0.572339 -3.38666,-1.991343 -5.42395,-3.153342 -2.0373,-1.161999 -3.94997,-2.336094 -4.25039,-2.6091 -0.30042,-0.273006 -0.63835,-0.496374 -0.75095,-0.496374 -0.11261,0 -0.93837,-0.342248 -1.83504,-0.76055 -3.38077,-1.577168 -9.06023,-4.301915 -9.60676,-4.608885 -1.08512,-0.609492 -3.65356,-2.675743 -4.59954,-3.700229 l -0.95135,-1.030304 -3.29049,1.583364 c -1.80976,0.870849 -4.06439,1.828718 -5.01027,2.128597 -0.94589,0.299879 -2.73183,0.905765 -3.96875,1.346414 -1.23693,0.440649 -2.54789,0.802773 -2.91324,0.80472 -0.4875,0.0026 -0.97942,0.398468 -1.84844,1.487517 -0.65128,0.816188 -1.40186,1.636474 -1.66796,1.822857 -0.44114,0.308988 -0.35979,0.408002 0.92239,1.122546 0.77341,0.431018 2.21683,1.119829 3.20759,1.530693 1.80032,0.746583 2.83756,1.712843 1.83867,1.712843 -0.26378,0 -0.71446,-0.161326 -1.0015,-0.358503 -0.28704,-0.197177 -1.20683,-0.612348 -2.04397,-0.922601 -0.83715,-0.310254 -2.23274,-0.922833 -3.10131,-1.361288 -1.74534,-0.881043 -2.38807,-0.992168 -2.38807,-0.412886 0,0.48203 -1.87965,4.070654 -2.93732,5.607927 l -0.79414,1.154239 0.60896,0.228202 c 0.33493,0.125511 1.74005,0.609779 3.1225,1.076152 1.38245,0.466373 2.75167,1.000554 3.04271,1.187069 0.69483,0.445286 5.06404,2.312787 7.40833,3.166493 6.31886,2.301099 9.40973,1.830328 8.23189,-1.253801 -0.36319,-0.951 -0.95355,-1.569705 -3.21392,-3.368262 -1.52296,-1.211797 -2.76901,-2.238868 -2.76901,-2.282379 0,-0.29986 0.88111,0.01687 1.25202,0.450055 0.2492,0.291042 0.64325,0.529167 0.87566,0.529167 0.23242,0 1.05777,0.473909 1.8341,1.053131 0.91594,0.683387 1.60619,1.012299 1.96601,0.936832 0.30498,-0.06396 1.38794,-0.291632 2.40659,-0.505928 4.52157,-0.951219 6.43876,-1.230165 7.67291,-1.116386 2.12272,0.195699 4.11944,0.83044 5.39237,1.714189 0.54361,0.37741 1.04733,0.456786 2.33609,0.368122 1.58768,-0.109229 1.64885,-0.08989 1.81548,0.57402 0.2176,0.86697 -0.18252,1.358852 -1.42916,1.756948 -1.40048,0.44722 -1.49106,0.611126 -1.00667,1.821734 0.49363,1.233691 0.56479,2.544779 0.15197,2.799916 -0.59346,0.366774 -1.86731,-0.473982 -2.27969,-1.504618 -0.2242,-0.560336 -0.484,-1.026997 -0.57734,-1.037023 -1.28536,-0.13807 -1.86187,-0.343238 -2.97922,-1.060242 l -1.31867,-0.846188 -1.3755,0.669888 c -3.14381,1.531089 -7.11453,2.373176 -11.29736,2.39588 -1.98328,0.01076 -2.63968,-0.122933 -5.55625,-1.131699 -1.81902,-0.629147 -4.67652,-1.739255 -6.35,-2.466906 -1.67349,-0.727651 -4.11428,-1.710969 -5.42396,-2.185151 -1.30969,-0.474182 -2.56429,-0.936281 -2.78801,-1.026885 -0.46475,-0.188221 -2.16299,1.662187 -4.48803,4.890158 -2.7496,3.817404 -3.0436,4.192887 -3.39732,4.33889 -0.78119,0.322447 -0.79667,-0.211032 -0.0366,-1.260879 1.03365,-1.427708 4.14832,-5.59342 6.34431,-8.485208 2.08783,-2.749353 4.23334,-6.704455 4.23334,-7.803898 0,-0.441484 -0.29245,-1.233639 -0.64988,-1.760346 -1.80899,-2.665691 -3.58346,-10.013952 -3.58346,-14.839464 0,-0.897758 -0.19469,-2.567756 -0.43266,-3.711108 -0.34214,-1.643925 -0.39874,-2.9091 -0.27054,-6.047572 0.0892,-2.182813 0.29429,-4.742657 0.45582,-5.688542 0.17972,-1.052344 0.22427,-2.830649 0.11478,-4.5821 l -0.17892,-2.862308 1.18931,-3.487692 c 2.33928,-6.859969 2.6437,-8.039794 2.60464,-10.094674 -0.084,-4.417554 -1.67551,-7.341352 -6.91726,-12.7076027 -3.58138,-3.6664417 -5.82558,-6.367723 -5.82558,-7.01207111 0,-0.58087392 0.81284,-0.21027964 1.51007,0.68847869 0.40639,0.52384732 0.93187,1.20245922 1.16774,1.50802642 0.41566,0.5384951 0.45075,0.5412264 1.14119,0.088835 0.39178,-0.2567079 0.92738,-0.9650855 1.19021,-1.57417232 0.26284,-0.60908687 1.62755,-2.52011798 3.03269,-4.24673588 1.40515,-1.7266179 2.8745,-3.6911492 3.26522,-4.3656252 0.39072,-0.674476 1.0156,-1.653462 1.38862,-2.1755239 0.93211,-1.30454 6.86584,-7.575365 7.66415,-8.099544 0.52231,-0.342962 1.60295,-0.443686 5.55625,-0.517891 2.6993,-0.05067 5.4091,-0.138687 6.02178,-0.195601 2.6306,-0.244365 5.10374,-2.973848 5.10374,-5.632742 0,-0.63716 0.17252,-1.571368 0.38338,-2.076017 0.32408,-0.775644 0.51415,-0.917543 1.229,-0.917543 h 0.84562 l -0.1526,1.820165 -0.15259,1.820166 1.63557,-0.114195 c 0.89957,-0.06281 1.80476,9.26e-4 2.01153,0.141629 0.68906,0.46888 -0.32078,1.506028 -2.14438,2.202374 -1.45543,0.555757 -1.69419,0.746933 -1.93473,1.549117 -0.62594,2.087432 -2.42661,4.509863 -3.94954,5.313271 -0.87548,0.461852 -3.51489,1.163598 -5.44417,1.447455 -1.99041,0.29285 -0.89783,-0.384914 2.01791,-1.251773 1.42669,-0.424162 2.8707,-0.952514 3.20891,-1.174115 0.66949,-0.438667 1.58802,-2.117027 1.31049,-2.394558 -0.0947,-0.09466 -1.99998,-0.02966 -4.23405,0.144455 -2.23407,0.17411 -4.73729,0.289241 -5.56272,0.255847 -1.67437,-0.06774 -2.00536,0.08595 -1.49904,0.696023 0.25827,0.311208 0.26853,0.489934 0.0412,0.717297 -0.22736,0.227362 -0.37511,0.09541 -0.59298,-0.52957 -0.66329,-1.902715 -2.41426,-1.454426 -5.46647,1.399544 -2.31249,2.162296 -2.79585,2.736775 -6.11804,7.2714516 -0.90619,1.2369272 -2.10814,2.844271 -2.67099,3.5718752 -1.27323,1.6459224 -5.56961,8.0502293 -5.56961,8.302223 0,0.248586 5.28064,5.4254984 5.40042,5.2943367 0.0886,-0.097068 2.56273,-3.9171118 4.60763,-7.1142678 0.51191,-0.80036457 2.50565,-3.8364585 4.43054,-6.7468752 3.47179,-5.2493125 4.91707,-7.7841445 5.24846,-9.2050915 0.28289,-1.213008 0.76119,-0.535495 0.62471,0.8849 -0.10283,1.070146 -0.0456,1.288301 0.36652,1.39606 0.83151,0.217444 0.53936,0.869486 -0.55078,1.229264 -0.77809,0.256793 -1.26547,0.682886 -1.93993,1.6959944 -1.96993,2.9590477 -5.79413,8.91877208 -7.51059,11.7046841 -0.99739,1.6188209 -2.43852,3.8754963 -3.2025,5.0148342 -0.76399,1.1393379 -1.38906,2.2504569 -1.38906,2.4691533 0,0.218697 0.47738,1.078183 1.06084,1.909971 0.58347,0.831787 1.13675,1.891864 1.22953,2.355726 0.11804,0.590235 0.39306,0.937736 0.91624,1.157716 0.41117,0.172881 1.52207,0.998526 2.46867,1.834766 1.50436,1.328958 1.78394,1.727205 2.22005,3.162272 0.44322,1.458446 0.61382,1.695773 1.52733,2.124722 0.56561,0.265588 1.9956,1.06926 3.17776,1.785938 1.18215,0.716678 2.26017,1.30305 2.39559,1.30305 0.13542,0 0.83507,0.37913 1.55479,0.842511 0.71971,0.463381 2.20154,1.338554 3.29295,1.94483 1.0914,0.606276 2.52015,1.409322 3.175,1.784545 l 1.19062,0.682225 1.5875,-0.940794 c 0.87312,-0.517437 3.37344,-1.65268 5.55625,-2.522764 2.18281,-0.870084 4.32594,-1.794501 4.7625,-2.054261 0.43656,-0.25976 2.2225,-1.097234 3.96875,-1.861053 1.81298,-0.793008 3.5155,-1.730068 3.96875,-2.184377 0.43656,-0.437588 1.74625,-1.41199 2.91042,-2.165338 1.16416,-0.753348 3.18175,-2.064831 4.48352,-2.914406 2.29048,-1.494842 7.79292,-4.368815 9.14252,-4.775224 0.70385,-0.211954 1.7935,-1.037841 5.10694,-3.8707576 1.13533,-0.9706804 2.86173,-2.2566125 3.83646,-2.8576269 4.03921,-2.4905769 6.1494,-3.93968962 7.48314,-5.13884108 0.77603,-0.6977186 2.5921,-2.12102152 4.03571,-3.16289532 1.44361,-1.0418738 3.53213,-2.6462777 4.64114,-3.565342 1.10902,-0.9190643 2.49265,-1.9177741 3.07473,-2.2193549 0.58209,-0.3015809 1.74544,-1.1827572 2.58524,-1.9581702 0.8398,-0.775412 4.12325,-3.140218 7.29657,-5.255124 4.42619,-2.9499 5.96706,-3.845284 6.61734,-3.845284 1.24256,0 1.34142,0.64463 0.27075,1.765392 -1.12619,1.178881 -4.52587,3.793648 -5.92198,4.554725 -2.59401,1.414101 -8.16455,4.9616565 -8.35615,5.3215503 -0.11621,0.2182813 -0.28739,0.7540625 -0.38039,1.1906251 -0.0983,0.4613079 -0.68666,1.2765492 -1.40483,1.9464977 -1.29834,1.2111654 -6.52406,4.4268719 -10.68762,6.576756 -0.39637,0.2046645 -0.99168,0.7347509 -1.32292,1.1779697 -1.36567,1.8273373 -4.21451,4.1563968 -8.01059,6.5490138 -1.01865,0.6420391 -2.90102,1.8620604 -4.18306,2.7111584 -1.28204,0.849098 -2.48874,1.543814 -2.68155,1.543814 -0.19282,0 -0.52796,0.267891 -0.74476,0.595312 -0.2168,0.327422 -1.39136,1.178509 -2.61012,1.891304 -1.21876,0.712795 -2.81124,1.655335 -3.53884,2.094533 -1.42711,0.861433 -7.79603,4.401567 -9.525,5.294425 -0.58209,0.300593 -1.50251,0.997282 -2.04539,1.548198 -1.00176,1.016593 -4.65429,2.985941 -7.9924,4.309293 -1.82607,0.72392 -6.85018,3.183433 -7.50143,3.672263 -0.25408,0.190713 0.0502,0.50647 1.19062,1.235586 2.7812,1.778099 2.97129,2.166141 3.49777,7.140337 0.13092,1.236927 0.3904,3.167873 0.57663,4.29099 0.26278,1.584829 0.27413,2.799229 0.0507,5.423958 -0.43308,5.087484 -1.38099,7.722396 -3.47127,9.649151 -1.08484,0.999964 -1.15489,1.134341 -0.72395,1.388685 0.26242,0.154876 0.84929,0.523691 1.30417,0.81959 0.45488,0.295899 1.36284,0.814609 2.01768,1.152689 0.65485,0.33808 1.70261,0.959184 2.32837,1.380231 0.62576,0.421047 1.19756,0.76554 1.27066,0.76554 0.36737,0 4.85956,3.177509 5.7643,4.077322 0.64703,0.64351 1.32407,1.056938 1.79102,1.093671 0.41291,0.03248 1.0189,0.234262 1.34664,0.448401 0.32774,0.214138 1.66745,0.958088 2.97714,1.653221 4.93634,2.620027 9.89894,5.710891 10.6688,6.644867 0.64434,0.781694 0.8698,0.902161 1.27878,0.683279 0.62274,-0.33328 0.75253,-0.258943 4.65066,2.663731 3.05024,2.286949 4.63043,3.342117 6.67329,4.456057 0.57559,0.313862 1.70669,1.191659 2.51354,1.95066 0.80686,0.759 1.64746,1.444035 1.86802,1.522298 0.22056,0.07826 1.58978,1.024443 3.04271,2.102622 1.45293,1.078179 3.58917,2.610671 4.7472,3.405537 2.29152,1.572889 4.39067,3.570963 6.03526,5.744693 0.58213,0.76942 1.26278,1.38906 1.52584,1.38906 0.26119,0 1.98817,1.22039 3.83772,2.71198 1.84955,1.49159 3.67537,2.94467 4.05737,3.22907 2.27323,1.6924 6.07168,5.73247 7.37912,7.84851 0.69365,1.12264 0.76013,1.96411 0.17296,2.18942 -0.68764,0.26388 -0.77463,0.21785 -2.39208,-1.26558 z m 2.15858,0.61716 c 0.38818,-0.62809 -3.72431,-5.80011 -6.09084,-7.66004 -2.35221,-1.84869 -5.96589,-4.75422 -7.29709,-5.86714 -1.37683,-1.15107 -1.83505,-1.25862 -1.83505,-0.43069 0,0.98949 0.98173,2.07075 5.48011,6.03564 2.39396,2.11006 5.43493,4.81873 6.75771,6.01927 1.32278,1.20055 2.49666,2.18282 2.60863,2.18282 0.11196,0 0.2814,-0.12594 0.37653,-0.27986 z M 250.95729,104.103 c 0,-1.13345 -2.67491,-4.284422 -4.9279,-5.804951 -1.45217,-0.980054 -6.78686,-4.804178 -8.30024,-5.949948 -0.99177,-0.750861 -1.22674,-0.834271 -1.41293,-0.501561 -0.12284,0.219492 -0.15687,0.663925 -0.0756,0.987627 0.16843,0.671069 2.68721,3.170841 4.26565,4.233455 2.20793,1.48639 5.33073,3.814048 8.29249,6.181008 1.37821,1.10144 2.15855,1.4103 2.15855,0.85437 z M 235.46787,91.960985 c 0.0837,-0.135466 0.0364,-0.317872 -0.10512,-0.405348 -0.14154,-0.08748 -0.20067,-0.306739 -0.1314,-0.487251 0.17875,-0.465825 -1.82931,-2.284009 -3.85322,-3.488875 -2.23254,-1.329058 -7.08705,-4.67063 -8.49863,-5.849967 -1.16196,-0.970797 -1.88583,-1.07514 -2.03636,-0.293535 -0.096,0.498709 1.17747,1.783363 2.99436,3.02056 0.58209,0.396365 2.02698,1.464818 3.21089,2.37434 1.89773,1.457916 3.06306,2.288626 6.68176,4.763125 0.95532,0.653254 1.49088,0.766347 1.73772,0.366951 z m -34.78141,-3.863239 c 0,-0.712982 -0.66073,-2.505044 -0.9236,-2.505044 -0.0863,0 -0.40022,0.226725 -0.69766,0.503834 -0.52358,0.487786 -0.52592,0.527816 -0.0736,1.256771 0.91003,1.466574 1.69486,1.811299 1.69486,0.744439 z m -13.57483,-1.827662 c 2.0679,-0.278987 5.12427,-1.645875 6.21249,-2.778388 2.14874,-2.236205 0.9994,-2.999921 -3.22099,-2.140282 -6.65684,1.355913 -6.26118,1.197772 -5.69814,2.277454 0.22176,0.425265 0.40395,1.281493 0.40484,1.902729 0.001,1.030376 0.0539,1.118928 0.59694,1.00885 0.32743,-0.06637 1.09461,-0.188033 1.70486,-0.270363 z m 11.20824,-0.420642 c 0.58754,-0.314443 1.30826,-1.589302 1.30826,-2.314147 0,-0.71679 -1.04504,-1.592012 -2.61167,-2.187287 -1.77605,-0.674844 -2.25652,-0.680505 -1.90433,-0.02243 0.29339,0.548213 -0.003,1.935261 -0.55613,2.601611 -0.39025,0.470222 0.0417,0.883464 1.76484,1.68858 1.24251,0.580536 1.33148,0.590937 1.99903,0.233677 z m 3.90413,-2.011153 c 0.88996,-0.575834 0.643,-1.298242 -0.42691,-1.248818 -1.3512,0.06242 -1.6398,0.2686 -1.6398,1.171527 0,0.773238 0.0504,0.818355 0.72761,0.651844 0.40018,-0.09839 1.00278,-0.35694 1.3391,-0.574553 z m 17.51246,-3.10969 c 0,-0.774797 -2.62233,-2.58195 -8.20208,-5.652376 -0.94589,-0.520502 -2.07698,-1.122503 -2.51354,-1.337781 -0.43657,-0.215277 -1.4486,-0.780082 -2.24896,-1.255121 -1.86606,-1.107557 -2.7485,-1.253762 -2.85963,-0.473788 -0.0606,0.425192 0.22335,0.781775 1.10601,1.389062 0.65313,0.449363 1.29059,0.817024 1.41658,0.817024 0.12599,0 1.09809,0.535781 2.16022,1.190625 1.06212,0.654843 1.96698,1.190625 2.01079,1.190625 0.0438,0 1.1934,0.691301 2.55462,1.536226 3.92191,2.434368 6.57599,3.481918 6.57599,2.595504 z m -16.62191,-9.318554 c -0.1774,-1.041587 -1.16138,-1.752916 -9.30726,-6.728282 -0.80036,-0.48885 -2.22592,-1.39008 -3.1679,-2.002734 l -1.71269,-1.113917 -1.02705,0.52396 -1.02705,0.523961 0.62308,0.674368 c 0.34269,0.370902 1.27792,1.159805 2.07828,1.753118 0.80037,0.593313 1.61315,1.234166 1.8062,1.424118 0.19304,0.189953 0.96695,0.60961 1.71979,0.932573 0.75284,0.322962 3.20941,1.514595 5.45904,2.648074 2.24963,1.133478 4.21416,2.017132 4.36563,1.963674 0.15146,-0.05346 0.23693,-0.322969 0.18993,-0.598913 z m -35.69426,-0.964739 c 1.31013,-1.405229 2.30992,-2.951639 2.30992,-3.572825 0,-0.260967 -0.9656,-1.424192 -2.14579,-2.584945 -1.18018,-1.160753 -2.95891,-3.182022 -3.95272,-4.49171 -0.99382,-1.309687 -2.0614,-2.678906 -2.3724,-3.042708 l -0.56547,-0.661459 0.16482,2.483829 c 0.26403,3.978762 1.48277,8.643592 2.96288,11.340651 0.81139,1.478517 0.99449,1.653646 1.72894,1.653646 0.62556,0 1.07144,-0.268141 1.86982,-1.124479 z m 8.14202,-4.263037 c 5.22125,-1.811283 4.78293,-1.626109 10.21214,-4.314192 3.7785,-1.870792 4.79659,-2.495915 5.53751,-3.400113 0.49931,-0.609338 0.91076,-1.33375 0.91434,-1.609805 0.004,-0.276054 0.25057,-1.216291 0.54887,-2.089416 0.78258,-2.290624 1.00576,-8.267956 0.40699,-10.900148 -0.23826,-1.047372 -0.4332,-2.357104 -0.4332,-2.910515 0,-0.553411 -0.17169,-1.826807 -0.38154,-2.829769 -0.29345,-1.402544 -0.58361,-2.034114 -1.25677,-2.735506 -0.97805,-1.01907 -2.782,-2.020369 -4.18252,-2.32155 -0.50932,-0.109529 -1.28323,-0.499796 -1.71979,-0.86726 -0.43657,-0.367463 -1.21047,-0.860169 -1.71979,-1.094901 -1.26023,-0.580802 -4.23556,-2.243114 -6.5045,-3.634056 -1.03086,-0.631953 -1.9654,-1.149005 -2.07675,-1.149005 -0.11135,0 -1.31513,-0.654844 -2.67506,-1.455208 -1.35994,-0.800365 -2.58027,-1.455209 -2.71185,-1.455209 -0.14253,0 -0.14275,0.614987 -5.5e-4,1.521355 0.13128,0.836744 0.17348,1.987876 0.0938,2.55807 -0.2491,1.782285 -3.31806,5.730224 -6.49559,8.355993 -2.33056,1.925872 -2.25427,1.740815 -2.77283,6.725779 -0.70093,6.738081 -0.28863,10.872897 1.2989,13.025995 2.94344,3.992056 4.88567,6.324474 6.88638,8.26979 1.47369,1.432894 2.34156,2.49229 2.43841,2.976563 0.0827,0.413531 0.22986,0.751874 0.32701,0.751874 0.0971,0 2.01703,-0.638445 4.2664,-1.418766 z M 161.33103,35.814917 c 0.99829,-0.534267 4.71392,-4.538158 6.08365,-6.555611 l 1.33175,-1.961519 -0.28468,-2.271815 c -0.44203,-3.527452 -1.24586,-5.794239 -2.46829,-6.960517 -0.56757,-0.541495 -1.27994,-1.117261 -1.58305,-1.27948 -0.47648,-0.255002 -0.53199,-0.229167 -0.40996,0.190787 0.0776,0.267151 0.22077,1.279444 0.31808,2.249539 0.16051,1.600172 0.0743,2.091109 -0.92919,5.291667 -0.60836,1.940321 -1.46921,4.480357 -1.91301,5.644524 -0.76042,1.994712 -1.3533,5.953125 -0.89164,5.953125 0.10146,0 0.43731,-0.135315 0.74634,-0.3007 z m 29.05907,-4.692835 c 3.44308,-1.416379 12.64873,-5.933562 13.55192,-6.649882 l 0.74201,-0.588495 -0.72732,-0.37734 c -0.68223,-0.353946 -0.90047,-0.300508 -3.52014,0.861937 -1.53605,0.681602 -3.61884,1.651807 -4.62842,2.156009 -1.00958,0.504202 -2.9398,1.311315 -4.28937,1.793583 -2.32978,0.832545 -5.3844,2.561591 -5.3844,3.047803 0,0.295756 0.81288,0.762907 1.3453,0.773124 0.2306,0.0044 1.54029,-0.453107 2.91042,-1.016739 z m 19.03131,-10.245454 c 1.9625,-1.105402 5.05646,-2.885341 6.87547,-3.95542 1.81901,-1.070079 3.54541,-2.02887 3.83646,-2.130646 1.37426,-0.480578 2.23645,-2.04121 1.32162,-2.392263 -0.78413,-0.300899 -6.74215,2.799904 -11.61071,6.042697 -1.326,0.883206 -2.97502,1.97652 -3.66447,2.429586 -1.26236,0.829535 -1.65179,1.331383 -1.37752,1.775161 0.31162,0.504213 1.16003,0.179273 4.61915,-1.769115 z m 14.32444,-8.72682 c 0.44446,-0.229839 1.48035,-0.884528 2.30197,-1.454862 0.82162,-0.570335 1.56738,-1.0371278 1.65725,-1.0373179 0.46121,-9.757e-4 6.91416,-4.6863348 8.5017,-6.1729149 0.82967,-0.7769056 0.97826,-1.76646 0.26459,-1.762107 -0.59456,0.00363 -8.30822,4.9712907 -9.56353,6.1589961 -0.52451,0.4962646 -1.8231,1.585109 -2.88575,2.4196537 -1.57448,1.236506 -1.87456,1.58668 -1.62125,1.891899 0.38473,0.463576 0.36341,0.464263 1.34502,-0.04335 z m 18.61249,-13.3030004 c 1.01864,-0.6055634 2.43377,-1.4272652 3.14472,-1.8260042 3.2058,-1.7979884 6.23052,-4.699552 5.24237,-5.0289337 -0.17452,-0.058173 -0.3173,-0.2744405 -0.3173,-0.480595 0,-0.7305468 -0.78808,-0.350641 -3.47606,1.6756945 -9.56188,7.20822055 -10.04787,7.61577762 -9.50848,7.9739664 0.39614,0.2630575 1.2781,-0.1522173 4.91475,-2.314128 z M 256.73047,-12.48675 c 1.50176,-0.917658 2.82305,-1.668469 2.93621,-1.668469 0.25015,0 4.24325,-3.015024 5.71041,-4.311683 0.80056,-0.707531 0.98469,-1.011197 0.756,-1.246761 -0.40641,-0.418634 -0.82849,-0.181512 -6.44455,3.62051 -0.65484,0.443323 -2.20265,1.471709 -3.43958,2.285301 -2.64004,1.736496 -5.02708,3.774695 -5.02708,4.2924311 0,0.3822518 0.17412,0.2883274 5.50859,-2.9713291 z m -68.77659,-6.678455 c 0.61776,-1.436024 0.70664,-2.426988 0.28786,-3.209491 -0.41365,-0.772906 -0.67171,-0.641775 -1.83443,0.932138 -1.11,1.502545 -1.33868,2.260256 -0.68216,2.260256 0.21149,0 0.59844,0.293915 0.8599,0.653144 0.26145,0.359229 0.55,0.656885 0.64123,0.661458 0.0912,0.0046 0.41864,-0.579304 0.7276,-1.297505 z m 3.61032,-3.34389 c 2.00961,-0.839669 0.85327,-1.823262 -1.28638,-1.094209 -1.54815,0.527506 -1.89031,0.295333 -1.52163,-1.032503 0.39402,-1.419093 0.36581,-2.483996 -0.0658,-2.483996 -0.50367,0 -0.96851,1.163177 -0.96851,2.423533 0,0.783559 0.19761,1.314975 0.7276,1.956657 0.78717,0.953051 1.29543,0.990667 3.11472,0.230518 z M 150.68021,92.604161 c 0,-0.220486 0.23519,-0.396875 0.52917,-0.396875 0.29398,0 0.52917,0.176389 0.52917,0.396875 0,0.220486 -0.23519,0.396875 -0.52917,0.396875 -0.29398,0 -0.52917,-0.176389 -0.52917,-0.396875 z m 24.87084,-14.816667 c 0,-0.218282 0.10632,-0.396875 0.23627,-0.396875 0.12995,0 0.30481,0.178593 0.38857,0.396875 0.0928,0.241752 4.2e-4,0.396875 -0.23627,0.396875 -0.21372,0 -0.38857,-0.178594 -0.38857,-0.396875 z M 104.15991,34.709757 c -0.60872,-0.647951 -0.53102,-0.97539 0.23146,-0.97539 0.49274,0 0.82834,0.817416 0.53228,1.296459 -0.12159,0.196734 -0.37892,0.08855 -0.76374,-0.321069 z M 22.236305,33.752649 c -0.08372,-0.135466 -0.01282,-0.332455 0.157557,-0.437755 0.184639,-0.114113 0.239158,-0.07719 0.134959,0.09141 -0.09615,0.155576 -0.02525,0.343166 0.157557,0.416867 0.237898,0.09591 0.242806,0.139939 0.01726,0.15489 -0.173313,0.01149 -0.383614,-0.08995 -0.467337,-0.225413 z m 82.219575,-2.041727 c -0.22815,-0.09264 -0.27854,-0.709028 -0.17677,-2.161925 0.14493,-2.068959 0.35564,-2.628887 0.86972,-2.31117 0.32461,0.200622 0.36092,1.217905 0.11619,3.255394 -0.16694,1.389807 -0.21334,1.459634 -0.80914,1.217701 z m 0.76262,-6.767018 c -0.41162,-0.411623 -0.39268,-0.646659 0.0663,-0.822795 0.55906,-0.214531 1.04583,0.469269 0.59839,0.840607 -0.25995,0.21574 -0.43588,0.211025 -0.66472,-0.01781 z m 0.21796,-3.625809 c 0,-0.571554 -0.11046,-1.911007 -0.24548,-2.976563 -0.13501,-1.065556 -0.38938,-3.279839 -0.56526,-4.920629 -0.17588,-1.640791 -0.40411,-3.035377 -0.50719,-3.09908 -0.67069,-0.4145099 -5.661003,-1.2496088 -8.207067,-1.3734033 -2.428745,-0.1180903 -3.727844,-0.031094 -6.438138,0.43114 -4.646295,0.7924143 -9.667839,2.1995633 -12.259573,3.4354073 -2.014589,0.960639 -2.468955,1.053705 -2.468955,0.505711 0,-0.497625 3.838076,-2.068211 7.540625,-3.085712 3.983056,-1.0945879 9.436326,-2.0967232 11.90625,-2.1879852 2.17989,-0.080546 8.443138,0.8415356 9.484998,1.3963905 0.44043,0.2345572 0.47128,0.1791163 0.3097,-0.5565403 -0.1407,-0.6406034 -0.0903,-0.8170487 0.2334,-0.8170487 0.22708,0 0.4642,0.2678907 0.52695,0.5953125 0.9108,4.7526702 1.45529,9.2956352 1.47458,12.3031252 0.007,1.062294 -0.0845,1.389063 -0.38796,1.389063 -0.28542,0 -0.39688,-0.291854 -0.39688,-1.039188 z m -34.073523,-6.93919 c 0.137328,-0.411985 0.729258,-0.484132 0.750002,-0.09141 0.0077,0.145521 -0.184619,0.30572 -0.427346,0.355998 -0.275886,0.05715 -0.396839,-0.04204 -0.322656,-0.264584 z M 148.83533,-1.3142496 c -0.17454,-0.2103045 -0.24375,-0.5014498 -0.1538,-0.6469897 0.21909,-0.354486 0.94035,-0.058094 0.94035,0.3864221 0,0.5429826 -0.43309,0.68645716 -0.78655,0.2605676 z m 27.6637,-10.9533744 c -0.11397,-0.184415 -0.13577,-0.406754 -0.0484,-0.494087 0.23679,-0.236791 0.49498,0.11147 0.36708,0.495153 -0.0896,0.268863 -0.15194,0.268655 -0.31864,-0.0011 z M 40.401881,-23.997719 c -0.432119,-0.432119 -0.399043,-0.740833 0.07937,-0.740833 0.220486,0 0.396875,0.235185 0.396875,0.529166 0,0.61675 -0.04927,0.638648 -0.47625,0.211667 z M 28.071707,-51.391506 c -0.283904,-0.283904 -0.166522,-0.599131 0.223101,-0.599131 0.209693,0 0.447134,0.106587 0.527647,0.236859 0.168331,0.272366 -0.512244,0.600777 -0.750748,0.362272 z m 83.979343,-6.155381 c 0,-0.145521 0.11203,-0.264584 0.24896,-0.264584 0.13694,0 0.32256,0.119063 0.41249,0.264584 0.0899,0.145521 -0.0221,0.264583 -0.24896,0.264583 -0.22687,0 -0.41249,-0.119062 -0.41249,-0.264583 z"
       id="path2" /></g></svg>
