<?xml version="1.0" encoding="UTF-8" standalone="no"?>
<!-- Created with Inkscape (http://www.inkscape.org/) -->

<svg
   width="56.905132mm"
   height="27.931902mm"
   viewBox="0 0 56.905132 27.931902"
   version="1.1"
   id="svg1"
   xml:space="preserve"
   xmlns="http://www.w3.org/2000/svg"
   xmlns:svg="http://www.w3.org/2000/svg"><defs
     id="defs1"><style
       id="style1">
      .st0 {
        fill: #f59e0b;
      }

      .st1 {
        fill: #255432;
      }
    </style><style
       id="style1-5">
      .st0 {
        fill: #f59e0b;
      }

      .st1 {
        fill: #255432;
      }
    </style></defs><g
     id="layer1"
     transform="translate(-111.43736,-162.79876)"><path
       class="st1"
       d="m 162.74569,178.41775 c 0.10414,-0.44265 0.28636,-0.80698 0.62476,-1.06733 0.31239,-0.26035 0.75491,-0.39052 1.27556,-0.39052 0.52062,0 0.96316,0.13017 1.27555,0.39052 0.31237,0.26035 0.52062,0.62468 0.62476,1.06733 h -3.7746 z m 5.44063,1.30149 c 0.10411,0 0.15618,-0.0521 0.15618,-0.15611 0,-0.72892 -0.0781,-1.35361 -0.26032,-1.90023 -0.18222,-0.5207 -0.41651,-0.96335 -0.75491,-1.32768 -0.3124,-0.33841 -0.70287,-0.59876 -1.17142,-0.78105 -0.46858,-0.15611 -0.96319,-0.26035 -1.50984,-0.26035 -0.54666,0 -1.04127,0.0783 -1.50985,0.26035 -0.46855,0.18229 -0.85905,0.44264 -1.17142,0.75485 -0.31236,0.33867 -0.57269,0.72893 -0.7549,1.17158 -0.18222,0.46857 -0.26033,0.96308 -0.26033,1.50971 0,0.54689 0.10414,1.06733 0.28636,1.50998 0.18222,0.46857 0.44252,0.8591 0.78094,1.17131 0.33841,0.31247 0.72888,0.57282 1.19746,0.75485 0.46857,0.1823 0.98919,0.28655 1.56188,0.28655 0.59873,0 1.17145,-0.10425 1.64,-0.26035 0.49461,-0.15611 0.91112,-0.41646 1.24952,-0.78105 0.0521,-0.0781 0.0521,-0.15611 0,-0.23416 l -0.88509,-0.93715 c -0.0781,-0.0521 -0.15618,-0.0521 -0.26029,0 -0.18222,0.1561 -0.39047,0.28628 -0.67683,0.39052 -0.28634,0.10398 -0.59873,0.15611 -0.96317,0.15611 -0.54668,0 -0.98919,-0.13018 -1.35366,-0.39053 -0.3384,-0.26035 -0.57269,-0.59875 -0.70284,-1.01521 h 5.41457 z m -7.8095,-2.55112 0.36444,-1.48378 c 0,-0.0521 0,-0.10398 0,-0.13017 0,-0.0265 -0.0521,-0.0521 -0.10412,-0.0781 -0.10414,-0.0265 -0.26032,-0.0781 -0.46857,-0.10398 -0.18222,-0.0521 -0.41651,-0.0783 -0.6508,-0.0783 -0.36444,0 -0.70284,0.0783 -1.01523,0.20822 -0.31237,0.15637 -0.57269,0.33867 -0.80698,0.5469 l -0.15618,-0.46858 c 0,-0.0521 -0.0521,-0.0783 -0.0521,-0.10425 0,-0.0265 -0.0781,-0.0521 -0.13015,-0.0521 h -0.98923 c -0.10411,0 -0.15618,0.0521 -0.15618,0.15637 v 6.84609 c 0,0.10425 0.0521,0.15637 0.15618,0.15637 h 1.45778 c 0.10414,0 0.15621,-0.0521 0.15621,-0.15637 v -4.5294 c 0.13015,-0.28628 0.31237,-0.4945 0.52062,-0.65087 0.20825,-0.15611 0.44254,-0.23416 0.70286,-0.23416 0.2603,0 0.36444,0 0.54666,0.078 0.18222,0.0521 0.3384,0.10425 0.44254,0.15611 0.10412,0.0521 0.18222,0 0.20826,-0.0781 m -7.34092,5.28453 c 0.0259,0.10398 0.10411,0.1561 0.18222,0.1561 h 1.11934 c 0.10414,0 0.15621,-0.0521 0.15621,-0.1561 v -6.84636 c 0,-0.10425 -0.0781,-0.15611 -0.15621,-0.15611 h -1.4057 c -0.10411,0 -0.15618,0.0519 -0.15618,0.15611 v 3.33216 c -0.0259,0.72866 -0.20826,1.27556 -0.54666,1.63989 -0.33843,0.36433 -0.7289,0.54663 -1.17144,0.54663 -0.44252,0 -0.85903,-0.15611 -1.11935,-0.44239 -0.26032,-0.28654 -0.39047,-0.78105 -0.39047,-1.43192 v -3.64437 c 0,-0.10425 -0.0521,-0.15611 -0.15618,-0.15611 h -1.43174 c -0.10414,0 -0.15621,0.0519 -0.15621,0.15611 v 3.95684 c 0,1.01521 0.23428,1.82219 0.7289,2.36882 0.49458,0.54663 1.14538,0.83317 1.95236,0.83317 0.80698,0 0.98919,-0.10425 1.4057,-0.28654 0.39047,-0.20823 0.7289,-0.46858 0.9892,-0.83291 z m -7.91364,-5.38851 h 1.45778 c 0.10414,0 0.15621,-0.0521 0.15621,-0.13017 v -1.30175 c 0,-0.10398 -0.0521,-0.15611 -0.15621,-0.15611 h -1.45778 V 173.784 c 0,-0.10424 -0.052,-0.1561 -0.15618,-0.1561 h -1.4057 c -0.10412,0 -0.13015,0.0519 -0.13015,0.1561 v 1.69201 h -0.96319 c -0.10412,0 -0.15619,0.0521 -0.15619,0.15611 v 1.30175 c 0,0.10398 0.0521,0.13017 0.15619,0.13017 h 0.96319 v 3.20173 c 0,0.78105 0.15618,1.3798 0.52062,1.82218 0.36444,0.41672 0.85905,0.65088 1.48381,0.65088 0.36443,0 0.70284,-0.0521 0.96316,-0.1823 0.28636,-0.13018 0.46858,-0.23416 0.57269,-0.31221 0.0781,-0.0521 0.10414,-0.13017 0.0521,-0.23442 l -0.46858,-1.22343 c 0,-0.0521 -0.052,-0.0781 -0.10411,-0.0781 -0.0521,0 -0.0781,0 -0.13015,0.0265 -0.0521,0.0521 -0.13017,0.10425 -0.26032,0.15637 -0.13018,0.0519 -0.23429,0.10398 -0.36444,0.10398 -0.13017,0 -0.20825,0 -0.28636,-0.078 -0.0781,-0.0521 -0.13015,-0.13017 -0.18222,-0.26035 -0.0521,-0.13017 -0.0781,-0.28628 -0.10414,-0.49451 -0.0259,-0.20822 -0.0259,-0.46857 -0.0259,-0.78105 v -2.31669 z m -9.11106,0.52044 c 0.36444,-0.36433 0.83302,-0.54663 1.43174,-0.54663 0.59873,0 1.09334,0.1823 1.45778,0.54663 0.36444,0.36459 0.57269,0.83317 0.57269,1.45785 0,0.59875 -0.20825,1.09326 -0.57269,1.45786 -0.36444,0.36433 -0.85905,0.54663 -1.45778,0.54663 -0.59872,0 -1.0673,-0.1823 -1.43174,-0.54663 -0.36443,-0.3646 -0.54665,-0.85911 -0.54665,-1.45786 0,-0.59875 0.18222,-1.09326 0.54665,-1.45785 m 3.59236,-1.17131 c -0.2603,-0.36433 -0.57269,-0.62468 -0.96316,-0.83291 -0.39048,-0.1823 -0.83302,-0.28654 -1.3276,-0.28654 -0.54669,0 -1.01524,0.0783 -1.45778,0.26035 -0.44254,0.18229 -0.80698,0.44264 -1.14541,0.75485 -0.31236,0.33867 -0.54665,0.72893 -0.72887,1.17158 -0.18222,0.46857 -0.26032,0.96308 -0.26032,1.50971 0,0.54689 0.0781,1.0414 0.26032,1.50998 0.18222,0.46857 0.41651,0.8591 0.72887,1.17131 0.3124,0.31247 0.70287,0.57282 1.14541,0.75485 0.44254,0.1823 0.93713,0.28655 1.45778,0.28655 0.52062,0 0.96316,-0.10425 1.3276,-0.28655 0.39047,-0.20822 0.70286,-0.46831 0.96316,-0.8329 l 0.20825,0.80697 c 0,0.0521 0.0521,0.0781 0.0521,0.10425 0,0 0.0521,0.0265 0.10414,0.0265 h 1.17142 c 0.10411,0 0.15618,-0.0521 0.15618,-0.15611 v -6.84635 c 0,-0.10425 -0.0521,-0.15611 -0.15618,-0.15611 h -1.14538 c -0.0781,0 -0.13018,0.0519 -0.15621,0.15611 l -0.23429,0.8329 z m -13.53643,6.03938 c 0,0.10398 0.0521,0.13017 0.15619,0.13017 h 1.43173 c 0.10412,0 0.15619,-0.0521 0.15619,-0.13017 v -3.30597 c 0.0259,-0.67681 0.20825,-1.19751 0.52065,-1.5621 0.31236,-0.36433 0.70283,-0.54663 1.14538,-0.54663 0.4165,0 0.78094,0.13017 1.04126,0.41672 0.28636,0.28628 0.41651,0.72866 0.41651,1.32741 v 3.67057 c 0,0.10398 0.0521,0.1561 0.15619,0.1561 h 1.45777 c 0.10414,0 0.13015,-0.0521 0.13015,-0.1561 v -3.98278 c 0,-0.49477 -0.0781,-0.96334 -0.20826,-1.35387 -0.13014,-0.39026 -0.31236,-0.72866 -0.54665,-1.0152 -0.23429,-0.28628 -0.52062,-0.49451 -0.85905,-0.62469 -0.3384,-0.13017 -0.70284,-0.20822 -1.11935,-0.20822 -0.4165,0 -0.98919,0.10424 -1.35366,0.31247 -0.36443,0.20823 -0.6768,0.49451 -0.91109,0.83291 l -0.15618,-0.83291 c 0,-0.10425 -0.0781,-0.13018 -0.18222,-0.13018 h -1.11937 c -0.10412,0 -0.15619,0.0519 -0.15619,0.15611 z"
       id="path1-3"
       style="fill:#255432;stroke-width:0.260316" /><path
       class="st1"
       d="m 111.43737,190.52244 c 0,0.13017 0.10412,0.20823 0.20826,0.20823 h 56.54069 c 0.13014,0 0.15618,-0.0781 0.0781,-0.15611 l -0.80698,-0.8591 c -0.0781,-0.0781 -0.23428,-0.1561 -0.36443,-0.1561 h -55.42135 c -0.13014,0 -0.20825,0.10398 -0.20825,0.20822 v 0.75486 z"
       id="path2-5"
       style="fill:#255432;stroke-width:0.260316" /><path
       class="st1"
       d="m 162.06888,163.44948 c -0.0521,1.58803 -0.36446,6.9506 -2.42096,8.66854 -0.93713,0.78105 -2.0565,1.27556 -3.12378,1.32768 -0.0781,0 -0.18221,0 -0.26032,0 -0.96316,0 -1.79618,-0.31247 -2.49904,-0.93715 0.23429,-0.28628 0.49461,-0.5207 0.78094,-0.72893 0.3124,-0.20823 0.6508,-0.41645 1.01523,-0.65087 0.44255,-0.26009 0.88509,-0.54663 1.32763,-0.85884 0.18222,-0.10425 0.46858,-0.20823 0.93713,-0.28655 0.46858,-0.0781 0.85905,-0.13017 1.14541,0 0.052,0 0.18221,0.0265 0.20825,-0.0781 0.052,-0.13017 0,-0.23415 -0.10414,-0.28628 -0.0259,0 -0.23429,-0.10424 -0.52062,-0.10424 -0.31239,0 -0.75494,0.0783 -0.75494,0.0783 0.52065,-0.44264 0.98923,-0.93715 1.35366,-1.50997 0.0521,-0.10398 0,-0.1823 -0.0781,-0.23416 -0.10411,-0.0521 -0.20825,-0.0783 -0.2603,0 -0.49461,0.80698 -1.24952,1.43166 -2.03049,1.97829 0,0 0,0 0,0 0,0 0,0 0,0 -0.31237,0.20823 -0.62473,0.41645 -0.96316,0.62468 0,0 0.0521,-0.10398 0.15618,-0.54663 0.10414,-0.44238 0.0521,-0.78078 0.0521,-0.78078 0,-0.0521 -0.0521,-0.20823 -0.0781,-0.26035 0,-0.0521 -0.0781,-0.10425 -0.20823,-0.0781 -0.13018,0.0265 -0.18225,0.10399 -0.15621,0.20823 0,0.0519 0.0521,0.39026 0,0.80698 -0.0781,0.41645 -0.31237,0.93715 -0.41651,1.01521 -0.10411,0.078 -0.59872,0.39052 -0.88506,0.57256 -0.33842,0.20822 -0.7289,0.59875 -0.83301,0.72892 -0.20825,-0.39052 -0.36444,-1.0152 -0.36444,-1.69201 0,-1.14538 0.41651,-2.16059 1.09331,-2.78527 1.40571,-1.30175 2.94159,-1.82245 4.16508,-2.2389 0.46857,-0.15611 0.88505,-0.31221 1.27553,-0.49451 0.96318,-0.44265 1.87428,-1.14538 2.36889,-1.5359 m 0.46858,0.39052 v -0.8591 c 0,-0.0521 -0.0521,-0.078 -0.10414,-0.10398 0,0 -0.0521,0 -0.0781,0 -0.052,0 -0.10411,0 -0.13015,0.0519 0,0 -1.27555,1.17157 -2.60315,1.77032 -0.36444,0.15611 -0.78095,0.31221 -1.24952,0.46858 -1.24953,0.44238 -2.81141,0.98901 -4.29522,2.31669 -0.78095,0.703 -1.22349,1.84838 -1.22349,3.09774 0,0.80698 0.26032,1.69201 0.46858,2.03042 -0.75491,1.0152 -1.11938,2.10873 -1.14541,2.16058 -0.0259,0.10425 0,0.15637 0.10414,0.1823 0,0 0.0781,0.0265 0.10411,0.0265 0.10414,0 0.15621,0 0.18225,-0.0783 0,0 0.18222,-0.54663 0.54665,-1.22343 0.13015,-0.26035 0.28634,-0.49451 0.49459,-0.78079 0.7289,0.67681 1.7181,1.01521 2.73333,1.01521 1.01523,0 0.18222,0 0.28636,0 1.14538,-0.078 2.34283,-0.57282 3.35806,-1.43192 1.06731,-0.91096 1.84825,-2.75934 2.26476,-5.54461 0.18222,-1.24963 0.26032,-2.39501 0.28636,-3.12394"
       id="path3-2"
       style="fill:#255432;stroke-width:0.260316" /><path
       class="st1"
       d="m 115.31608,181.07285 c -1.19747,0 -2.03046,-0.80698 -2.03046,-2.00422 0,-1.19751 0.83299,-2.00449 2.03046,-2.00449 1.19746,0 2.00443,0.80698 2.00443,2.00449 0,1.19724 -0.83301,2.00422 -2.00443,2.00422 m 0.10412,-5.72691 c -0.93713,0 -1.66603,0.3384 -2.13458,0.96308 v -2.55085 c 0,-0.10424 -0.0781,-0.15636 -0.15621,-0.15636 h -1.43174 c -0.10411,0 -0.15618,0.0521 -0.15618,0.15636 v 8.7466 c 0,0.078 0.0521,0.13018 0.15618,0.13018 h 1.01523 c 0.10414,0 0.15621,-0.0521 0.18222,-0.15637 l 0.23429,-0.83291 c 0.49461,0.70273 1.27555,1.14538 2.29079,1.14538 2.1346,0 3.56634,-1.50998 3.56634,-3.72242 0,-2.21271 -1.43174,-3.72269 -3.56634,-3.72269"
       id="path4-9"
       style="fill:#255432;stroke-width:0.260316" /><path
       class="st0"
       d="m 122.76111,172.01404 c 0,0.39026 -0.31236,0.72866 -0.72887,0.72866 -0.41651,0 -0.7289,-0.3122 -0.7289,-0.72866 0,-0.41672 0.31239,-0.72893 0.7289,-0.72893 0.41651,0 0.72887,0.31221 0.72887,0.72893"
       id="path5-1"
       style="stroke-width:0.260316" /><path
       class="st1"
       d="m 119.48113,173.67986 1.22348,0.703 c 0.10414,0.0781 0.3124,0.18229 0.41651,0.23415 l 0.15619,0.10425 c 0.10414,0.078 0.20825,0.23415 0.20825,0.36433 v 2.05661 c 0,0.13017 0.10414,0.23415 0.23429,0.23415 h 0.67683 c 0.13015,0 0.23429,-0.10398 0.23429,-0.23415 v -2.05661 c 0,-0.13018 0.10411,-0.28628 0.20825,-0.36433 l 0.15618,-0.10425 c 0.10412,-0.078 0.31237,-0.18203 0.41651,-0.23415 l 1.22349,-0.703 c 0.10411,-0.078 0.15618,-0.20823 0.0781,-0.3384 l -0.33843,-0.57256 c -0.0781,-0.10425 -0.20825,-0.15637 -0.3384,-0.078 l -1.22349,0.70273 c -0.10414,0.0781 -0.31239,0.1823 -0.4165,0.23442 l -0.15619,0.10398 c -0.10414,0.0781 -0.31239,0.0781 -0.4165,0 l -0.15621,-0.10398 c -0.10412,-0.0783 -0.31237,-0.1823 -0.41648,-0.23442 l -1.22349,-0.70273 c -0.10414,-0.0783 -0.26032,-0.0265 -0.33843,0.078 l -0.3384,0.57256 c -0.0781,0.10424 -0.0259,0.26035 0.0781,0.3384"
       id="path6-2"
       style="fill:#255432;stroke-width:0.260316" /><path
       class="st0"
       d="m 123.82842,176.36115 c -0.3384,-0.20823 -0.46858,-0.65062 -0.26033,-0.98902 0.20826,-0.3384 0.6508,-0.46857 0.9892,-0.26035 0.33843,0.20823 0.46858,0.65061 0.26033,0.98902 -0.20826,0.3384 -0.6508,0.46857 -0.9892,0.26035"
       id="path7-7"
       style="stroke-width:0.260316" /><path
       class="st0"
       d="m 120.26207,176.36115 c 0.33843,-0.20823 0.46858,-0.65062 0.26033,-0.98902 -0.20826,-0.3384 -0.6508,-0.46857 -0.9892,-0.26035 -0.3384,0.20823 -0.46858,0.65061 -0.26033,0.98902 0.20826,0.3384 0.6508,0.46857 0.9892,0.26035"
       id="path8-0"
       style="stroke-width:0.260316" /><path
       class="st1"
       d="m 148.5064,172.2482 c -0.72888,-0.0521 -1.50985,-0.36433 -2.13461,-0.91096 -1.37967,-1.14565 -1.61396,-4.71197 -1.666,-5.90921 0.3384,0.28628 0.93713,0.72867 1.58792,1.01521 0.28633,0.13017 0.59873,0.23416 0.88506,0.3384 0.83301,0.28628 1.90032,0.65061 2.86348,1.53591 0.46858,0.44238 0.75493,1.14538 0.75493,1.90023 0,0.41646 -0.0781,0.83291 -0.20825,1.09326 -0.18222,-0.18229 -0.36444,-0.36433 -0.54668,-0.46857 -0.18222,-0.13018 -0.52062,-0.31221 -0.59873,-0.39053 -0.0781,-0.0519 -0.23428,-0.36433 -0.28633,-0.80698 -0.0259,-0.26035 0,-0.31221 0,-0.39026 0,-0.0783 -0.0259,-0.20849 -0.13017,-0.20849 -0.13015,0 -0.18222,0 -0.20826,0.10425 0,0.078 -0.052,0.23415 0,0.44264 0,0.20823 0.10414,0.52044 0.10414,0.54663 -0.20825,-0.13017 -0.57269,-0.39052 -0.59872,-0.39052 v 0 c -0.6508,-0.44265 -1.09334,-0.88503 -1.37967,-1.35361 -0.0521,-0.078 -0.15621,-0.078 -0.23429,-0.0265 -0.0781,0.0521 -0.10414,0.15637 -0.0521,0.23442 0.20825,0.3384 0.49461,0.65088 0.83301,0.96309 0,0 -0.20825,-0.0265 -0.36443,0 -0.10414,0 -0.23429,0 -0.33843,0.0264 -0.10412,0 -0.18222,0.0519 -0.18222,0.18204 0,0.0781 0.0521,0.15637 0.13017,0.15637 0.0781,0 0.13015,-0.0265 0.41651,-0.0521 0.28633,0 0.78095,0.078 0.9892,0.20823 0.20825,0.13017 0.6768,0.44265 1.01523,0.65087 l 0.10412,0.0781 c 0.20825,0.13017 0.4165,0.26035 0.59872,0.36433 0.18222,0.10424 0.33843,0.28628 0.52065,0.46858 -0.49461,0.44264 -1.14541,0.65087 -1.84825,0.59875 m 3.09777,0.91122 c -0.0521,-0.13017 -0.31239,-0.8591 -0.80698,-1.5359 0.20825,-0.33841 0.3384,-0.85911 0.3384,-1.40574 0,-0.88503 -0.31239,-1.66608 -0.85905,-2.16058 -1.04126,-0.93716 -2.10857,-1.32768 -2.99363,-1.61396 h -0.0781 c -0.28633,-0.13018 -0.54666,-0.20823 -0.78094,-0.31247 -0.93713,-0.41646 -1.79618,-1.22344 -1.79618,-1.22344 -0.0521,-0.0521 -0.13018,-0.0521 -0.18222,-0.0265 -0.0521,0.0265 -0.10414,0.10425 -0.10414,0.15637 0,0.0521 0,1.30149 0.20825,2.70722 0.28636,1.92643 0.83302,3.22792 1.58793,3.87879 0.70286,0.59875 1.53588,0.93716 2.36889,0.98901 h 0.0259 c 0.0521,0 0.10414,0 0.18222,0 0.70286,0 1.37967,-0.23415 1.90032,-0.70273 0.13014,0.1561 0.23428,0.3384 0.3384,0.54663 0.10414,0.1823 0.23429,0.46858 0.36443,0.80698 0,0 0,0.0521 0,0.0521 0,0.0521 0.10414,0.0781 0.20826,0.0521 0.10414,-0.0265 0.15621,-0.10424 0.10414,-0.20822"
       id="path9-9"
       style="fill:#255432;stroke-width:0.260316" /></g></svg>
