<?xml version="1.0" encoding="UTF-8" standalone="no"?>
<!-- Created with Inkscape (http://www.inkscape.org/) -->

<svg
   width="275.79514mm"
   height="238.7153mm"
   viewBox="0 0 275.79514 238.7153"
   version="1.1"
   id="svg1"
   xml:space="preserve"
   xmlns="http://www.w3.org/2000/svg"
   xmlns:svg="http://www.w3.org/2000/svg"><defs
     id="defs1" /><g
     id="layer1"
     transform="translate(70.192279,355.26429)"><path
       style="fill:#000000"
       d="m -14.939701,-117.10584 c -2.442963,-0.88871 -3.394239,-1.60858 -3.394239,-2.56857 0,-1.31126 0.718054,-1.47892 7.9375,-1.85337 6.0026678,-0.31134 9.0700308,-0.78864 13.6038968,-2.11687 2.75517,-0.80715 8.6211032,-3.84986 8.6211032,-4.47185 0,-0.0884 -1.696641,-0.49266 -3.7703132,-0.89835 -6.161252,-1.20535 -11.252425,-2.7928 -13.655181,-4.25773 -3.019855,-1.84118 -4.37825,-4.0123 -3.229243,-5.16131 0.832047,-0.83205 1.236165,-0.79533 7.95473702,0.72268 5.40346998,1.22087 8.87167298,1.71545 11.26476918,1.6064 1.878797,-0.0856 2.405636,-0.23204 4.365625,-1.21337 1.225939,-0.6138 3.241012,-1.7768 4.477939,-2.58442 4.673432,-3.05143 6.435337,-3.51621 9.673532,-2.55184 2.199665,0.65509 3.931297,1.73606 5.013161,3.12947 0.42965,0.55338 1.511511,1.76986 2.404137,2.7033 l 1.622955,1.69717 0.792918,-0.56461 c 0.914379,-0.6511 1.299032,-1.86017 1.492477,-4.69129 0.12983,-1.9001 0.315359,-2.54663 1.317785,-4.59223 0.486354,-0.99248 1.110251,-1.52098 4.273659,-3.62016 8.024328,-5.32481 8.133072,-5.40599 7.79192,-5.81705 -0.173849,-0.20948 -0.467227,-0.38087 -0.651951,-0.38087 -0.648061,0 -3.009138,-2.41253 -5.244958,-5.35925 -1.241551,-1.63632 -3.045664,-3.92762 -4.009141,-5.09179 -2.286436,-2.7627 -2.862686,-3.8855 -2.890599,-5.63224 -0.02027,-1.26849 -0.08402,-1.41262 -0.683812,-1.54595 -0.363803,-0.0809 -0.862099,-0.20107 -1.107327,-0.26712 -0.245227,-0.0661 -0.646719,-0.64601 -0.892205,-1.28881 -0.416911,-1.09166 -0.417609,-1.33876 -0.0106,-3.74785 0.457029,-2.70513 0.819555,-3.36594 2.340857,-4.26686 0.400182,-0.23699 0.727604,-0.62794 0.727604,-0.86877 0,-0.36021 1.359937,-1.80146 4.927019,-5.22161 0.200556,-0.1923 0.364647,-0.46019 0.364647,-0.59532 0,-0.47213 -0.706728,-0.24009 -1.342941,0.44092 -0.934371,1.00016 -2.015357,1.48996 -2.872718,1.30166 -0.511294,-0.1123 -1.043625,0.0187 -1.735819,0.42708 -0.955839,0.56395 -1.013284,0.56865 -1.348564,0.11012 -0.292297,-0.39974 -0.286615,-0.60188 0.03437,-1.22259 0.463055,-0.89545 0.183133,-1.15189 -0.978806,-0.89668 -0.797491,0.17515 -0.817662,0.15715 -0.645041,-0.57571 0.09801,-0.41609 0.501133,-1.0212 0.895836,-1.3447 0.394704,-0.3235 0.914091,-0.75807 1.154194,-0.96572 0.240104,-0.20765 1.103307,-0.57137 1.91823,-0.80827 0.814922,-0.23691 1.481677,-0.50547 1.481677,-0.59681 0,-0.12983 -0.769026,-1.24653 -1.499013,-2.17673 -0.04688,-0.0597 -0.294332,0.0686 -0.549886,0.28509 -0.651649,0.55215 -2.445607,1.00786 -3.294711,0.83693 -0.469701,-0.0945 -0.966806,0.0349 -1.455208,0.37897 -0.407994,0.28742 -0.999677,0.60258 -1.314853,0.70035 -0.659749,0.20466 -1.090689,-0.27023 -0.647442,-0.71348 0.59675,-0.59675 0.339717,-1.03435 -0.499303,-0.85007 -0.727579,0.1598 -0.79375,0.11533 -0.79375,-0.53345 0,-0.78244 0.916424,-2.24454 1.407079,-2.24491 0.171992,-1.3e-4 0.774613,-0.47638 1.339158,-1.05833 l 1.026446,-1.0581 h -3.037485 c -3.300592,0 -4.592291,-0.28972 -4.845259,-1.08675 -0.08961,-0.28235 -0.779085,-0.97161 -1.532162,-1.53169 -2.684723,-1.99669 -2.896739,-2.2802 -2.647957,-3.54084 0.121215,-0.61422 0.191963,-3.47776 0.157217,-6.36341 -0.05944,-4.93674 -0.09786,-5.2962 -0.650367,-6.08542 -0.802486,-1.1463 -4.511046,-5.20439 -4.756128,-5.20439 -0.108905,0 -0.351531,0.18921 -0.53917,0.42048 -1.757763,2.16644 -8.493477,8.57535 -9.0126332,8.57535 -0.06906,0 -0.580786,0.41697 -1.137177,0.92661 -1.208953,1.10736 -3.606064,2.07227 -4.603731,1.85314 -0.517749,-0.11371 -1.112788,0.0923 -2.257881,0.78188 -0.855172,0.51496 -1.67154998,0.93629 -1.81417298,0.93629 -0.142623,0 -0.447284,0.16725 -0.677024,0.37167 -0.229739,0.20442 -1.15517402,0.74445 -2.05652102,1.20007 -0.901348,0.45562 -1.710261,1.0535 -1.797585,1.32864 -0.268738,0.84672 -2.264019,2.65587 -2.929115,2.65587 -0.90062,0 -1.048008,-0.47782 -0.412522,-1.33736 0.660758,-0.89372 0.717622,-1.52931 0.156102,-1.74478 -0.222324,-0.0853 -0.535055,-0.39958 -0.694958,-0.69836 -0.23456,-0.43828 -0.19781,-0.61118 0.190211,-0.89491 0.26452,-0.19342 0.765303,-0.35168 1.112853,-0.35168 1.0094,0 4.089091,-1.32045 4.955494,-2.12472 0.436562,-0.40526 2.16296802,-1.66113 3.836458,-2.79083 7.643775,-5.15999 10.8447292,-7.56698 10.8509002,-8.15946 0.0016,-0.15754 1.400625,-1.67937 3.108854,-3.38183 2.819518,-2.81001 3.215643,-3.11167 4.296496,-3.27191 0.654843,-0.0971 1.584625,-0.43056 2.066181,-0.74107 0.81768,-0.52723 0.86395,-0.63451 0.699968,-1.62288 -0.09657,-0.58209 -0.206035,-1.48925 -0.243248,-2.01593 -0.08989,-1.27222 -0.300186,-1.55643 -1.149454,-1.55346 -0.931121,0.003 -5.516695,0.93298 -6.533649,1.32469 -1.93291,0.74453 -5.3713232,1.31235 -6.5797622,1.08659 -1.344978,-0.25127 -1.585558,-0.0989 -2.409326,1.52595 -0.687866,1.35679 -7.25818,7.70195 -7.975244,7.70195 -0.323968,0 -0.925589,0.27689 -1.336937,0.61531 -1.676532,1.37932 -3.425339,2.4016 -4.886212,2.85628 -0.849732,0.26446 -1.8974268,0.66311 -2.3282108,0.88588 -0.430784,0.22276 -1.17611,0.41226 -1.656279,0.42111 -0.70631,0.013 -1.049884,0.2387 -1.799077,1.18182 -1.669518,2.10167 -3.292734,1.88103 -2.108609,-0.28661 0.563299,-1.03117 0.598518,-1.22987 0.256336,-1.44618 -0.218177,-0.13792 -0.581232,-0.25258 -0.806789,-0.25481 -0.58813,-0.006 -1.045104,-0.5445 -1.045104,-1.23198 0,-0.85967 0.27591,-0.92124 1.969482,-0.43946 1.305222,0.3713 1.710603,0.38414 2.883482,0.0913 1.829141,-0.45673 6.0387058,-2.63509 6.1868398,-3.20155 0.06513,-0.24905 1.649627,-1.72019 3.52111,-3.26921 3.40372902,-2.81724 6.076585,-5.32693 6.076585,-5.70562 0,-0.11069 -0.743517,-0.5237 -1.652261,-0.91782 -3.366096,-1.45983 -8.27383,-4.78763 -10.03026,-6.80125 -0.830615,-0.95223 -1.3193098,-0.88176 -2.6381048,0.38046 -2.872132,2.74891 -5.226334,3.79672 -9.339728,4.15693 -2.628208,0.23015 -7.652566,0.01 -11.793812,-0.5177 -6.419618,-0.81741 -14.663587,-0.51232 -21.034374,0.77842 -4.969077,1.00675 -6.673218,1.56512 -10.295325,3.37328 -2.61058,1.30321 -2.998723,1.42444 -4.053968,1.2662 -1.293562,-0.19398 -2.187166,-0.90604 -2.187166,-1.74283 0,-0.66119 1.208068,-2.45138 2.422137,-3.58926 1.349094,-1.26444 4.731766,-3.27387 9.657898,-5.73715 6.745694,-3.37314 14.31369,-7.14539 15.187245,-7.57005 1.00725,-0.48966 0.988034,-0.95194 -0.05468,-1.31543 -2.219258,-0.77364 -5.896518,-0.10476 -11.721497,2.13211 -3.046597,1.16993 -3.635629,1.31316 -5.00947,1.2181 -1.694241,-0.11722 -2.27955,-0.56444 -2.27955,-1.74178 0,-1.44255 2.072545,-2.60246 7.540625,-4.22016 1.018645,-0.30136 4.650052,-1.37883 8.069791,-2.39437 10.040573,-2.98169 12.015467,-3.36355 16.260151,-3.14401 3.337427,0.17261 5.562879,0.60135 9.295984,1.79088 4.222199,1.34539 5.573857,2.01513 8.545416,4.23422 3.1382178,2.34356 3.4616438,2.42905 6.3704418,1.68385 1.05226,-0.26958 2.939548,-0.42776 5.37918202,-0.45085 4.05303498,-0.0384 4.75787798,0.10136 11.03424118,2.18733 5.163154,1.71599 6.623942,2.15898 6.83815,2.07369 0.371683,-0.14798 3.572518,-3.94416 5.088588,-6.03504 3.84445,-5.30207 6.491549,-8.63006 7.31307,-9.19415 1.482607,-1.01802 3.668822,-1.64757 5.123304,-1.47531 1.128232,0.13363 1.43701,0.29052 1.823946,0.92679 0.818177,1.34538 5.182185,14.84265 5.800156,17.93906 0.731597,3.66577 1.357946,6.55608 1.596405,7.3667 0.143091,0.48642 0.342101,2.35911 0.442245,4.16153 0.159733,2.87492 0.242675,3.29636 0.675801,3.43383 0.890412,0.2826 1.368532,1.68347 1.527976,4.4769 l 0.150566,2.63791 0.79375,-0.82862 c 0.436563,-0.45574 1.278047,-1.16655 1.869964,-1.57958 0.591918,-0.41303 1.663481,-1.18721 2.38125,-1.72041 l 1.305036,-0.96945 -0.231848,-3.92534 c -0.127516,-2.15894 -0.221944,-4.28253 -0.20984,-4.71909 0.05733,-2.06757 0.583432,-5.84927 1.209336,-8.69284 0.379721,-1.72513 0.870638,-4.46357 1.090927,-6.08542 0.220289,-1.62185 0.527312,-3.82041 0.682273,-4.88569 0.412867,-2.83822 0.520893,-12.21911 0.140669,-12.21548 -0.165147,0.002 -0.853514,0.17077 -1.529705,0.37599 -1.81095,0.54962 -7.506433,1.44145 -9.486187,1.4854 -0.945885,0.021 -4.636822,-0.0785 -8.202083,-0.2212 -6.554612,-0.26227 -7.857897,-0.47216 -9.328684,-1.50234 -0.338444,-0.23706 -1.146137,-0.4053 -1.945751,-0.4053 -1.548881,0 -5.455786,-0.66176 -6.452648,-1.09296 -0.363802,-0.15737 -1.554427,-0.33189 -2.645833,-0.38782 -2.731071,-0.13997 -3.217324,-0.27601 -4.202333,-1.17568 -0.471575,-0.43071 -1.064876,-0.78312 -1.318446,-0.78312 -0.481805,0 -2.5241782,-1.20274 -3.2130412,-1.89214 -0.219694,-0.21987 -0.94816,-0.47497 -1.618812,-0.56689 -1.491442,-0.20442 -5.87703498,-2.51881 -6.00193598,-3.16737 -0.07356,-0.38198 0.116079,-0.45902 1.12992998,-0.45902 1.491375,0 1.67242,-0.33482 1.095917,-2.02676 -0.476051,-1.39714 -0.554312,-2.88816 -0.164247,-3.12923 0.570192,-0.3524 1.345058,0.50021 2.369713,2.60748 1.204224,2.47656 1.997221,3.60685 2.530525,3.60685 0.197145,0 1.157928,0.41672 2.135074,0.92604 0.9771462,0.50932 2.0871252,0.92645 2.4666212,0.92695 0.379497,5e-4 1.569042,0.35911 2.643435,0.79692 1.343628,0.54752 2.052371,0.71391 2.270347,0.53301 0.31728,-0.26332 0.852759,-0.15724 7.502012,1.48616 1.799893,0.44486 3.106938,0.62531 3.836458,0.52967 0.60857,-0.0798 2.215391,-0.26776 3.570714,-0.41773 1.355323,-0.14997 2.545948,-0.32172 2.645833,-0.38167 0.09989,-0.0599 1.312704,-0.18937 2.695152,-0.28762 2.748367,-0.19532 5.052817,-0.44208 9.963244,-1.06687 1.769003,-0.22508 4.924159,-0.4367 7.011458,-0.47028 5.786187,-0.0931 7.308463,0.50764 8.91968,3.51979 1.009457,1.88716 2.882754,7.45686 3.111613,9.25146 0.104382,0.81852 -0.05956,2.05888 -0.524552,3.96875 -0.372013,1.52797 -0.869102,4.08781 -1.104642,5.68854 -0.593301,4.03208 -1.217513,6.10137 -3.051977,10.11743 -0.665192,1.45626 -0.656038,1.56181 0.286383,3.3018 0.439289,0.81106 1.013082,2.31881 1.275097,3.35055 0.262015,1.03175 0.54508,1.94459 0.629035,2.02855 0.08395,0.0839 1.069774,-0.50541 2.19071,-1.30969 1.120936,-0.80428 2.26439,-1.53416 2.541008,-1.62196 0.352634,-0.11192 0.505463,-0.41129 0.511377,-1.00169 0.01168,-1.16657 1.388955,-5.65218 1.929179,-6.28311 0.255054,-0.29789 0.443637,-0.96864 0.443637,-1.57794 0,-1.76752 1.335424,-7.51276 2.363054,-10.16626 0.28448,-0.73458 0.88891,-2.76434 1.34318,-4.51059 1.25039,-4.80665 1.33081,-4.96086 4.20818,-8.0698 0.606072,-0.65484 1.317362,-1.66687 1.580642,-2.24896 0.26327,-0.58208 0.92489,-1.63983 1.47026,-2.35056 l 0.99158,-1.29224 -0.68678,-1.35739 c -0.37773,-0.74657 -0.68678,-1.66952 -0.68678,-2.05099 0,-1.50701 -1.44376,-3.39208 -6.506192,-8.49497 -2.77805,-2.80024 -5.82851,-5.74619 -6.778812,-6.54655 -0.950302,-0.80037 -1.951577,-1.78243 -2.225056,-2.18235 -0.318002,-0.46504 -0.831035,-0.78789 -1.423276,-0.89567 -2.119444,-0.38571 -5.543991,-2.64353 -7.226551,-4.76449 l -1.200165,-1.51288 -0.0019,-2.66449 c -0.0018,-2.52277 0.235881,-4.10519 0.798842,-5.31917 0.175334,-0.3781 0.129538,-0.76922 -0.154077,-1.31589 -0.581492,-1.12082 -0.769248,-2.78424 -0.417901,-3.70236 0.291922,-0.76283 0.318441,-0.77374 0.680862,-0.28016 0.207411,0.28248 0.37711,0.89298 0.37711,1.35667 0,1.19269 0.616182,1.64771 1.166787,0.86161 0.231392,-0.33036 0.420713,-0.76148 0.420713,-0.95806 0,-0.63678 0.874855,-0.20833 1.128374,0.55261 0.196751,0.59055 0.109338,1.01557 -0.435339,2.11667 -0.374838,0.75776 -0.926596,2.31455 -1.226129,3.45954 -0.51928,1.98498 -0.524514,2.15109 -0.112544,3.57187 0.237634,0.81955 0.628526,1.82373 0.868648,2.23152 0.775392,1.31681 3.840183,2.67536 6.706623,2.9729 1.180837,0.12257 1.775527,0.36233 2.756487,1.11135 0.687946,0.52529 1.855861,1.32127 2.595364,1.76886 0.73951,0.44758 1.64221,1.02446 2.00602,1.28194 0.3638,0.25748 1.77303,1.19849 3.13162,2.09112 2.05174,1.34806 3.329052,2.53771 7.540622,7.0231 5.30544,5.65037 6.25749,6.87862 6.25973,8.07573 7.5e-4,0.39862 0.23942,1.35112 0.53039,2.11667 0.70054,1.84312 0.6843,2.07091 -0.41578,5.83288 -1.78372,6.09981 -2.72349,8.40699 -4.77421,11.72081 -0.63793,1.03086 -1.15987,1.96894 -1.15987,2.08463 0,0.11569 -0.60007,1.09089 -1.33349,2.16711 -1.42061,2.08462 -2.94679,4.96454 -3.57606,6.74808 -0.29447,0.83463 -0.31956,1.32459 -0.10804,2.11011 0.15151,0.56269 0.37813,1.02307 0.5036,1.02307 0.12546,0 0.86501,-0.29649 1.64344,-0.65887 0.77844,-0.36238 1.57892,-0.66004 1.77886,-0.66146 0.19993,-0.001 0.83569,-0.53901 1.4128,-1.19464 2.09894,-2.38452 7.9841,-6.61197 11.34035,-8.14604 0.52021,-0.23778 1.80842,-1.38763 2.86269,-2.55522 3.114623,-3.44938 8.287813,-7.0609 12.903553,-9.00824 1.18994,-0.50202 1.8894,-1.00149 2.43854,-1.7413 2.24998,-3.0312 4.45302,-4.80929 8.76293,-7.07262 4.02099,-2.11162 6.40888,-2.93277 10.05416,-3.45747 1.75242,-0.25224 3.51078,-0.70519 4.7625,-1.22679 4.81278,-2.00554 10.99684,-2.98442 19.13275,-3.02855 3.88357,-0.0211 6.10071,-0.1317 6.21771,-0.31024 0.10001,-0.15262 1.31293,-1.13427 2.69538,-2.18143 2.7507,-2.08358 5.38864,-3.47171 6.59746,-3.47171 0.88742,0 0.95291,-0.13535 1.31507,-2.71777 0.35313,-2.51799 2.04362,-5.19509 5.51604,-8.73534 1.34166,-1.36788 2.03218,-1.864 2.89767,-2.08193 0.62494,-0.15737 1.13626,-0.31697 1.13626,-0.35469 0,-0.0377 -0.17239,-0.48116 -0.38309,-0.98543 -0.50018,-1.19708 -0.0998,-2.99147 1.62613,-7.28763 1.64973,-4.10654 3.43273,-6.74594 4.9218,-7.28581 0.2048,-0.0743 0.07,-0.38565 -0.37995,-0.87752 -1.36421,-1.49141 -1.6303,-2.36291 -1.42834,-4.67813 0.10101,-1.15794 0.28913,-2.35795 0.41806,-2.66669 0.12892,-0.30875 0.35772,-1.05104 0.50844,-1.64954 0.15073,-0.5985 0.55906,-1.50818 0.90741,-2.0215 l 0.63337,-0.93332 -0.75112,-2.12258 c -0.41312,-1.16741 -1.17457,-2.96344 -1.69213,-3.99116 -0.61292,-1.21711 -0.941,-2.23988 -0.941,-2.93353 0,-0.58571 -0.12689,-1.06494 -0.28198,-1.06494 -0.5874,0 -1.30552,0.56648 -1.30552,1.02984 0,1.03505 -1.66843,6.3029 -2.31349,7.30454 -0.78276,1.21547 -2.45761,3.26211 -4.56078,5.57322 -0.82404,0.90551 -2.08908,2.7905 -2.90393,4.32703 -1.60663,3.02955 -1.76349,3.14782 -5.96451,4.49706 -1.01865,0.32716 -2.09021,0.80126 -2.38125,1.05356 -0.85401,0.74033 -1.93342,1.35017 -2.38977,1.35017 -0.69165,0 -0.20167,-1.0364 1.19162,-2.52053 1.71582,-1.82768 1.88385,-2.22876 1.91284,-4.56574 0.0286,-2.30531 -0.38704,-3.99617 -1.90026,-7.7304 -1.81318,-4.47441 -2.11593,-6.48523 -1.52123,-10.10376 0.17725,-1.07852 1.6689,-3.23484 3.21217,-4.64351 1.81438,-1.65613 5.312,-3.3734 7.76051,-3.81027 1.88235,-0.33585 1.92506,-0.36138 2.441,-1.45899 0.76005,-1.61695 2.01731,-2.93647 3.5568,-3.73296 1.15292,-0.59648 1.68944,-0.69874 3.72799,-0.71061 2.08843,-0.0122 2.58649,0.0809 4.0503,0.75679 1.03489,0.47785 2.05285,1.20668 2.67919,1.91823 0.78328,0.88986 1.1944,1.14758 1.83064,1.14758 2.12377,0 7.75295,3.07849 9.02574,4.936 0.59802,0.87276 0.87656,1.93389 1.89912,7.23484 0.94199,4.88325 1.12254,6.65411 1.11952,10.98021 -0.003,3.65917 -0.0816,4.4633 -0.58269,5.92893 -0.96277,2.81592 -1.61501,3.90255 -2.66116,4.43352 -0.52607,0.267 -1.00538,0.5145 -1.06512,0.54999 -0.0597,0.0355 0.0752,0.27361 0.29988,0.52916 1.29794,1.47633 1.64947,6.20611 0.72281,9.72506 -0.80357,3.05148 -2.29633,7.23639 -3.02481,8.47999 -0.77124,1.31657 -2.74572,2.45794 -4.64018,2.68231 -1.10023,0.13031 -1.31377,0.23693 -1.16963,0.58398 0.47528,1.14434 0.63086,2.42979 0.47912,3.95877 -0.14306,1.4415 -0.36004,1.97137 -1.51686,3.70416 -1.83784,2.7529 -6.99021,7.69077 -8.66321,8.30256 -0.29239,0.10693 -0.4719,0.623 -0.57957,1.66626 -0.20693,2.00493 -1.26978,3.57982 -4.82184,7.14482 -2.58055,2.58995 -2.77396,2.85665 -2.77396,3.82516 0,1.99059 -0.83546,7.01345 -1.6157,9.71367 -0.91067,3.15166 -1.92822,5.52358 -3.26827,7.61842 -0.52312,0.81777 -1.65066,2.93805 -2.50564,4.71172 -1.19048,2.46966 -1.8722,3.53465 -2.9111,4.54777 -0.74612,0.7276 -2.03768,2.33295 -2.87013,3.56744 -1.78721,2.65037 -2.17261,3.0755 -4.95312,5.46368 -3.25858,2.79881 -4.41399,3.68819 -5.97206,4.59701 -1.39195,0.81192 -3.68523,2.81383 -3.68523,3.21701 0,0.20281 4.31149,5.32086 6.09225,7.23194 1.34854,1.44724 4.65612,5.20723 7.79706,8.86355 2.25621,2.62642 3.42381,3.81402 6.63723,6.75095 0.53394,0.48799 0.80475,0.51802 3.19147,0.35384 1.43442,-0.0987 2.84616,-0.12494 3.1372,-0.0584 0.29104,0.0666 1.06495,-0.0728 1.71979,-0.30961 2.09454,-0.75758 4.07745,-1.21064 4.65934,-1.0646 0.35335,0.0887 1.21715,-0.20405 2.30396,-0.78079 1.90215,-1.00942 2.68446,-1.14472 2.92932,-0.50663 0.21502,0.56034 -0.24636,1.41188 -1.25421,2.3148 -0.5194,0.46533 -0.71364,0.79583 -0.51575,0.87752 0.68385,0.28231 1.66692,1.21221 1.66692,1.57677 0,0.65357 -1.08273,0.85544 -2.77148,0.51673 -1.28074,-0.25688 -1.70768,-0.24999 -2.24896,0.0363 -0.48303,0.25549 -1.25443,0.30738 -2.78477,0.18732 -2.00736,-0.15748 -2.15082,-0.13221 -2.77812,0.48934 -1.70755,1.6919 -3.36719,1.91268 -5.46753,0.72732 -1.24871,-0.70473 -1.53215,-0.76774 -2.48767,-0.55305 -0.97764,0.21966 -1.73332,0.12794 -2.90932,-0.35313 -0.22741,-0.093 -2.72772,-2.62833 -5.55625,-5.634 -2.82852,-3.00566 -7.66108,-8.02523 -10.739,-11.1546 l -5.59623,-5.68975 -0.72669,0.86362 c -1.60277,1.90478 -12.16422,9.29334 -13.28421,9.29334 -0.28085,0 -0.80201,1.96818 -1.37548,5.19453 l -0.28841,1.62265 1.61995,3.40443 c 0.89097,1.87244 1.85348,3.99975 2.13891,4.72735 1.04577,2.6658 1.45488,3.54159 4.12356,8.82723 2.10772,4.17461 2.96156,6.20006 3.79226,8.99584 1.42971,4.81181 2.19383,6.63872 3.8379,9.17587 1.64812,2.54339 1.77488,2.65793 3.58453,3.23881 0.99711,0.32006 1.50878,0.65175 1.7351,1.12477 0.2527,0.52818 0.75138,0.79747 2.34493,1.2663 l 2.02397,0.59547 1.70207,-0.93558 c 1.84511,-1.0142 2.60039,-1.15757 2.83787,-0.5387 0.34504,0.89916 -0.54328,1.93323 -2.41078,2.80633 -0.61847,0.28915 -1.12448,0.64305 -1.12448,0.78645 0,0.1434 -0.26789,0.36144 -0.59531,0.48453 -0.71599,0.26916 -2.25845,-0.28188 -3.70834,-1.32478 -0.7872,-0.56624 -1.20376,-0.68984 -1.98437,-0.58882 -0.76258,0.0987 -1.35025,-0.0638 -2.57552,-0.71192 -0.87313,-0.46188 -1.71123,-0.99568 -1.86245,-1.18622 -0.15123,-0.19054 -0.55573,-0.38778 -0.89889,-0.4383 -0.49159,-0.0724 -0.92341,-0.66895 -2.03569,-2.81235 -0.77647,-1.49628 -1.81452,-3.13521 -2.30678,-3.64208 -0.49226,-0.50686 -1.43581,-1.96154 -2.09678,-3.23262 -0.66098,-1.27108 -2.04845,-3.9184 -3.08329,-5.88293 -2.87601,-5.45982 -8.16457,-16.2182 -8.36496,-17.0166 -0.0981,-0.39077 -0.25946,-0.71049 -0.35864,-0.71049 -0.0992,0 -0.51078,0.56554 -0.91469,1.25677 -0.4039,0.69122 -1.44323,1.97114 -2.30961,2.84427 l -1.57525,1.5875 -3.63295,0.0303 c -1.99812,0.0167 -3.95738,0.0464 -4.35392,0.0661 -0.52428,0.0261 -1.384,0.6796 -3.1512,2.39541 -1.91641,1.8607 -2.79885,2.513 -4.17381,3.08528 -0.95898,0.39915 -2.82062,1.17897 -4.136983,1.73295 -2.51403,1.05799 -6.17562,1.80979 -7.96083,1.63453 -1.82232,-0.17891 -4.06725,-0.93353 -5.18417,-1.74262 -0.92187,-0.6678 -1.36078,-0.79752 -2.8305,-0.83655 -1.33336,-0.0354 -2.14169,-0.23768 -3.4624,-0.86641 -0.947622,-0.45112 -1.925342,-1.04388 -2.172722,-1.31723 -0.63244,-0.69884 -1.28679,-2.35855 -1.11075,-2.81732 0.25183,-0.65625 -0.21281,-0.66167 -2.32932,-0.0272 -1.12424,0.33701 -2.5786,0.69291 -3.231905,0.79088 l -1.187829,0.17813 0.504347,0.9886 c 0.564106,1.10574 1.858417,5.51605 1.858417,6.33248 0,0.29033 0.14883,0.6242 0.33073,0.74193 0.1819,0.11773 4.67651,0.21405 9.988022,0.21405 h 9.65729 l 1.85209,0.75529 c 1.01864,0.41541 2.13202,1.01072 2.47417,1.32292 0.68494,0.62498 2.38528,3.8143 2.70062,5.06554 0.11002,0.43656 0.45475,1.74625 0.76606,2.91042 0.311323,1.16417 0.738163,4.02167 0.948543,6.35 0.21039,2.32833 0.50164,5.50161 0.64723,7.05173 0.18459,1.96541 0.17821,3.24663 -0.0211,4.23333 -0.15718,0.77822 -0.30034,1.534 -0.31814,1.67952 -0.0178,0.14552 0.0742,1.75287 0.20441,3.57188 0.20707,2.89244 0.25446,4.9378 0.16397,7.0776 -0.0139,0.32742 -0.24441,0.81455 -0.51236,1.0825 -0.50315,0.50316 -1.100313,2.43688 -1.100313,3.56305 0,0.35249 -0.21946,0.92485 -0.48769,1.2719 -0.67615,0.87484 -1.18779,4.31831 -1.14064,7.67675 0.0302,2.15349 -0.0492,2.88603 -0.33901,3.12656 -0.29989,0.24888 -0.48589,0.20674 -0.89552,-0.20289 -0.28436,-0.28435 -0.63384,-0.72576 -0.77662,-0.98089 -0.34139,-0.61003 -0.7731,-0.31225 -1.26941,0.8756 -0.435,1.04108 -1.11516,1.90982 -1.49526,1.90982 -0.37607,0 0.0721,-3.17104 0.65445,-4.63021 0.29037,-0.7276 0.50915,-1.79917 0.48619,-2.38125 -0.023,-0.58208 0.17686,-1.89177 0.44405,-2.91042 0.33423,-1.27425 0.43738,-2.30609 0.33061,-3.30729 -0.0854,-0.80036 -0.0553,-1.93146 0.0668,-2.51354 0.12208,-0.58208 0.15666,-1.41552 0.0768,-1.85208 -0.11607,-0.63481 0.20213,-1.42954 1.58903,-3.96875 1.25694,-2.30128 1.83322,-3.68377 2.09413,-5.0238 0.19798,-1.01684 0.33863,-1.86541 0.31257,-1.88571 -0.0821,-0.064 -2.29818,-1.2516 -4.38671,-2.35091 -2.41534,-1.27133 -2.9581,-2.13754 -3.14281,-5.0157 -0.11873,-1.8502 0.17024,-3.2899 1.67516,-8.34576 0.65456,-2.19902 1.2564,-5.49628 1.08483,-5.94338 -0.1246,-0.32469 -0.32947,-0.3907 -0.76665,-0.24699 -1.4776,0.48571 -10.43496,-0.49587 -13.66453,-1.4974 -2.123242,-0.65844 -8.787432,-2.10181 -9.704299,-2.10181 -0.363554,0 -1.248404,-0.29766 -1.966333,-0.66146 -0.717929,-0.3638 -1.657336,-0.66146 -2.087571,-0.66146 -1.539258,0 -3.077654,-1.94758 -4.361792,-5.52196 -0.346597,-0.96474 -0.715977,-2.26812 -0.820842,-2.89639 -0.104866,-0.62827 -0.247198,-1.08577 -0.316294,-1.01668 -0.0691,0.0691 -0.180263,0.99985 -0.247038,2.06835 -0.156634,2.50635 -0.51731,3.81597 -1.178483,4.27907 -0.519279,0.36372 -0.512343,0.39149 0.337491,1.35139 0.477216,0.53903 1.284756,1.23452 1.794535,1.54554 0.509778,0.31102 2.369966,1.65934 4.133751,2.99627 1.763785,1.33693 3.454365,2.56323 3.756844,2.72512 0.786119,0.42071 3.406189,3.84867 4.309789,5.63869 0.4805,0.95186 0.8567,2.23795 1.00719,3.44321 0.13212,1.05812 0.60628,2.91008 1.05369,4.11547 1.2547,3.38034 1.45236,5.12911 0.84696,7.49355 -0.94677,3.69773 -1.37851,4.96875 -1.99772,5.88121 -0.34129,0.50292 -0.81273,1.552 -1.04765,2.3313 -0.55736,1.84892 -0.9829,2.57437 -1.73429,2.95655 -0.39632,0.20158 -0.87967,0.96958 -1.362251,2.16452 -1.159541,2.87118 -0.982029,4.23987 0.699311,5.39194 1.41587,0.97017 2.24145,1.81891 2.24145,2.30431 0,0.37429 -0.18612,0.41996 -1.16483,0.28581 -0.64066,-0.0878 -1.31269,-0.19329 -1.493403,-0.2344 -0.180711,-0.0411 -0.435838,0.3199 -0.56695,0.80224 -0.336454,1.23778 -1.034757,1.02018 -1.543884,-0.48109 -0.221895,-0.6543 -0.625563,-1.52168 -0.897041,-1.9275 -0.377877,-0.56487 -0.502326,-1.2782 -0.530838,-3.0427 -0.03336,-2.06481 0.04465,-2.4702 0.749025,-3.89236 0.611661,-1.23496 0.77217,-1.8874 0.722787,-2.93797 -0.05296,-1.12669 0.0786,-1.57904 0.793925,-2.72976 0.849241,-1.36614 0.853075,-1.38731 0.402677,-2.22365 -0.432446,-0.80301 -0.428665,-1.02173 0.07717,-4.4639 0.62578,-4.25834 1.529262,-8.57416 1.928882,-9.21405 0.42443,-0.67963 0.11635,-1.14607 -1.02388,-1.55016 -1.332643,-0.47228 -3.717,-1.9131 -6.1181,-3.69706 -1.414695,-1.05108 -2.527115,-2.23174 -4.241812,-4.502 -2.835006,-3.75355 -5.036268,-7.11862 -5.45676,-8.34175 -0.172589,-0.50203 -0.606122,-1.14949 -0.963405,-1.4388 -0.601539,-0.48709 -0.661714,-0.75357 -0.813239,-3.6014 -0.09,-1.69146 -0.209305,-3.12105 -0.265126,-3.17687 -0.05582,-0.0558 -0.401934,-0.1769 -0.769141,-0.26906 -0.584781,-0.14677 -0.740649,-0.0263 -1.255794,0.97068 -1.228027,2.37663 -2.60702,4.31493 -3.499668,4.91911 -0.953368,0.64528 -0.966552,0.71049 -0.504096,2.49314 l 0.254837,0.98233 1.694861,-0.0289 c 1.471536,-0.0251 1.862752,0.0791 2.969019,0.7907 1.268784,0.81612 3.032199,2.5226 4.427968,4.28498 0.403372,0.50933 2.24502,2.48 4.092552,4.37928 1.847531,1.89928 3.548809,3.86381 3.780618,4.36563 0.231809,0.50181 0.485082,1.76739 0.562828,2.81239 0.10276,1.38122 0.299621,2.11406 0.720984,2.68399 0.51704,0.69933 0.594745,1.21051 0.719633,4.73401 0.179706,5.07007 -0.0454,5.82468 -2.518266,8.4418 -1.929971,2.04255 -5.478527,4.60417 -7.111217,5.13342 -1.720422,0.55768 -3.830766,1.71616 -6.046776,3.31939 -1.164166,0.84225 -2.720994,1.78099 -3.459616,2.08609 -0.738623,0.3051 -1.974567,1.05763 -2.746542,1.67228 -0.771975,0.61466 -1.523714,1.11756 -1.67053,1.11756 -0.146817,0 -1.232592,0.63435 -2.412834,1.40967 -1.180242,0.77532 -2.985686,1.72928 -4.012099,2.11992 -1.185578,0.45121 -2.633027,1.31504 -3.968749,2.36853 -3.048041,2.40399 -6.177981,4.17799 -9.479983,5.37308 -0.56509,0.20453 -3.482122,0.67329 -6.482291,1.0417 -3.00017,0.3684 -6.326936,0.84721 -7.3928132,1.06401 -1.425333,0.28991 -3.559939,0.38469 -8.069792,0.3583 -3.690179,-0.0216 -6.711287,0.0837 -7.587041,0.26434 -0.800365,0.16512 -2.645834,0.36307 -4.1010418,0.43987 -2.349091,0.12399 -2.843801,0.0676 -4.410969,-0.50247 z m 6.6599268,-0.20718 c 0.654844,-0.14855 4.702969,-0.37236 8.99583402,-0.49735 4.29286398,-0.12499 8.28145798,-0.35276 8.86354098,-0.50616 0.9682322,-0.25517 3.1794232,-0.57129 6.6145832,-0.94567 5.425398,-0.59127 6.730843,-0.91593 9.761463,-2.42766 2.898552,-1.44585 6.774995,-4.0989 6.774995,-4.63683 0,-0.0649 -0.978212,0.0477 -2.173806,0.25025 -2.335145,0.39559 -4.440777,0.24769 -4.440777,-0.31193 0,-0.24674 0.807227,-0.38642 2.93745,-0.50831 1.827896,-0.10458 3.951625,-0.43319 5.622395,-0.86996 2.853967,-0.74608 4.058795,-1.26729 5.318669,-2.30086 l 0.781639,-0.64123 -0.816269,-0.42211 c -1.047186,-0.54152 -2.202217,-1.91278 -2.202217,-2.61448 0,-0.31882 -0.808795,-1.38168 -1.947587,-2.55938 -1.071172,-1.10777 -2.402504,-2.52877 -2.958514,-3.15777 -1.132932,-1.28166 -2.200773,-1.89563 -4.395037,-2.52698 -2.819447,-0.81124 -4.118378,-0.46029 -8.293654,2.2408 -5.742445,3.71494 -6.94798,4.20762 -10.2960772,4.20781 -2.497627,1.4e-4 -8.308514,-0.91706 -12.590381,-1.98729 -3.524688,-0.88097 -5.049981,-1.04442 -5.638005,-0.60416 -1.278826,0.95747 1.688576,3.93572 5.521704,5.54189 2.90486502,1.21721 13.1521482,3.66428 15.3444492,3.66428 0.443081,0 0.918712,0.11141 1.056956,0.24757 0.404322,0.39825 4.240547,1.33966 5.472011,1.34284 1.557126,0.004 3.113718,0.2844 3.113718,0.56087 0,0.52001 -4.510221,0.23456 -6.89696,-0.4365 -2.246852,-0.63172 -2.413721,-0.64405 -3.201926,-0.23645 -0.457348,0.2365 -1.080867,0.66411 -1.385598,0.95024 -0.7900432,0.74182 -3.8041572,2.13595 -7.0363492,3.25454 -3.60411998,1.24732 -7.918796,1.97451 -12.7,2.14047 -4.0004528,0.13885 -7.4928308,0.53383 -8.2443638,0.93241 -0.971182,0.51508 0.174474,1.74773 2.236646,2.40649 0.738555,0.23593 3.489984,0.61139 5.0816768,0.69344 0.291041,0.015 1.064948,-0.0943 1.719791,-0.24282 z m 32.1326272,-9.25491 c -0.272659,-0.44117 0.340574,-0.94708 0.705569,-0.58208 0.305309,0.30531 0.114226,0.86972 -0.294446,0.86972 -0.128344,0 -0.31335,-0.12944 -0.411123,-0.28764 z m 70.859874,2.73503 c 0.32553,-0.69122 0.71094,-1.34647 0.85646,-1.4561 0.14657,-0.11043 0.64836,0.2436 1.12504,0.79375 1.1308,1.30509 1.47486,0.88284 1.23891,-1.52046 -0.20008,-2.03796 -0.26554,-2.18059 -0.85486,-1.86264 -0.24792,0.13375 -0.77601,0.31163 -1.17355,0.39529 -0.86379,0.18177 -1.38048,1.08109 -1.89959,3.30632 -0.44759,1.91867 -0.11108,2.08219 0.70759,0.34384 z m 2.23116,-4.55243 c 0.87059,-0.53083 0.93647,-0.71594 1.25183,-3.51736 l 0.14147,-1.25677 h -1.04396 c -1.22007,0 -1.41029,0.25416 -1.9628,2.62254 -0.6065,2.59987 -0.14062,3.22113 1.61346,2.15159 z m -26.769436,-1.09394 c 0.151584,-0.69016 0.26838,-0.78905 0.748627,-0.63388 0.312967,0.10113 0.981097,0.24694 1.484737,0.32403 0.89271,0.13665 0.906,0.12561 0.52917,-0.43958 -0.2126,-0.31886 -0.81625,-0.82488 -1.34143,-1.12448 l -0.954888,-0.54473 -0.698762,0.60756 c -0.679468,0.59079 -0.865861,1.35633 -0.538164,2.21029 0.25278,0.65874 0.575004,0.49183 0.77071,-0.39921 z m -0.555294,-2.17701 c 0.435245,-0.31826 0.447608,-0.48093 0.140759,-1.85208 -0.291811,-1.30395 -0.418486,-1.50318 -0.955752,-1.50318 -0.512429,0 -0.627723,0.14845 -0.667823,0.85989 -0.149194,2.64694 0.282352,3.37317 1.482816,2.49537 z m -25.734902,-0.87108 c 0.632232,-0.52547 1.181058,-1.03683 1.219615,-1.13635 0.136374,-0.352 -1.649628,-1.93108 -2.901812,-2.56561 -0.698133,-0.35377 -1.269332,-0.76028 -1.269332,-0.90335 0,-0.57124 -0.494239,-0.21182 -0.761005,0.55342 -0.155982,0.44745 -0.584348,1.17096 -0.951925,1.6078 -0.367576,0.43684 -0.66832,0.95444 -0.66832,1.15022 0,0.19577 0.497681,0.78195 1.105958,1.30261 1.518203,1.29953 2.655582,1.29718 4.226821,-0.009 z m 54.992002,-1.55787 c 0.18103,-0.21813 0.47286,-1.16138 0.64852,-2.0961 l 0.31937,-1.69949 -1.74061,-0.0979 c -0.95733,-0.0539 -1.85194,-0.005 -1.98802,0.10778 -0.40517,0.3369 -0.5231,3.33527 -0.14891,3.78614 0.43709,0.52666 2.47246,0.52638 2.90965,-3.9e-4 z m -51.453044,-0.40026 c 0.387256,-0.14724 1.198679,-0.66282 1.803161,-1.14574 0.604483,-0.48292 1.515778,-1.12782 2.025101,-1.43311 2.27251,-1.36214 4.684285,-2.65702 5.291667,-2.84108 2.287513,-0.69322 7.651199,-5.17642 8.745369,-7.30976 0.570869,-1.11304 0.797774,-4.53485 0.505493,-7.62304 -0.219655,-2.32084 -0.723914,-2.92749 -2.433404,-2.92749 -0.913484,0 -1.015512,-0.0553 -0.732042,-0.39687 0.181158,-0.21829 0.688428,-0.39688 1.127268,-0.39688 h 0.797891 l -0.180692,-1.78594 c -0.224902,-2.22291 -0.566965,-2.74588 -4.369697,-6.68073 -1.617302,-1.67349 -3.682545,-3.91348 -4.58943,-4.97777 -0.906884,-1.06428 -2.244194,-2.37207 -2.971798,-2.90619 -1.140768,-0.83742 -1.541495,-0.97827 -2.910416,-1.02303 -1.415833,-0.0463 -1.673334,0.0291 -2.38125,0.69686 -1.122874,1.05923 -4.101727,2.9285 -4.935441,3.09705 -1.70049,0.34379 -0.879774,3.04241 2.017698,6.63444 1.085791,1.34607 1.926173,2.44739 1.867515,2.44739 -0.05866,0 0.191807,0.32743 0.556588,0.72761 0.364781,0.40018 1.561335,1.88473 2.659009,3.29899 1.885301,2.42906 3.925525,4.17549 4.877911,4.17549 0.210303,0 1.182624,-0.42494 2.160713,-0.94431 0.984457,-0.52275 2.043627,-0.90217 2.372591,-0.84993 0.449746,0.0714 0.0152,0.39037 -1.787001,1.31162 -1.309688,0.66948 -2.619375,1.48357 -2.910417,1.80906 -0.540822,0.60486 -2.6766,2.13309 -6.720855,4.80905 -4.99201,3.30305 -5.383342,3.72429 -6.14108,6.61045 -0.820131,3.12382 -0.583875,4.09847 1.184532,4.88668 0.601738,0.2682 1.57032,0.91666 2.152403,1.44102 0.855728,0.77086 1.883832,1.50948 2.165589,1.55581 0.02691,0.004 0.365767,-0.11242 0.753024,-0.25965 z m 12.617235,-22.79193 c 0.137328,-0.41198 0.729259,-0.48413 0.750003,-0.0914 0.0077,0.14552 -0.18462,0.30572 -0.427347,0.35599 -0.275885,0.0572 -0.396838,-0.042 -0.322656,-0.26458 z m 9.661966,21.40598 c 0.251673,-0.32077 1.128228,-2.74878 1.128228,-3.12513 0,-0.10262 -0.236529,-0.24844 -0.525621,-0.32404 -0.418547,-0.10945 -0.720028,0.18258 -1.479973,1.43358 -0.524894,0.86407 -0.887414,1.74548 -0.8056,1.95868 0.181698,0.4735 1.325769,0.51219 1.682966,0.0569 z m 31.077486,-3.37113 c 0.37644,-0.46488 0.47783,-1.06436 0.47783,-2.8252 0,-2.15748 -0.44001,-6.94589 -0.71312,-7.76044 -0.0732,-0.21828 -0.45964,0.68244 -0.858803,2.00161 -0.39916,1.31916 -1.4245,3.71358 -2.27853,5.32092 -1.37033,2.57903 -1.50682,2.96842 -1.16155,3.31368 0.58359,0.5836 1.03006,0.68772 2.61594,0.61006 1.11784,-0.0547 1.547403,-0.20268 1.918233,-0.66063 z m -29.156205,-0.70331 c 0.68666,-0.13733 0.95254,-0.38969 1.32407,-1.25677 0.94033,-2.19454 0.91421,-2.37595 -0.43663,-3.03224 -0.66842,-0.32474 -1.2355,-0.55523 -1.26017,-0.51219 -0.0247,0.043 -0.367312,0.51659 -0.761429,1.05235 -1.040652,1.41466 -1.308088,2.25077 -0.94224,2.94582 0.511538,0.97185 0.757228,1.06686 2.076399,0.80303 z m 3.29617,-5.9893 c 0.3703,-0.7431 0.67328,-1.51007 0.67328,-1.70437 0,-0.1943 0.24716,-1.08697 0.54926,-1.98372 0.9533,-2.82983 0.71163,-5.47959 -0.80496,-8.82595 -0.66125,-1.45903 -0.80501,-1.60954 -1.53742,-1.60954 -0.92316,0 -1.14811,0.35447 -1.74396,2.74807 -0.5426,2.17972 -1.604743,10.24144 -1.414602,10.73694 0.225617,0.58794 2.827382,2.28811 3.252102,2.12513 0.19416,-0.0745 0.65599,-0.74346 1.0263,-1.48656 z m 25.828905,-5.51828 c 0.36292,-0.67814 0.36315,-4.55524 3.9e-4,-6.89175 -0.14255,-0.9182 -0.38568,-3.29509 -0.54029,-5.28197 -0.178,-2.28758 -0.562803,-4.71354 -1.049193,-6.61458 -1.10889,-4.33405 -1.18509,-4.46462 -1.9449,-3.3328 -0.2198,0.32742 -0.62865,0.83507 -0.90855,1.12812 -0.27989,0.29304 -0.76588,1.5432 -1.07995,2.77812 -0.31408,1.23493 -0.87889,3.31688 -1.25514,4.62657 -0.37625,1.30969 -0.86887,3.03609 -1.09472,3.83646 -0.47877,1.69667 -0.34199,5.67979 0.22646,6.59488 0.1923,0.30956 1.12862,0.95905 2.0807,1.44331 0.95208,0.48426 2.20224,1.18849 2.77812,1.56495 1.31492,0.85957 2.376313,0.9162 2.787073,0.14869 z m 52.11529,-7.78261 c 0.50692,-0.61081 -0.55836,-1.51607 -2.59332,-2.20378 -1.99332,-0.67363 -1.91718,-0.66981 -1.91717,-0.0962 2e-5,0.78256 2.62423,2.60778 3.8702,2.69185 0.16409,0.0111 0.45222,-0.16529 0.64029,-0.3919 z m 3.26066,-2.1958 c 0.61027,-0.67481 0.40964,-1.37501 -0.33797,-1.1795 -0.29517,0.0772 -0.67422,0.30607 -0.84233,0.50863 -0.16811,0.20255 -0.42112,0.36828 -0.56225,0.36828 -0.14113,0 -0.53606,0.21982 -0.87762,0.4885 -0.56842,0.44712 -0.58528,0.52423 -0.19906,0.91044 0.38621,0.38622 0.5025,0.38085 1.37303,-0.0635 0.5231,-0.26698 1.17389,-0.73178 1.4462,-1.03289 z m -81.865245,0.12255 c 0.35169,-0.92501 -0.27971,-3.31156 -1.34206,-5.07267 -0.95653,-1.5857 -3.557077,-4.61289 -3.962757,-4.61289 -0.134246,0 -1.523241,-0.99315 -3.086654,-2.20701 -1.563414,-1.21385 -3.322847,-2.50879 -3.909852,-2.87763 -0.587005,-0.36884 -1.719355,-1.26657 -2.516334,-1.99497 -1.368958,-1.25115 -1.507397,-1.31447 -2.504594,-1.14565 -0.906925,0.15353 -1.045852,0.26547 -0.986731,0.79503 0.05741,0.5142 1.729855,3.15541 5.850383,9.23918 2.148381,3.17199 9.152914,8.11868 12.012879,8.48365 0.11274,0.0144 0.31332,-0.25878 0.44572,-0.60704 z m 73.183455,-0.26002 c 0.34665,-1.38118 0.0737,-1.78244 -1.63097,-2.39798 l -1.61557,-0.58336 -0.56724,0.63684 c -0.77006,0.86453 -0.72943,1.01203 0.49108,1.78251 0.58209,0.36745 1.05851,0.7559 1.05872,0.86321 2.2e-4,0.10732 0.47353,0.22755 1.05181,0.26718 0.9198,0.063 1.07155,-0.008 1.21217,-0.5684 z m -4.72881,-2.32791 c 0.85874,-0.80675 0.76935,-1.48102 -0.44553,-3.36069 l -1.05789,-1.63676 -0.86034,0.60266 c -0.47318,0.33147 -0.89961,0.6225 -0.94762,0.64675 -0.048,0.0242 0.0852,0.32231 0.29594,0.66235 0.21078,0.34005 0.65892,1.30288 0.99587,2.13963 0.67082,1.66583 1.05957,1.84794 2.01957,0.94606 z m -2.61555,-5.03388 c 0.42093,-0.42093 0.39911,-1.23961 -0.0563,-2.11254 -0.2038,-0.39064 -0.6847,-1.81939 -1.06867,-3.175 -0.38397,-1.35561 -0.8915,-3.11959 -1.12785,-3.91996 -0.23635,-0.80036 -1.6484,-3.89599 -3.1379,-6.87916 -2.65308,-5.31363 -3.81676,-7.7678 -3.81676,-8.04943 0,-0.39097 -3.62225,-7.93385 -4.56974,-9.51591 -1.03085,-1.72126 -1.10558,-1.78748 -1.34362,-1.19062 -0.13864,0.3476 -0.60813,1.43404 -1.04331,2.41432 l -0.79125,1.78232 0.86726,2.45101 c 0.477,1.34806 1.22065,3.22492 1.65257,4.17081 1.20862,2.64688 5.46928,11.12195 5.90163,11.73921 0.21164,0.30215 0.38479,0.82053 0.38479,1.15195 0,0.33142 0.0996,0.60259 0.22133,0.60259 0.2289,0 1.70154,2.68141 3.6491,6.64436 0.76318,1.55295 1.47798,2.58528 2.24422,3.24115 1.20886,1.03474 1.53978,1.13964 2.03452,0.6449 z m -44.821143,-3.9055 c 0.36686,-0.13948 0.97664,-0.72147 1.35507,-1.29331 0.64623,-0.97651 0.66518,-1.09376 0.31191,-1.92889 -0.52727,-1.24642 -1.08353,-1.64291 -3.41894,-2.43695 -1.94677,-0.6619 -2.30446,-0.69495 -7.54062,-0.69667 -3.0233,-0.001 -7.543392,0.0476 -10.044642,0.10803 l -4.54772,0.10985 -1.339255,0.87675 c -0.73659,0.48222 -1.339255,0.95522 -1.339255,1.05113 0,0.23918 0.697117,0.48603 1.829281,0.64776 2.961029,0.42296 8.326359,1.64402 10.606141,2.41378 0.65484,0.2211 2.50031,0.56761 4.10104,0.77002 1.60073,0.2024 3.56526,0.47938 4.36562,0.61549 1.62662,0.27664 4.64249,0.15039 5.66137,-0.23699 z m -50.996236,-1.48509 c 1.231667,-0.81111 2.306826,-1.65048 2.389241,-1.86525 0.08241,-0.21477 -4.97e-4,-1.09894 -0.184251,-1.96482 -0.299828,-1.41286 -0.401815,-1.57434 -0.994317,-1.57434 -0.675203,0 -2.154256,-0.77001 -3.107893,-1.618 -0.51416,-0.4572 -0.570646,-0.45303 -1.5875,0.11717 -0.579904,0.32518 -1.204045,0.90317 -1.38698,1.28442 -0.800659,1.66863 -1.125471,5.5894 -0.527286,6.36484 0.181901,0.2358 0.628385,0.48046 0.992187,0.5437 1.740162,0.30248 2.193072,0.17014 4.406799,-1.28772 z m 24.035909,-4.06762 c 0.727604,-0.4262 1.649821,-1.05016 2.049371,-1.38658 l 0.726454,-0.61167 -0.689772,-2.77812 c -0.58196,-2.3439 -1.485597,-4.7625 -1.779367,-4.7625 -0.04369,0 -1.193728,0.23812 -2.555644,0.52917 -1.361916,0.29104 -2.745474,0.52916 -3.074574,0.52916 -0.832482,0 -0.909899,0.24612 -0.502925,1.59888 0.195127,0.64858 0.548554,1.84276 0.785393,2.65372 0.236839,0.81096 0.723826,1.90598 1.082194,2.43336 0.358368,0.52739 0.651578,1.05003 0.651578,1.16142 0,0.26715 1.380805,1.39203 1.719792,1.40104 0.145521,0.004 0.859896,-0.34168 1.5875,-0.76788 z m -10.507576,-2.0265 c 0.702157,-0.10819 1.233706,-0.36088 1.395644,-0.66346 0.258648,-0.48329 0.78064,-4.7196 0.618577,-5.02016 -0.04615,-0.0856 -0.773402,-0.0554 -1.616112,0.0671 -0.84271,0.12247 -1.997762,0.1956 -2.566782,0.16252 l -1.034583,-0.0601 0.05237,2.10976 c 0.0288,1.16037 0.122613,2.50712 0.208468,2.99277 0.145321,0.82203 0.213149,0.87277 0.982216,0.7347 0.454363,-0.0816 1.336455,-0.22694 1.960205,-0.32304 z m -10.169611,-1.25353 c 0.458391,-0.48669 1.356809,-1.74886 1.996486,-2.80481 0.886297,-1.46307 1.080882,-1.9707 0.817743,-2.13333 -0.189917,-0.11737 -0.501908,-0.15331 -0.693311,-0.0799 -0.191404,0.0735 -0.77075,-0.12772 -1.287436,-0.44705 l -0.939429,-0.5806 -2.601567,2.4731 -2.601567,2.47309 0.557717,0.61981 c 0.709754,0.78877 1.898531,1.3154 3.031572,1.34299 0.678456,0.0165 1.081841,-0.18598 1.719792,-0.86333 z m 48.059134,-1.09895 c 1.00255,-0.2109 2.87175,-0.85228 4.15377,-1.4253 1.282023,-0.57302 2.835943,-1.19001 3.453163,-1.37109 0.82058,-0.24074 1.74506,-0.93437 3.43958,-2.58069 3.90554,-3.79444 7.4692,-6.62393 10.42333,-8.27595 3.76765,-2.10696 4.95532,-3.1988 6.26318,-5.75781 1.29891,-2.54151 1.55326,-4.03433 0.90784,-5.32822 -0.38124,-0.76428 -0.62355,-0.93762 -1.38716,-0.99232 -0.74311,-0.0532 -1.28977,0.19257 -2.77731,1.2488 -3.18114,2.25879 -6.29171,4.3002 -7.80521,5.1224 -0.80036,0.4348 -1.93146,1.10827 -2.51354,1.49662 -0.58209,0.38834 -1.71318,1.08774 -2.51354,1.55422 -1.90098,1.10795 -2.20571,1.29727 -4.09477,2.54406 -0.87657,0.57855 -2.42721,1.47374 -3.445863,1.98932 -2.62495,1.32859 -4.48239,2.62528 -6.61458,4.61771 -1.642,1.53436 -1.97249,1.73085 -2.91357,1.73222 -0.98913,10e-4 -1.17295,0.13171 -2.69676,1.91101 -1.15063,1.34354 -1.55829,2.00222 -1.37552,2.22245 0.3656,0.44052 2.79105,1.38965 4.20772,1.64658 1.42032,0.25758 2.83053,0.16319 5.28924,-0.35401 z m -9.57798,-3.67085 c 0.76988,-0.74621 1.46805,-1.62725 1.55149,-1.95785 0.22822,-0.90436 -0.88762,-2.34443 -2.40793,-3.10758 -1.48973,-0.74781 -2.17306,-0.818 -2.77148,-0.28468 -0.22974,0.20474 -1.37021,0.6597 -2.53438,1.01101 l -2.116662,0.63876 -0.0796,1.06937 c -0.10208,1.37163 0.78549,2.48721 2.687512,3.37791 2.64956,1.24077 3.77291,1.09281 5.67103,-0.74694 z m -45.586881,-0.52906 c 0.482478,-0.3528 0.482919,-0.39902 0.01578,-1.65365 -0.641341,-1.7225 -0.790264,-1.84665 -1.588029,-1.32394 -0.627806,0.41136 -1.01221,1.46347 -0.395423,1.08227 0.514891,-0.31822 1.572463,0.12579 1.572463,0.66018 0,0.27968 -0.119063,0.5821 -0.264584,0.67203 -0.315919,0.19525 -0.355827,0.92605 -0.05057,0.92605 0.117708,0 0.437372,-0.16333 0.710363,-0.36294 z m 21.036039,-0.82225 c 1.964531,-0.33954 4.7625,-0.8172 6.217708,-1.06146 3.603572,-0.60487 4.947302,-0.93997 9.295632,-2.3182 3.337822,-1.05794 3.920282,-1.33449 5.423962,-2.57532 2.10282,-1.73523 2.7355,-2.77111 3.26534,-5.34632 0.39722,-1.93059 0.39203,-2.13764 -0.10077,-4.01906 -0.63373,-2.41951 -2.20012,-6.05221 -3.15071,-7.30696 -0.38586,-0.50932 -2.35116,-2.53338 -4.367332,-4.49791 -3.65342,-3.55985 -5.23948,-5.41852 -5.58797,-6.54844 -0.30599,-0.99213 0.28631,-0.67148 0.99573,0.53906 0.36563,0.62391 2.74547,3.15399 5.28854,5.6224 4.831942,4.6901 4.729722,4.55055 6.677312,9.11617 1.94642,4.56287 2.03461,4.96018 1.58037,7.11957 -0.22132,1.0521 -0.40239,2.01529 -0.40239,2.14041 0,0.12512 0.80367,0.22778 1.78593,0.22815 2.61369,9.6e-4 6.53793,-1.39839 8.63429,-3.07893 0.41962,-0.33638 1.22316,-0.84639 1.78564,-1.13335 2.538953,-1.29527 3.728873,-5.47016 2.747423,-9.63942 -0.51332,-2.18065 -2.758523,-6.53521 -4.403363,-8.54032 -1.66732,-2.0325 -1.44869,-2.57663 0.2684,-0.66803 1.39514,1.55073 3.303923,4.86021 4.392913,7.61651 0.91456,2.31478 1.14884,5.40856 0.57133,7.54461 -0.21634,0.80017 -0.36001,1.48819 -0.31927,1.52893 0.0407,0.0407 0.95792,-0.26626 2.03817,-0.68223 2.21499,-0.85291 6.39921,-3.55315 7.46072,-4.81469 0.65954,-0.78381 0.70236,-0.999 0.70173,-3.52643 -6.9e-4,-2.78611 -0.42189,-4.82322 -1.96692,-9.51288 -0.75259,-2.28435 -0.81108,-2.65988 -0.39255,-2.52038 0.53876,0.17959 3.15308,8.70017 3.15619,10.28667 0.001,0.64437 0.078,1.80232 0.17064,2.57324 l 0.16834,1.40166 0.82155,-0.17503 c 0.8266,-0.17612 1.77142,-0.57693 3.16025,-1.34066 0.70782,-0.38923 1.58236,-1.86273 1.33913,-2.25628 -0.0612,-0.0991 -0.78492,0.22548 -1.6082,0.72123 -1.68322,1.01358 -2.42488,1.30329 -2.68093,1.04723 -0.27224,-0.27224 0.9279,-1.06171 2.8409,-1.86879 1.69042,-0.71317 1.78484,-0.8044 2.97755,-2.87649 1.70996,-2.9707 4.45081,-9.08244 4.44691,-9.91603 -0.002,-0.37982 -0.4185,-1.64187 -0.92604,-2.80454 -0.96838,-2.21833 -1.12196,-2.89132 -0.62175,-2.72458 0.16558,0.0552 0.73113,1.19372 1.25677,2.53006 0.52564,1.33634 1.01737,2.43219 1.09273,2.43524 0.0754,0.003 1.12403,-1.69112 2.33037,-3.76479 1.20634,-2.07367 2.59189,-4.21724 3.07901,-4.76349 1.29481,-1.452 3.41525,-2.78589 4.74583,-2.98542 1.41674,-0.21246 2.54006,0.38904 2.54006,1.36011 0,0.883 2.94278,5.62443 5.07312,8.17386 0.2436,0.29153 0.69009,0.8277 0.99219,1.1915 l 0.54927,0.66146 0.55044,-0.65089 c 0.4893,-0.5786 0.52988,-0.85557 0.36538,-2.49367 -0.10179,-1.01352 -0.47262,-2.68515 -0.82407,-3.71473 -0.35146,-1.02958 -0.87857,-2.82446 -1.17137,-3.98862 -1.62806,-6.47319 -3.63208,-10.79549 -7.2245,-15.58196 -3.14707,-4.19309 -3.53818,-4.67086 -5.38401,-6.5769 -0.82124,-0.84803 -1.30099,-1.52135 -1.08398,-1.52135 0.73772,0 2.67503,2.0836 5.90414,6.35 0.71592,0.94588 1.88744,2.49369 2.60338,3.43958 1.69175,2.23509 4.17719,7.40145 5.09144,10.58333 0.39722,1.38245 1.18649,3.93711 1.75393,5.67702 0.65799,2.01756 1.08946,3.91231 1.19113,5.23077 0.18071,2.34343 0.0555,2.28809 2.59372,1.14587 2.73832,-1.23224 6.87401,-4.89173 9.56793,-8.46624 2.5516,-3.38565 2.84069,-3.9898 3.39572,-7.09643 0.40315,-2.25652 0.41893,-2.85844 0.12487,-4.7625 -0.67896,-4.39636 -1.99349,-7.63473 -5.28816,-13.02745 -2.70727,-4.43125 -3.7213,-5.73984 -5.7602,-7.43347 -3.1745,-2.63692 -10.31722,-7.05498 -12.56466,-7.77175 -1.42261,-0.45371 -5.25038,-0.0625 -9.05467,0.92543 -2.10096,0.54559 -8.06811,3.51879 -10.0172,4.99118 -1.29433,0.97776 -5.17167,4.89389 -4.88705,4.93592 0.0482,0.007 1.04008,0.0722 2.20425,0.14468 2.2017,0.13704 5.5073,0.90499 6.71134,1.55918 0.59872,0.32529 0.62238,0.37992 0.16783,0.38743 -0.29104,0.005 -1.54026,-0.23364 -2.77604,-0.52987 -1.23578,-0.29624 -3.33328,-0.60997 -4.66112,-0.6972 l -2.41426,-0.15858 -2.8795,1.40582 c -3.12487,1.52561 -6.07459,3.38842 -8.19324,5.17421 -1.80498,1.5214 -4.211263,4.039 -4.211263,4.40609 0,0.16303 0.9525,0.57892 2.116663,0.92421 5.19884,1.54198 5.95053,1.87419 8.93958,3.95076 1.63167,1.13356 3.98562,3.07585 5.23099,4.3162 1.93648,1.92868 2.5971,2.84328 4.56291,6.31722 1.26422,2.23411 2.23135,4.17082 2.14917,4.30379 -0.26145,0.42304 -0.57399,0.0159 -1.70215,-2.21716 -1.09133,-2.1602 -2.47065,-4.53931 -3.61401,-6.23364 -1.06398,-1.57671 -5.44151,-5.17998 -8.9519,-7.36859 -2.08976,-1.30289 -8.513133,-3.16652 -10.052853,-2.91666 -1.29352,0.20991 -4.47654,2.07198 -7.20807,4.21674 -2.46615,1.93638 -5.09637,4.35048 -5.09637,4.6776 0,0.11081 0.74414,0.41991 1.65364,0.68689 2.21417,0.64994 3.64677,1.38156 6.02269,3.07574 1.09329,0.77958 2.76016,1.88579 3.70417,2.45824 1.96422,1.19111 5.591103,4.18503 7.613213,6.28456 1.66374,1.72743 3.78835,4.59707 3.56725,4.81817 -0.37594,0.37594 -0.66409,0.065 -2.50542,-2.70304 -1.29425,-1.94568 -6.956193,-6.88387 -9.604503,-8.37681 -0.72761,-0.41017 -2.03554,-1.27597 -2.90652,-1.92401 -0.87099,-0.64803 -2.12114,-1.45019 -2.77813,-1.78256 -1.06199,-0.53728 -4.53661,-1.6931 -5.54186,-1.84349 -1.48152,-0.22164 -8.749532,3.94101 -8.749532,5.01117 0,0.21649 0.69079,0.74232 1.53509,1.16852 0.84429,0.4262 2.124222,1.23737 2.844272,1.8026 0.72005,0.56522 2.08308,1.48803 3.02897,2.05067 0.94589,0.56265 2.28817,1.43229 2.98286,1.93255 1.34014,0.96504 7.60047,7.57436 7.60047,8.02416 0,0.48749 -0.66503,-0.1286 -3.83966,-3.5571 -3.02922,-3.27146 -4.39072,-4.36663 -7.93429,-6.38218 -0.72761,-0.41386 -1.72739,-1.10267 -2.22173,-1.53069 -1.456042,-1.26068 -3.065932,-1.81269 -5.447012,-1.86769 l -2.12085,-0.049 -2.381248,1.4379 c -3.187964,1.92502 -5.408322,3.52147 -5.41692,3.89477 -0.0039,0.16808 0.554563,0.63471 1.240965,1.03697 1.720938,1.00854 3.701556,3.05426 3.989209,4.12033 0.309697,1.14777 0.136514,1.31735 -0.500646,0.49024 -1.531876,-1.98856 -2.180856,-2.65566 -3.313219,-3.40571 -1.383635,-0.91648 -2.65737,-1.05749 -4.762949,-0.5273 -0.878215,0.22113 -1.270578,0.22242 -1.488138,0.005 -0.217561,-0.21756 0.06437,-0.45371 1.069278,-0.89563 1.180772,-0.51927 1.365581,-0.70202 1.370976,-1.35573 0.01525,-1.84735 -1.520156,-6.05448 -2.411676,-6.60819 -0.319566,-0.19848 -0.980335,-0.0709 -2.513541,0.48527 -2.4214,0.87839 -3.894691,2.11217 -3.691088,3.09104 0.388082,1.8658 0.561696,6.65215 0.259053,7.14183 -0.221932,0.3591 0.520876,0.22894 1.07187,-0.18781 0.586153,-0.44334 0.941618,-0.49866 0.941618,-0.14652 0,0.22625 -2.574773,2.42714 -6.334619,5.41477 -3.612072,2.87019 -6.5253,6.35375 -8.258196,9.8749 -1.600396,3.25193 -2.303667,5.75553 -2.517287,8.9614 -0.246277,3.69595 0.279529,4.88598 4.682351,10.59735 0.65906,0.85494 1.552029,2.11563 1.984375,2.80154 0.432346,0.68591 0.921026,1.25146 1.085955,1.25678 0.164928,0.005 0.361984,0.24718 0.437901,0.53749 0.07592,0.2903 0.357694,0.60823 0.626171,0.70649 0.268477,0.0983 0.774793,0.39865 1.125147,0.66753 1.333427,1.02331 5.47034,1.81422 8.358827,1.59806 0.727604,-0.0545 2.93026,-0.37681 4.894791,-0.71635 z m -19.535069,-10.4474 c 0.167117,-0.48416 3.270065,-2.92142 6.173611,-4.84917 3.650606,-2.42375 3.572262,-2.37721 3.569917,-2.12084 -0.0011,0.11773 -1.161937,0.9599 -2.579688,1.87148 -1.417751,0.91158 -3.470698,2.48848 -4.562104,3.50421 -1.775153,1.65206 -2.848758,2.30996 -2.601736,1.59432 z m 15.739618,-6.31377 c -0.569325,-0.6291 -0.553201,-1.15026 0.05969,-1.92943 0.751671,-0.95559 2.253102,-1.42125 3.250506,-1.00811 0.707291,0.29297 0.781118,0.42489 0.642815,1.14859 -0.346958,1.81552 -2.888193,2.96556 -3.953014,1.78895 z m 1.232926,-0.93911 c 0.07696,-0.20055 0.0092,-0.49537 -0.150605,-0.65517 -0.381516,-0.38151 -1.015718,0.11845 -0.81471,0.64227 0.184714,0.48136 0.782485,0.48934 0.965315,0.0129 z m 44.63128,-0.42912 c 0,-0.14552 0.22616,-0.26458 0.50258,-0.26458 0.27642,0 1.08009,-0.38841 1.78594,-0.86313 2.49809,-1.6801 4.11668,-2.60215 4.40134,-2.50726 0.27775,0.0926 0.10008,0.24474 -1.92736,1.65073 -2.82931,1.96207 -4.7625,2.76751 -4.7625,1.98424 z m -48.154171,-1.55735 c 0,-0.12894 0.446484,-0.44394 0.992187,-0.70001 0.545703,-0.25606 1.766094,-0.90089 2.711979,-1.43296 2.012028,-1.13177 2.645833,-1.3983 2.645833,-1.11262 0,0.11415 -1.239785,0.81937 -2.755078,1.56717 -1.515293,0.7478 -2.832007,1.48411 -2.926031,1.63625 -0.208294,0.33702 -0.66889,0.36606 -0.66889,0.0422 z m -1.99708,-2.79053 c -0.320723,-0.48949 -0.354282,-0.76984 -0.140064,-1.17011 0.730529,-1.365 2.513758,-2.00922 3.742038,-1.35187 1.452655,0.77744 -0.432391,3.16569 -2.498677,3.16569 -0.429981,0 -0.837191,-0.23758 -1.103297,-0.64371 z m 1.20333,-0.96319 c 0,-0.67803 -0.875726,-0.60111 -1.00855,0.0886 -0.06114,0.3175 0.08134,0.45999 0.459983,0.45999 0.378645,0 0.548567,-0.16993 0.548567,-0.54857 z m 7.672916,0.15707 c 0,-0.19748 2.153157,-1.2477 2.285895,-1.11496 0.06487,0.0649 -0.310659,0.37083 -0.834513,0.67991 -0.917569,0.54138 -1.451382,0.70139 -1.451382,0.43505 z m 5.669988,-3.22435 c 1.398881,-0.75731 2.532095,-1.1592 2.532095,-0.898 0,0.14067 -0.550916,0.49945 -1.224258,0.7973 -1.453455,0.64294 -2.451363,0.71977 -1.307837,0.1007 z m 26.344594,-8.81957 c 0,-0.14552 0.11907,-0.26458 0.26459,-0.26458 0.14552,0 0.26458,0.11906 0.26458,0.26458 0,0.14553 -0.11906,0.26459 -0.26458,0.26459 -0.14552,0 -0.26459,-0.11906 -0.26459,-0.26459 z m -23.63611,-0.70555 c -0.248028,-0.24803 -0.220382,-1.14653 0.03528,-1.14653 0.32973,0 0.846668,0.59771 0.846668,0.97896 0,0.36046 -0.579036,0.47048 -0.881946,0.16757 z m 37.445163,-2.22471 c 0.0521,-0.15643 0.20792,-0.28442 0.34616,-0.28442 0.13825,0 0.29402,0.12799 0.34616,0.28442 0.0521,0.15644 -0.10362,0.28443 -0.34616,0.28443 -0.24253,0 -0.39831,-0.12799 -0.34616,-0.28443 z m -51.265875,-3.7139 c -0.199455,-0.32273 0.394774,-0.808 0.733253,-0.5988 0.116089,0.0718 0.211071,0.30201 0.211071,0.5117 0,0.44898 -0.681805,0.51186 -0.944324,0.0871 z m 91.167245,-3.95255 c 0.3638,-0.29193 1.36434,-0.8876 2.22341,-1.3237 3.5244,-1.78916 6.79675,-4.4184 8.29721,-6.66657 0.65045,-0.97458 1.12105,-1.27094 1.12105,-0.70598 0,0.29225 -1.54633,2.33139 -2.49161,3.28567 -1.06355,1.07368 -4.25043,3.57188 -4.55654,3.57188 -0.17385,0 -0.35577,0.10441 -0.40428,0.23202 -0.12908,0.3396 -3.83011,2.15025 -4.38107,2.14334 -0.3878,-0.005 -0.35437,-0.0984 0.19183,-0.53666 z m -70.263495,-5.83434 c -0.20672,-0.33448 0.2028,-0.65512 3.019172,-2.3639 1.21484,-0.73708 2.33864,-1.29687 2.49734,-1.24397 0.1587,0.0529 -0.45896,0.55026 -1.37257,1.10525 -0.9136,0.55498 -2.18179,1.40652 -2.81819,1.89229 -0.692532,0.52862 -1.224812,0.77366 -1.325752,0.61033 z m 10.467662,-6.49929 c 0,-0.62499 7.83008,-6.91164 8.16165,-6.55286 0.095,0.10279 0.017,0.24235 -0.17331,0.31012 -0.19031,0.0678 -0.84974,0.50771 -1.46539,0.97764 -0.61564,0.46993 -1.31267,0.96373 -1.54894,1.09733 -0.45057,0.25477 -1.9529,1.5748 -3.84953,3.38242 -0.61847,0.58944 -1.12448,0.94284 -1.12448,0.78535 z m 13.651183,-10.43604 c 0.51776,-0.57326 3.66188,-3.05405 6.12597,-4.83354 0.76373,-0.55155 1.52737,-0.95656 1.69697,-0.90002 0.16961,0.0565 -0.15196,0.39395 -0.7146,0.7498 -0.56264,0.35586 -1.28038,0.82561 -1.59498,1.04389 -2.78554,1.93273 -3.81321,2.72507 -4.59822,3.54526 -0.95816,1.00111 -1.78491,1.3576 -0.91514,0.39461 z m 25.36665,-6.86357 c -0.25141,-0.40679 0.093,-0.66926 0.43255,-0.32967 0.19002,0.19002 0.19458,0.33801 0.0139,0.4497 -0.14814,0.0916 -0.34903,0.0375 -0.44642,-0.12003 z m -15.07172,-0.51802 c 0.0882,-0.14278 0.40571,-0.39086 0.70548,-0.5513 0.41936,-0.22443 0.51959,-0.21533 0.43466,0.0395 -0.0607,0.18214 -0.37817,0.43022 -0.70548,0.5513 -0.37583,0.13903 -0.53598,0.12449 -0.43466,-0.0395 z m 6.7556,-4.42963 c 0.0121,-0.23822 1.67588,-1.44114 3.75109,-2.71198 5.93541,-3.63479 7.83983,-4.76271 8.0439,-4.76413 0.12843,-9e-4 0.56596,-0.17504 0.97229,-0.38698 0.80948,-0.42224 2.56851,-0.81813 2.56851,-0.57808 0,0.0828 -0.83695,0.39979 -1.85989,0.70443 -1.80218,0.53671 -2.81883,1.01856 -4.75469,2.25354 -2.46084,1.56988 -7.08389,4.66618 -7.67292,5.13896 -0.69317,0.55636 -1.06521,0.67853 -1.04829,0.34424 z m -74.500174,79.9968 0.953805,-0.89955 -0.816753,-1.2102 c -0.449215,-0.66561 -0.938887,-1.28568 -1.088161,-1.37794 -0.281245,-0.17382 -2.58361,0.3566 -2.952649,0.68024 -0.265218,0.23258 0.526399,2.62843 1.071855,3.24399 0.658159,0.74274 1.761904,0.5726 2.831903,-0.43654 z m 48.783161,-2.5096 c 2.09621,-1.88409 5.14888,-3.99918 5.77194,-3.99918 0.35302,0 0.39787,-0.0993 0.448,-0.99219 0.0339,-0.60457 -0.77352,-0.51575 -2.87027,0.31573 -0.87312,0.34625 -2.62899,0.75481 -3.90192,0.90791 -1.27292,0.1531 -2.52308,0.38656 -2.77812,0.51881 -0.25504,0.13224 -1.01554,0.32043 -1.69001,0.41819 -0.71317,0.10338 -1.42801,0.40064 -1.70835,0.71042 -0.4723,0.52188 -0.45418,0.5583 0.89557,1.79918 0.75769,0.69659 1.37762,1.46368 1.37762,1.70465 0,0.34415 0.2605,0.43814 1.21439,0.43814 1.12896,0 1.35697,-0.12815 3.24115,-1.82166 z m 26.398033,-1.7113 c 0.74389,-0.74901 1.83702,-2.11174 2.42917,-3.0283 0.9587,-1.48391 1.0468,-1.75205 0.80423,-2.44788 -0.14982,-0.42978 -0.3557,-0.8329 -0.4575,-0.89582 -0.10181,-0.0629 -0.7747,0.35689 -1.49531,0.93292 -0.72061,0.57603 -2.41184,1.66083 -3.75829,2.41068 -2.2546,1.2556 -5.37262,3.59304 -5.57445,4.17891 -0.0848,0.24624 4.76443,0.49339 6.03817,0.30774 0.3638,-0.053 1.27009,-0.70924 2.01398,-1.45825 z m -33.782053,-1.07802 c 0.59849,-0.63707 2.35604,-1.12226 8.48473,-2.34232 2.72739,-0.54295 5.01679,-1.51206 5.02257,-2.12608 0.002,-0.26423 0.1313,-0.71731 0.28626,-1.00685 0.576463,-1.07713 0.054,-1.0406 -1.48037,0.1035 -1.99615,1.48845 -2.2519,1.61843 -5.07145,2.57743 -1.91964,0.65292 -2.75043,0.79071 -4.76742,0.79071 -2.44105,0 -2.44293,5.2e-4 -2.84907,0.78591 -0.22353,0.43225 -0.64664,0.91447 -0.94025,1.07161 -0.29361,0.15713 -0.46394,0.39879 -0.37852,0.53701 0.27807,0.44993 1.07679,0.26556 1.69352,-0.39092 z m -49.739537,-0.26461 c 0.248991,-0.30002 0.166818,-0.59924 -0.399638,-1.45521 -0.808588,-1.22186 -1.226599,-1.33439 -1.818382,-0.4895 -0.558896,0.79794 -0.519242,0.99946 0.196664,0.99946 0.739415,0 1.252409,0.46278 1.062267,0.95828 -0.185437,0.48325 0.555574,0.47317 0.959089,-0.013 z m 3.878553,-0.8431 c 0.494936,-0.23487 0.899883,-0.51942 0.899883,-0.63236 0,-0.26143 -2.331671,-3.43854 -2.523536,-3.43854 -0.327659,0 -2.166222,1.04876 -2.460789,1.40369 -0.224837,0.27091 -0.241771,0.56886 -0.05749,1.01152 0.404034,0.97054 1.008381,1.62475 1.321914,1.43098 0.15623,-0.0966 0.355484,0.0106 0.442786,0.23808 0.204783,0.53366 1.236686,0.52785 2.377233,-0.0134 z m 63.647037,-2.96355 c 1.50547,-0.9917 3.32138,-2.14501 4.03535,-2.56292 l 1.29813,-0.75985 -0.76896,-0.32046 c -0.42293,-0.17625 -1.2676,-0.52597 -1.87706,-0.77716 -0.60945,-0.25119 -1.38336,-0.38715 -1.71979,-0.30213 -1.2242,0.30938 -3.02988,1.6892 -3.49601,2.6715 -0.55546,1.17054 -0.89332,3.85409 -0.48524,3.85409 0.152,0 1.50811,-0.81138 3.01358,-1.80307 z m 70.15723,1.50542 c 1.68276,-0.86668 2.15063,-1.94952 1.34148,-3.10474 -0.41358,-0.59046 -0.51179,-0.60409 -3.10886,-0.4315 -1.47498,0.098 -2.75854,0.25661 -2.85235,0.35241 -0.0938,0.0958 -0.24418,0.53137 -0.33415,0.96794 -0.14251,0.69148 -0.0523,0.86185 0.69973,1.32236 2.02438,1.23953 3.13104,1.47197 4.25415,0.89353 z m -6.18855,-1.39853 c 0.17038,-0.2053 0.37554,-0.77853 0.45592,-1.27385 0.13913,-0.85735 0.0351,-1.00138 -2.16714,-3.00017 -1.2723,-1.15478 -3.2161,-3.17116 -4.31954,-4.48084 -1.10344,-1.30969 -3.67927,-4.28625 -5.72405,-6.61459 -5.9107,-6.73032 -8.63575,-9.91857 -10.17649,-11.90625 -0.7896,-1.01864 -2.04927,-2.56646 -2.79927,-3.43958 -1.55557,-1.81094 -3.59696,-4.73377 -4.38484,-6.27815 -0.29439,-0.57705 -0.57468,-1.00787 -0.62286,-0.95739 -0.0482,0.0505 -0.37807,0.92523 -0.73307,1.94387 -0.355,1.01865 -0.83831,2.28341 -1.07403,2.81059 l -0.42858,0.95851 0.98167,1.35068 c 0.53991,0.74288 1.51744,2.0947 2.17229,3.00405 1.73756,2.41288 2.73778,3.52785 7.90657,8.81367 5.69602,5.82498 14.41694,14.96011 15.65638,16.4 2.01646,2.34257 2.9289,3.04271 3.96534,3.04271 0.54005,0 1.12131,-0.16797 1.2917,-0.37326 z m 13.52162,-0.70054 c 0.16031,-0.29955 0.31333,-1.04369 0.34004,-1.65365 0.045,-1.028 -0.005,-1.11514 -0.68135,-1.19295 -0.66989,-0.077 -3.91735,0.79454 -4.65189,1.24851 -0.19576,0.12099 -0.2509,0.50374 -0.14724,1.02205 0.1491,0.74551 0.27549,0.83864 1.25988,0.92843 2.94338,0.26846 3.57919,0.21073 3.88056,-0.35239 z m 4.4204,0.0958 c 0.0571,-0.17409 -0.37628,-0.56147 -0.96312,-0.86085 -1.1618,-0.59271 -1.2064,-1.03981 -0.15962,-1.60004 0.34763,-0.18604 0.81266,-0.70879 1.03341,-1.16167 0.56929,-1.16794 0.0179,-1.21684 -1.82583,-0.16195 -1.02653,0.58732 -1.46407,1.00222 -1.48536,1.40847 -0.0166,0.31674 -0.0688,0.90081 -0.11601,1.29794 -0.0945,0.79468 0.1,0.98461 1.31371,1.28302 1.10232,0.27102 2.07638,0.18041 2.20282,-0.20492 z m -147.937607,-2.00408 c 0.04694,-0.0469 -0.08938,-0.66591 -0.302927,-1.37548 -0.21355,-0.70958 -0.358012,-1.44036 -0.321026,-1.62395 0.084,-0.41699 -0.135497,-0.44416 -1.784836,-0.22092 -1.854013,0.25094 -4.315757,1.04817 -4.917129,1.59241 -0.636641,0.57615 -0.661884,1.61385 -0.04381,1.80091 0.469663,0.14215 7.212871,-0.0161 7.369726,-0.17297 z m -8.327824,-2.16057 c 0.517677,-0.65812 2.519084,-1.52918 4.220712,-1.83696 l 0.947511,-0.17138 -0.109554,-1.51775 c -0.15497,-2.14693 -0.786145,-3.71522 -1.681595,-4.17828 -2.978862,-1.54043 -8.318935,2.1863 -7.54594,5.26615 0.152125,0.60612 2.87468,3.03956 3.435239,3.07044 0.124577,0.007 0.454709,-0.27763 0.733627,-0.63222 z m 83.204271,-0.7572 c 2.29709,-1.3678 2.37767,-1.44985 3.31306,-3.37344 0.52729,-1.08434 1.03626,-2.22346 1.13105,-2.53137 l 0.17234,-0.55985 -1.9248,0.5204 c -1.45282,0.39279 -2.07746,0.71102 -2.54738,1.29778 -0.60216,0.7519 -3.5765,2.88747 -5.70841,4.09862 l -1.03933,0.59045 0.90704,0.38461 c 1.28072,0.54307 2.42337,0.91369 2.91831,0.94656 0.23308,0.0155 1.48323,-0.60271 2.77812,-1.37376 z m 14.51889,-2.10382 c 0.30661,-2.42461 1.5063,-8.19273 1.9922,-9.57852 0.25756,-0.73455 0.72782,-1.99039 1.04501,-2.79076 0.3172,-0.80036 0.85691,-2.34817 1.19936,-3.43958 0.34245,-1.09141 1.23782,-3.47266 1.9897,-5.29167 4.27957,-10.35347 4.45065,-10.91047 3.57451,-11.6376 -0.31379,-0.26042 -0.66431,-0.22738 -1.7572,0.16562 -2.10932,0.75849 -3.31708,2.03348 -5.6347,5.94828 -1.15243,1.94663 -2.55928,4.22431 -3.12632,5.0615 -0.56705,0.8372 -1.50369,2.5636 -2.08142,3.83646 -0.57774,1.27286 -1.81507,3.8621 -2.74963,5.75387 -1.9193,3.88509 -5.0232,11.20604 -4.83211,11.39713 0.0692,0.0692 1.0411,-0.5308 2.15973,-1.33338 2.57147,-1.84494 2.85782,-1.99396 3.8317,-1.99396 1.60572,0 2.67568,1.0962 2.67568,2.74131 0,0.59286 1.00045,2.55036 1.30346,2.55036 0.12891,0 0.31342,-0.62508 0.41003,-1.38906 z m -132.7185362,-0.3298 c 0.456519,-0.51995 0.830036,-1.11579 0.830036,-1.3241 0,-0.58682 -1.811123,0.58159 -2.398391,1.54728 -0.9731,1.60013 0.101759,1.44718 1.568355,-0.22318 z m 42.5798232,0.96435 c 0.199726,-0.12671 0.408734,-1.00736 0.501395,-2.11262 0.135195,-1.6126 0.097,-1.89534 -0.25605,-1.89534 -0.228222,0 -0.768694,-0.29766 -1.201048,-0.66146 -1.435695,-1.20806 -1.736717,-0.77999 -1.212318,1.724 0.197609,0.94357 0.36177,2.04301 0.364802,2.44319 0.0047,0.61702 0.116097,0.72699 0.733118,0.72355 0.400183,-0.002 0.881728,-0.10182 1.070101,-0.22132 z m -42.8081212,-2.69412 c 0.343517,-0.22986 0.327825,-0.31825 -0.116715,-0.65741 -1.053226,-0.80357 -2.29684,-0.2654 -1.417868,0.61357 0.384735,0.38473 0.998897,0.40228 1.534583,0.0438 z m 3.487005,-1.21078 c 1.45876902,-0.73309 1.73312502,-1.08174 1.239585,-1.57528 -0.307754,-0.30776 -0.614473,-0.24338 -2.012022,0.42226 -0.906903,0.43196 -1.829155,0.78537 -2.04945,0.78537 -0.540937,0 -0.50661,0.52314 0.06249,0.95227 0.526865,0.39729 1.008553,0.29524 2.759401,-0.58462 z m 29.7530342,-1.85655 c 1.974794,-1.26326 4.085674,-1.50993 5.54633,-0.64812 0.532302,0.31406 1.009135,0.52971 1.059629,0.47922 0.162755,-0.16275 0.906211,-3.9132 1.691217,-8.53155 0.420766,-2.47545 0.899172,-5.03529 1.063125,-5.68854 0.973635,-3.87934 1.388015,-6.3011 1.225966,-7.1649 -0.253061,-1.34893 -3.437289,-5.44382 -4.95227,-6.36858 -0.891279,-0.54404 -1.710812,-0.78532 -3.108855,-0.91525 -1.335126,-0.12409 -1.898514,-0.28295 -1.898514,-0.53533 0,-0.33365 0.941764,-0.50792 2.182812,-0.40392 1.297729,0.10875 -0.0366,-0.8707 -5.490104,-4.03 -1.012101,-0.58632 -3.16205,-1.36426 -5.93161,-2.14629 -2.38926,-0.67465 -6.299648,-1.87218 -8.689751,-2.66117 -6.9075922,-2.28026 -7.0916812,-2.31531 -11.2153092,-2.13534 -4.1295,0.18023 -6.119412,0.74298 -7.209903,2.03895 -0.6309,0.74978 -0.655053,0.91398 -0.606293,4.12165 l 0.05078,3.34076 1.719792,1.55937 c 0.945885,0.85766 2.506445,2.08797 3.46791,2.73403 1.720576,1.15614 6.862742,3.83766 7.359226,3.83766 0.139774,0 0.330499,0.12357 0.423834,0.27459 0.220372,0.35656 -4.08489198,4.62058 -7.20848,7.13942 -1.402722,1.13114 -2.340939,2.0663 -2.207221,2.20001 0.127919,0.12792 0.991405,0.2935 1.918857,0.36794 l 1.686277,0.13536 1.44698602,-1.5262 c 0.795842,-0.83941 2.15195398,-2.19307 3.01358198,-3.00814 0.861629,-0.81506 1.778031,-1.68396 2.03645,-1.93088 0.25842,-0.24693 0.671856,-0.84224 0.918748,-1.32292 0.864238,-1.68261 1.461194,-2.02073 3.33185,-1.88716 1.3261702,0.0947 2.2382362,-0.046 4.4161352,-0.68114 1.509628,-0.44025 4.009941,-0.99913 5.55625,-1.24193 3.594889,-0.56449 3.472929,-0.52345 3.472929,-1.1685 0,-0.65372 1.210959,-1.94879 1.598349,-1.70937 0.169069,0.10449 0.05561,0.51599 -0.301648,1.09405 -0.430857,0.69714 -0.5694,1.33069 -0.559541,2.55874 0.01279,1.59274 0.200605,2.3862 1.920747,8.11447 0.80636,2.68527 0.82793,2.88424 0.645354,5.95312 -0.236711,3.9788 -0.19585,10.71031 0.06504,10.71462 0.03355,5.5e-4 0.736149,-0.43087 1.561322,-0.95873 z M 4.6848088,-232.79449 c 0,-0.24639 0.180015,-0.38136 0.441096,-0.33073 0.663779,0.12874 0.754921,0.74701 0.11012,0.74701 -0.324998,0 -0.551216,-0.17084 -0.551216,-0.41628 z m 20.8210822,-5.30917 c -0.244906,-0.2449 0.05002,-0.62455 0.485188,-0.62455 0.222814,0 0.311646,0.15977 0.220661,0.39687 -0.161494,0.42085 -0.427031,0.5065 -0.705849,0.22768 z m 12.415912,28.01659 c 0.09579,-0.40018 0.472454,-1.48311 0.837036,-2.4065 l 0.662878,-1.6789 -1.608976,-1.60898 c -1.525745,-1.52574 -1.615581,-1.57576 -1.736647,-0.96693 -0.473305,2.38022 -1.019662,5.83105 -0.934253,5.90082 0.485559,0.39665 2.25148,1.4881 2.407679,1.4881 0.108968,0 0.276495,-0.32742 0.372283,-0.72761 z m -35.7142912,-0.92604 c 0.891406,-0.59573 1.307728,-1.06309 1.355213,-1.52135 0.148884,-1.43683 -0.270402,-1.43561 -2.543323,0.007 -1.18548398,0.75264 -2.155426,1.45178 -2.155426,1.55363 0,0.40892 0.67489102,0.82018 1.34593202,0.82018 0.391012,0 1.28993398,-0.38695 1.99760398,-0.85989 z m 128.5014982,-0.58787 c 2.4386,-1.16189 8.8543,-5.81677 10.4033,-7.54807 l 0.82853,-0.92604 -1.25959,-1.40377 -1.2596,-1.40376 -1.42102,1.40531 c -1.61793,1.60004 -5.56854,3.65136 -6.62172,3.43827 -0.36444,-0.0737 -2.33993,5.66679 -2.33993,6.79954 0,0.40502 0.11227,0.38072 1.67003,-0.36148 z M 7.3306428,-212.6776 c 0.800364,-0.49179 1.87855,-1.28584 2.395967,-1.76457 0.5174172,-0.47873 1.6013782,-1.37751 2.4088022,-1.9973 1.340417,-1.02891 6.593459,-6.40119 6.786385,-6.94043 0.108927,-0.30445 -1.020793,-2.9129 -1.261578,-2.9129 -0.17299,0 -0.98286,0.82976 -4.996873,5.11956 -1.346258,1.43876 -3.3851942,3.04534 -6.7146792,5.29086 -1.701234,1.14737 -1.920353,1.57658 -1.667087,3.26548 0.169263,1.12872 0.213625,1.17933 0.886019,1.01083 0.38931,-0.0976 1.362679,-0.57975 2.163044,-1.07153 z m 32.9145442,-2.72508 c 0.07559,-0.12231 -0.0845,-0.92598 -0.35575,-1.78594 -1.243653,-3.94273 -1.638312,-7.08576 -1.2136,-9.66501 0.132032,-0.80182 0.10242,-1.28338 -0.08608,-1.39988 -0.16583,-0.10249 -0.342005,0.0787 -0.416589,0.42854 -0.07108,0.33337 -0.37481,1.62747 -0.674951,2.87578 -0.300141,1.2483 -0.707135,3.19792 -0.904429,4.33248 l -0.358718,2.06284 1.753516,1.67799 c 1.792083,1.71489 2.016628,1.86149 2.256601,1.4732 z m -54.730952,-1.75901 c 1.37332,-1.67596 1.176968,-2.28318 -0.927479,-2.86827 -1.955397,-0.54365 -1.862363,-0.54659 -1.862363,0.0589 0,0.51754 0.486062,0.82206 1.31216,0.82206 0.976562,0 1.138051,0.66863 0.417819,1.72995 -0.76679,1.12993 -0.830571,1.44505 -0.292484,1.44505 0.208538,0 0.817095,-0.53444 1.352347,-1.18765 z m 55.898264,-0.26482 c 0.165071,-0.36229 1.196213,-1.66588 2.291427,-2.89686 l 1.991299,-2.23816 v -2.53559 c 0,-2.76789 -0.486481,-4.5452 -1.172088,-4.28211 -0.209673,0.0805 -0.432778,0.004 -0.495789,-0.16958 -0.07346,-0.20252 -0.388141,-0.0656 -0.87699,0.38154 -0.419333,0.38357 -1.135195,0.88531 -1.590804,1.11497 -1.22868,0.61937 -2.159364,1.87377 -2.354206,3.17307 -0.160073,1.06745 0.0252,2.13002 1.241341,7.11925 0.282127,1.15742 0.548489,1.24939 0.96581,0.33347 z m -16.233109,-2.87612 c 0.172761,-2.07398 0.123287,-2.4081 -0.793344,-5.35781 -0.537677,-1.73025 -1.030043,-3.23485 -1.094147,-3.34358 -0.0641,-0.10873 -0.554093,0.0996 -1.088865,0.46302 -0.597345,0.40591 -1.344274,0.6607 -1.93683,0.6607 -0.530485,0 -1.091415,0.15291 -1.246511,0.33979 -0.365925,0.44091 -0.02095,1.99101 0.724151,3.25385 0.61752,1.04662 4.814472,6.14539 5.08415,6.1766 0.09193,0.0106 0.250057,-0.97602 0.351396,-2.19257 z m -35.548034,1.13382 c 0.5246108,-0.26456 1.2389858,-0.52833 1.5874998,-0.58614 0.348514,-0.0578 0.951339,-0.23613 1.339612,-0.39628 0.779735,-0.3216 3.214632,-2.1063 3.345936,-2.45246 0.04572,-0.12054 -0.354667,-0.3013 -0.889759,-0.40169 -0.828604,-0.15544 -1.280539,-0.0186 -3.047244,0.92275 -1.140894,0.60789 -2.6976388,1.31712 -3.4594338,1.57606 -1.684932,0.57273 -2.168884,1.16787 -1.412106,1.73653 0.565327,0.42481 1.055201,0.34776 2.535495,-0.39877 z m 144.588914,-1.1727 c 2.07027,-1.0791 3.97773,-2.56915 4.20484,-3.28471 0.10944,-0.34481 -0.31664,-1.18009 -1.37257,-2.69082 -0.84219,-1.20493 -1.64613,-2.17734 -1.78652,-2.16092 -0.14039,0.0164 -0.45252,0.61021 -0.69362,1.31952 -0.2411,0.70931 -0.63531,1.6705 -0.87602,2.13598 -0.24071,0.46548 -0.34371,0.84633 -0.22889,0.84633 0.11482,0 0.82756,-0.41672 1.58386,-0.92604 1.41831,-0.95515 2.04752,-1.16091 1.8637,-0.60947 -0.18378,0.55135 -2.64614,2.08673 -3.22024,2.00795 -0.47057,-0.0646 -0.65556,0.23245 -1.27125,2.0411 -0.3963,1.16417 -0.72463,2.14644 -0.72964,2.18282 -0.0389,0.28237 1.03238,-0.083 2.52635,-0.86174 z m 14.53963,-5.35597 c 0.76093,-0.69123 2.02582,-1.65055 2.81088,-2.13184 0.78505,-0.48128 2.90825,-2.14815 4.71821,-3.70416 2.47016,-2.12357 3.65607,-3.36649 4.75532,-4.98393 0.80545,-1.18515 2.2979,-3.03301 3.31655,-4.10634 1.01864,-1.07333 2.20294,-2.60397 2.63177,-3.40143 0.77353,-1.43844 0.77458,-1.44627 0.1323,-0.99011 -0.35608,0.25288 -1.40292,0.96726 -2.32632,1.5875 -1.21455,0.8158 -1.85044,1.46413 -2.29909,2.34408 -1.67992,3.29486 -7.19184,9.51597 -10.36842,11.70245 -1.35938,0.93568 -3.95306,2.01555 -4.86101,2.02385 -0.37762,0.004 -0.90033,0.24245 -1.16155,0.53111 -0.45869,0.50684 -0.45329,0.55665 0.15743,1.4534 0.34781,0.51071 0.73995,0.92939 0.87141,0.93038 0.13146,9.9e-4 0.86159,-0.56374 1.62252,-1.25496 z m -106.935444,-3.90993 c 0.854254,-0.65082 1.67602,-1.1833 1.826148,-1.1833 0.341329,0 0.07272,-6.06646 -0.328018,-7.40834 -0.152106,-0.50932 -0.583089,-2.47385 -0.95774,-4.36562 -0.823966,-4.16055 -1.151531,-5.32283 -3.854122,-13.67535 -1.162372,-3.59238 -2.283628,-6.67287 -2.491679,-6.84554 -0.208052,-0.17266 -0.884226,-0.36652 -1.50261,-0.4308 -1.580805,-0.1643 -3.295957,0.76008 -4.01942,2.16627 -1.482533,2.88158 0.550171,13.21658 3.834095,19.49391 0.411658,0.7869 2.103699,5.22387 2.103699,5.51645 0,0.15576 0.484735,0.97056 1.07719,1.81066 0.891752,1.2645 1.11707,1.84507 1.308855,3.37245 0.301389,2.40027 0.671134,3.39813 1.117778,3.01663 0.182949,-0.15627 1.03157,-0.81661 1.885824,-1.46742 z m -106.432374,-3.01833 c 2.583666,-1.35747 3.778154,-1.8203 6.454187,-2.50078 4.31292,-1.09673 8.531188,-1.82723 11.641666,-2.01607 4.092131,-0.24842 12.898052,-0.0992 14.948958,0.25341 0.800365,0.13759 3.547449,0.33387 6.104632,0.43619 3.997633,0.15995 4.924913,0.11952 6.614583,-0.2884 2.412288,-0.58237 4.023913,-1.36912 5.854999,-2.85825 0.771005,-0.62702 1.788781,-1.36798 2.261724,-1.64656 0.57137,-0.33657 0.8598948,-0.70932 0.8598948,-1.11093 0,-0.60732 -0.9334858,-1.77972 -1.2733068,-1.59919 -1.751467,0.93046 -5.768162,2.21642 -7.81161,2.5009 -0.570596,0.0794 -1.140318,0.0161 -1.301014,-0.14456 -0.336848,-0.33685 -0.565842,-0.25131 3.574379,-1.33518 1.710678,-0.44785 3.550578,-0.99821 4.088668,-1.22304 l 0.978345,-0.40878 -0.71523,-0.6632 c -0.834601,-0.77388 -0.809747,-0.54912 -0.31761,-2.87225 0.262176,-1.2376 0.608171,-2.06294 1.064472,-2.53922 l 0.67604,-0.70563 -2.000792,-1.42953 c -2.575157,-1.8399 -4.126657,-2.61524 -7.545674,-3.77084 -4.534354,-1.53258 -8.048583,-2.11839 -11.641666,-1.94062 -3.565465,0.17641 -6.717447,0.90422 -15.08125,3.48234 -3.128698,0.96442 -6.747745,2.05158 -8.042327,2.41592 -5.073653,1.42791 -7.184705,2.93614 -5.743326,4.10329 1.07207,0.86811 2.748692,0.54509 6.964291,-1.34176 1.916347,-0.85773 5.126987,-1.60107 7.615112,-1.76306 3.828116,-0.24924 8.091177,1.0902 12.038542,3.78246 1.164166,0.794 2.533385,1.72879 3.042708,2.07731 0.509323,0.34851 1.428429,1.02163 2.042458,1.49582 1.170346,0.90381 4.327754,2.30893 5.233583,2.32907 0.809398,0.018 1.376058,0.45323 1.034625,0.79467 -0.672572,0.67257 -4.799659,-0.9646 -7.421425,-2.94401 -3.088918,-2.3321 -5.709068,-3.9936 -7.964735,-5.05064 l -2.301064,-1.07832 -0.934117,0.57104 c -0.513764,0.31407 -5.220367,2.697 -10.459117,5.29541 -12.043959,5.97378 -14.69822,7.57344 -16.550916,9.97488 -1.271796,1.64849 -1.306305,2.1417 -0.183979,2.62951 1.277602,0.5553 1.492646,0.50858 4.195292,-0.9114 z m 42.616557,-8.89457 c 0.119663,-0.57471 0.589232,-0.60987 0.696635,-0.0522 0.05578,0.28961 -0.074,0.46302 -0.346506,0.46302 -0.254192,0 -0.400041,-0.17114 -0.350129,-0.41085 z m 94.622386,2.33089 c 0.66775,-0.10836 1.39972,-0.58246 2.46456,-1.5963 0.83308,-0.79319 1.88819,-1.6693 2.34468,-1.94691 0.72546,-0.44117 0.81968,-0.62899 0.7482,-1.49131 l -0.0818,-0.98656 -1.56854,-0.0808 c -1.82247,-0.0938 -4.25714,0.68769 -5.17024,1.65963 -0.493332,0.52514 -1.860177,4.66383 -1.860177,5.63248 0,0.21466 0.392256,0.0883 1.086725,-0.35011 0.597702,-0.37731 1.514162,-0.75538 2.036582,-0.84016 z m -37.519133,1.13246 c 0,-0.24354 -1.020058,-2.6983 -1.928122,-4.64 -0.51041,-1.09141 -1.431367,-3.53219 -2.046572,-5.42396 -0.615205,-1.89177 -1.173467,-3.49912 -1.240583,-3.57188 -0.06711,-0.0728 -0.498712,0.34357 -0.959104,0.92517 -0.460392,0.58161 -1.508039,1.78432 -2.328103,2.67271 -1.662067,1.80053 -2.239917,2.71152 -1.906922,3.00629 0.122621,0.10855 1.532636,1.00697 3.133365,1.99649 1.600729,0.98953 3.413742,2.22739 4.028917,2.7508 2.803281,2.38515 3.247124,2.69739 3.247124,2.28438 z m 23.483148,-2.88897 c 0.880509,-0.0244 1.160727,-0.14656 1.285871,-0.56041 0.08801,-0.29104 0.635963,-1.66026 1.217679,-3.04271 1.790198,-4.2544 2.048903,-5.23668 2.473778,-9.39271 0.08926,-0.87312 0.501572,-2.9031 0.916247,-4.51106 0.843513,-3.27085 0.874966,-2.88423 -0.654092,-8.04017 -1.090031,-3.67556 -1.192868,-3.9165 -1.972974,-4.62248 -0.543952,-0.49227 -0.573923,-0.48571 -2.207319,0.48321 -0.910734,0.54024 -1.834474,1.07626 -2.052755,1.19116 -0.648203,0.3412 -0.994655,2.5875 -0.860227,5.57747 0.207738,4.62057 -0.798927,13.00809 -2.40044,20.00041 -0.336369,1.46861 -0.562218,3.09302 -0.501888,3.6098 l 0.109693,0.93959 1.760285,-0.80043 c 0.98285,-0.44692 2.257524,-0.81423 2.886142,-0.83167 z m 106.86658,-4.44292 c 1.84523,-1.34065 2.4962,-2.01669 3.63049,-3.77031 2.54005,-3.92692 2.63583,-4.14542 3.95211,-9.01593 1.23605,-4.57366 1.53182,-9.25011 0.68608,-10.84792 -2.12989,-4.0239 -2.57094,-4.65835 -4.82967,-6.94751 -1.32937,-1.34728 -2.64246,-2.52114 -2.91797,-2.60859 -0.27551,-0.0874 -1.19813,-0.87151 -2.05028,-1.74238 l -1.54936,-1.5834 -6.15483,0.12902 c -3.38516,0.071 -7.10227,0.25771 -8.26026,0.41499 -2.28966,0.31097 -7.16107,1.48951 -8.55472,2.06963 -0.87638,0.36481 -0.93684,0.86867 -0.10601,0.88355 1.30349,0.0233 10.52276,6.02863 13.36765,8.70748 3.29661,3.1042 8.69928,12.26135 9.81547,16.63653 0.87687,3.43713 1.07901,6.91072 0.51472,8.84537 -0.0743,0.25466 -0.0578,0.46302 0.0366,0.46302 0.0944,0 1.18339,-0.7351 2.42,-1.63355 z m -0.92437,-3.08544 c 0.0485,-0.12159 0.93383,-0.94549 1.9674,-1.83088 2.03694,-1.74493 3.00744,-2.8723 4.32736,-5.0268 0.46843,-0.76462 0.96217,-1.32194 1.09719,-1.23849 0.27321,0.16886 0.30355,0.10776 -1.23929,2.49641 -1.04937,1.62466 -3.28328,3.98132 -4.97567,5.24907 -0.77802,0.5828 -1.3359,0.74903 -1.17699,0.35069 z m -21.32806,-29.88233 c -0.31858,-0.31858 -0.11076,-0.559 0.71261,-0.8244 0.98347,-0.317 3.53517,-0.80461 5.09322,-0.97326 1.48754,-0.16102 0.46191,0.27409 -1.5875,0.67348 -0.87312,0.17015 -2.14629,0.52584 -2.82927,0.79042 -0.68297,0.26458 -1.30805,0.41477 -1.38906,0.33376 z m -152.9831102,31.52005 c 0.09598,-1.13543 0.357642,-2.32319 0.589879,-2.67763 0.488737,-0.74591 0.492073,-0.74049 -0.59985,-0.9743 -1.1288088,-0.24171 -1.8062728,0.45152 -2.0536998,2.10148 -0.103905,0.69289 -0.252189,1.42467 -0.32952,1.6262 -0.147174,0.38352 1.711009,2.27988 2.036735,2.07857 0.101178,-0.0625 0.2615828,-1.03198 0.3564558,-2.15432 z m 83.1222252,0.94081 c 1.16165,-0.40829 2.04473,-0.52943 3.37519,-0.46302 l 1.80192,0.0899 0.605462,-1.71979 c 0.76923,-2.18498 1.21259,-3.0276 3.1174,-5.92473 0.85082,-1.29407 1.54695,-2.46065 1.54695,-2.5924 0,-0.13175 0.41516,-0.88854 0.92257,-1.68175 1.52435,-2.38295 2.67352,-4.86175 3.80169,-8.20042 1.99027,-5.8899 2.42463,-8.39978 1.51414,-8.74917 -0.52634,-0.20197 -6.54591,1.44072 -7.09268,1.93553 -0.28583,0.25868 -1.38555,1.78093 -2.44381,3.38278 -1.05827,1.60185 -2.249192,3.2101 -2.646502,3.57391 -0.89074,0.81563 -1.88486,2.72407 -2.14384,4.11565 -0.10684,0.57405 -0.77936,2.88919 -1.49449,5.14476 -0.71514,2.25558 -1.41227,4.5773 -1.5492,5.15938 -0.52181,2.21837 -1.21632,6.48229 -1.05584,6.48229 0.0923,0 0.87574,-0.24883 1.74104,-0.55296 z m -48.248939,-1.2513 c 0.677746,-0.82666 2.013861,-2.42757 2.969144,-3.55757 1.582265,-1.87166 1.720518,-2.13074 1.553098,-2.91042 -0.263048,-1.22504 -0.241157,-7.11827 0.02849,-7.66889 0.137647,-0.28108 0.124323,-0.46302 -0.03391,-0.46302 -0.270718,0 -2.700928,3.09422 -6.184632,7.87446 -1.112675,1.52678 -2.124706,2.85017 -2.248959,2.94086 -0.501911,0.36633 -3.056037,3.50837 -2.943439,3.62097 0.150933,0.15093 5.00164,1.6531 5.36336,1.66092 0.14552,0.003 0.819102,-0.67064 1.496848,-1.49731 z m 24.053005,-21.07457 c 5.837223,-0.93464 5.142451,-0.70155 11.031767,-3.70117 l 1.127454,-0.57425 -0.631617,-0.59337 c -0.966702,-0.90817 -3.105322,-1.35235 -6.518083,-1.35377 -1.67349,-7e-4 -3.518958,0.0469 -4.101042,0.10583 -0.582083,0.0589 -2.010833,0.18726 -3.175,0.28522 -1.164166,0.098 -2.646843,0.29348 -3.294836,0.43447 -0.647994,0.14099 -3.029244,0.42655 -5.291667,0.63457 -5.518995,0.50746 -10.508343,1.0977 -10.79936,1.27755 -0.344741,0.21307 -0.06559,1.81101 0.411484,2.35545 0.732559,0.836 2.783596,1.22702 6.74473,1.28586 2.069641,0.0307 4.536889,0.13709 5.482775,0.23632 3.210714,0.33685 4.922899,0.26225 9.013395,-0.39271 z m 128.602529,-3.13176 c 3.48225,-3.42054 4.2586,-4.62751 4.2835,-6.65941 0.0151,-1.23467 -0.12335,-1.83188 -0.61492,-2.65187 -1.08411,-1.80843 -2.16269,-3.02272 -4.01234,-4.51717 -3.55608,-2.87318 -4.41684,-3.10156 -6.99935,-1.85714 -1.80029,0.8675 -6.71239,4.45598 -6.71239,4.90366 0,0.12785 0.92273,1.03988 2.05052,2.02674 4.15037,3.63172 6.43749,6.03606 7.3991,7.77828 1.17433,2.12762 1.95043,3.43959 2.0347,3.43959 0.0352,0 1.19228,-1.10821 2.57118,-2.46268 z m -151.109674,0.7912 v -1.1423 l -1.389063,-0.43179 c -2.138408,-0.66472 -8.202891,-2.06734 -8.341071,-1.92916 -0.06763,0.0676 -0.04732,0.5262 0.04513,1.01903 0.167859,0.89477 0.880111,1.74108 1.879793,2.23362 0.633293,0.31202 4.808131,1.09441 6.482291,1.21483 0.654844,0.0471 1.220391,0.10643 1.256771,0.13185 0.03638,0.0254 0.06615,-0.46781 0.06615,-1.09608 z m -9.703684,-0.61928 c 0.09575,-0.0958 0.0668,-0.30412 -0.06434,-0.46303 -0.131141,-0.15891 -0.341105,-0.68661 -0.466588,-1.17268 -0.207003,-0.80184 -0.420559,-0.95805 -2.303855,-1.68518 -1.69394,-0.65401 -2.117912,-0.73478 -2.30519,-0.43915 -0.369981,0.58403 -0.274577,1.29828 0.296931,2.223 0.708491,1.14636 0.90705,1.2222 4.38232,1.67388 0.157647,0.0205 0.364974,-0.0411 0.460725,-0.13684 z m -5.906732,-3.00308 c 0,-1.05562 -0.0091,-1.06499 -1.9750622,-2.03778 -1.086284,-0.53751 -2.054912,-0.89744 -2.152507,-0.79984 -0.0976,0.0976 0.0456,0.50858 0.318206,0.9133 0.272608,0.40473 0.616158,0.95846 0.763444,1.23052 0.243538,0.44986 2.3577922,1.7543 2.8433892,1.7543 0.111391,0 0.20253,-0.47722 0.20253,-1.0605 z m 75.501467,-1.18205 c 1.28929,-0.35667 2.47992,-0.62308 2.64583,-0.59203 0.45381,0.0849 0.2101,-2.44969 -0.31683,-3.29495 -1.28564,-2.06235 -10.772842,-11.73955 -13.007552,-13.26805 -0.80036,-0.54743 -2.22911,-1.48299 -3.175,-2.07901 -0.94588,-0.59601 -2.360025,-1.51425 -3.142533,-2.04052 -2.596085,-1.74597 -2.948249,-1.93745 -3.308843,-1.79907 -0.608651,0.23356 -0.65369,1.44768 -0.09555,2.57578 0.316788,0.64029 1.589479,2.00178 3.20543,3.42909 3.595126,3.17543 10.717138,10.41202 11.761448,11.95065 0.46226,0.68106 0.84569,1.5145 0.85208,1.85208 0.0256,1.35107 1.28179,3.92418 1.91272,3.9178 0.17854,-0.002 1.3795,-0.29511 2.6688,-0.65177 z m -80.1459992,-0.99859 c -0.103763,-0.47295 -0.628177,-1.51474 -1.165364,-2.31511 -0.537187,-0.80036 -1.186737,-1.99099 -1.443443,-2.64583 -0.506796,-1.29281 -0.88297,-1.85208 -1.245725,-1.85208 -0.357649,0 -0.276726,1.00281 0.203982,2.5278 0.57282,1.81719 0.39402,2.2347 -0.957031,2.2347 -0.586651,0 -1.06663698,0.10014 -1.06663698,0.22253 0,0.44067 4.31583398,2.63412 5.24654298,2.66646 0.560061,0.0195 0.599109,-0.0571 0.427675,-0.83847 z m 178.6504622,-4.65744 c 2.38572,-1.89924 5.84071,-5.45505 6.90078,-7.10215 1.72856,-2.6858 1.76335,-5.61325 0.0918,-7.72379 -0.89088,-1.12482 -0.71836,-1.6467 0.31954,-0.96664 1.40362,0.91969 5.20491,-0.37984 6.30158,-2.1543 0.69964,-1.13203 2.96047,-7.87687 3.41751,-10.1956 0.30965,-1.57094 0.29567,-2.03208 -0.1203,-3.96782 -0.51983,-2.41907 -0.88124,-3.26732 -1.71264,-4.01973 -0.75944,-0.68728 -0.69843,-0.95056 0.22027,-0.95056 1.54035,0 2.12687,-0.43979 2.91073,-2.18252 1.21988,-2.71213 1.60646,-4.76416 1.58581,-8.41771 -0.0102,-1.80972 -0.10824,-3.51916 -0.21781,-3.79877 -0.18995,-0.48474 -0.21916,-0.4799 -0.62829,0.10422 -0.65065,0.92892 -1.81259,1.5911 -2.79537,1.59304 -1.15744,0.002 -0.98037,-0.48214 0.34246,-0.93691 1.20068,-0.41278 2.80439,-1.91177 2.83554,-2.65039 0.0207,-0.49039 -1.3208,-7.45309 -1.90293,-9.8768 -0.39899,-1.66122 -1.07258,-2.47054 -3.29137,-3.95455 -1.55045,-1.037 -5.39453,-2.68794 -6.25867,-2.68794 -0.0876,0 -0.22879,0.74441 -0.31375,1.65424 -0.085,0.90983 -0.41035,2.32288 -0.72309,3.14011 -0.56798,1.48423 -2.66788,4.19787 -3.25437,4.20553 -0.61696,0.008 -1.01412,0.46628 -1.22867,1.41752 -0.19024,0.84351 -0.0842,1.22976 0.81409,2.96569 0.56805,1.09773 1.22453,2.75908 1.45885,3.6919 0.49028,1.95181 0.78054,2.27315 2.15021,2.38052 1.15242,0.0903 2.59467,0.59478 2.36297,0.82648 -0.0874,0.0874 -0.70094,0.0224 -1.36349,-0.14448 -0.99491,-0.25052 -1.34138,-0.23262 -1.99003,0.10281 -0.96056,0.49672 -1.35577,1.23657 -2.11886,3.96657 -0.82089,2.93681 -0.83397,5.0097 -0.0397,6.28969 0.88388,1.4244 1.42852,1.63713 4.01005,1.5663 1.96369,-0.0539 3.29026,0.20604 2.90275,0.56875 -0.0685,0.0642 -1.13666,0.19495 -2.37359,0.29063 -4.86964,0.37671 -5.2883,0.73039 -8.01288,6.76921 -1.25834,2.789 -2.12424,5.95317 -1.92288,7.02654 0.1805,0.9621 1.03971,1.82568 2.05518,2.06562 0.93808,0.22165 3.04507,1.65015 3.39311,2.30046 0.41045,0.76694 -0.0507,0.63381 -1.77767,-0.5132 -2.07212,-1.37623 -3.82221,-1.74945 -5.24423,-1.11839 -1.1318,0.50227 -3.7537,3.14217 -5.09579,5.13077 -0.44981,0.6665 -1.0628,1.54644 -1.36219,1.95542 -0.46753,0.63867 -1.3512,4.16888 -1.34515,5.37381 0.001,0.21828 0.45122,0.6533 1.00027,0.9667 1.53167,0.87428 5.11454,3.86038 6.06758,5.05695 0.46873,0.58849 1.05633,1.49798 1.30578,2.02109 0.26174,0.54888 0.64656,0.9511 0.90995,0.9511 0.25102,0 1.03264,-0.45874 1.73693,-1.01942 z m 4.72012,-16.97225 c -0.10561,-0.17088 -0.073,-0.42976 0.0726,-0.57528 0.17639,-0.17639 0.32859,-0.16102 0.4566,0.0461 0.10561,0.17088 0.073,0.42976 -0.0726,0.57528 -0.17639,0.17639 -0.32859,0.16102 -0.4566,-0.0461 z m 7.411,-19.31027 c -0.19515,-0.31575 0.0525,-0.79807 0.40982,-0.79807 0.32195,0 0.32403,0.71613 0.003,0.91475 -0.13547,0.0837 -0.32109,0.0312 -0.41249,-0.11668 z m -1.14258,-13.25333 c 0.0521,-0.15643 0.20792,-0.28442 0.34616,-0.28442 0.13824,0 0.29402,0.12799 0.34616,0.28442 0.0521,0.15644 -0.10363,0.28443 -0.34616,0.28443 -0.24253,0 -0.39831,-0.12799 -0.34616,-0.28443 z m 2.20954,0.0381 c -0.19567,-0.3166 0.30206,-0.6303 0.65448,-0.41249 0.2959,0.18288 0.10164,0.65879 -0.2689,0.65879 -0.12835,0 -0.30186,-0.11083 -0.38558,-0.2463 z m -133.294365,32.94443 0.06694,-1.16593 -1.054471,-0.17815 c -0.579959,-0.098 -1.902598,-0.59598 -2.939198,-1.10665 -1.343069,-0.66166 -1.966395,-0.84683 -2.168892,-0.64434 -0.513747,0.51375 0.346921,1.56208 2.168145,2.64089 2.540739,1.50502 2.749146,1.60596 3.331372,1.61337 0.440198,0.006 0.540421,-0.18929 0.596104,-1.15919 z m -6.641564,-3.46383 c 0.355657,-0.35566 0.355597,-0.52104 -5.49e-4,-1.52135 -0.219771,-0.61728 -0.471764,-1.4582 -0.559984,-1.86872 -0.215322,-1.00198 -0.743132,-0.77134 -1.053441,0.46032 -0.21156,0.83971 -0.153689,1.18028 0.367496,2.16272 0.340228,0.64133 0.670087,1.16606 0.73302,1.16606 0.06293,0 0.293989,-0.17956 0.513458,-0.39903 z m -0.955927,-5.17604 c 0.439407,-0.82103 1.074421,-3.42896 0.902619,-3.70694 -0.323193,-0.52294 -0.957939,-0.19932 -1.323067,0.67456 -0.430203,1.02962 -0.521465,3.58037 -0.1281,3.58037 0.140401,0 0.387247,-0.24659 0.548548,-0.54799 z m 1.855098,-5.56308 c 0.530373,-1.03962 0.54067,-1.82643 0.0239,-1.82643 -0.134312,0 -0.322579,0.31227 -0.418371,0.69394 -0.156712,0.62439 -0.266977,0.67887 -1.100248,0.54365 -0.85809,-0.13925 -0.913019,-0.10764 -0.748176,0.43054 0.490626,1.6018 1.471172,1.671 2.242895,0.1583 z m 110.053588,-7.25165 c 3.61015,-1.23238 4.15343,-1.60776 5.05212,-3.49079 1.03869,-2.17638 2.12863,-3.82369 3.65933,-5.53067 3.96701,-4.42385 4.56563,-5.31661 5.33217,-7.95222 0.97,-3.33516 1.27048,-5.19589 1.11484,-6.90371 -0.10639,-1.16741 -0.0602,-1.65364 0.15717,-1.65364 0.39047,0 0.82395,1.12264 0.82395,2.13389 0,1.05354 0.7306,1.02615 2.76113,-0.10353 1.28523,-0.71503 1.72235,-1.14798 2.40651,-2.38355 1.63594,-2.95444 1.81741,-6.22478 0.41767,-7.52696 -0.90359,-0.84061 -3.34289,-2.05446 -4.58139,-2.27979 -1.31407,-0.23909 -4.09972,0.27158 -5.36668,0.98382 -1.02271,0.57493 -2.56195,2.45109 -2.88864,3.52092 -0.20041,0.65631 0.35054,0.88328 2.15817,0.88909 0.84295,0.003 1.12448,0.1074 1.12448,0.41818 0,0.36124 -0.34909,0.39119 -2.71373,0.23279 -4.73839,-0.31741 -8.24725,1.04626 -11.49812,4.46858 -2.08367,2.19357 -2.41725,2.93564 -2.64183,5.87699 -0.14905,1.95212 0.27723,3.54115 2.12593,7.92478 2.1649,5.13341 2.34542,10.38098 0.39892,11.59659 -0.62018,0.38731 -0.63955,0.82816 -0.0248,0.56472 0.25466,-0.10913 1.23692,-0.46261 2.18281,-0.78549 z m 14.16651,-27.10025 c -0.0837,-0.13546 -0.0312,-0.32108 0.11667,-0.41249 0.31575,-0.19514 0.79807,0.0525 0.79807,0.40982 0,0.32195 -0.71613,0.32404 -0.91474,0.003 z m -1.32292,-1.85208 c -0.0837,-0.13547 -0.0312,-0.32109 0.11668,-0.41249 0.31574,-0.19514 0.79806,0.0525 0.79806,0.40982 0,0.32195 -0.71612,0.32404 -0.91474,0.003 z"
       id="path1" /></g></svg>
