<?xml version="1.0" encoding="UTF-8" standalone="no"?>
<!-- Created with Inkscape (http://www.inkscape.org/) -->

<svg
   width="241.6675mm"
   height="164.78905mm"
   viewBox="0 0 241.6675 164.78905"
   version="1.1"
   id="svg1"
   xml:space="preserve"
   xmlns="http://www.w3.org/2000/svg"
   xmlns:svg="http://www.w3.org/2000/svg"><defs
     id="defs1" /><g
     id="layer1"
     transform="translate(34.241943,32.872098)"><path
       style="fill:#000000"
       d="m 95.911455,131.75679 c -0.945885,-0.13412 -2.791354,-0.37076 -4.101041,-0.52586 -4.810253,-0.56968 -8.817335,-1.08808 -12.303125,-1.59168 -7.755902,-1.12052 -11.412737,-1.33163 -20.182026,-1.16511 -7.943658,0.15084 -9.794212,0.2965 -15.801306,1.24376 -2.235253,0.35247 -4.858992,0.56804 -7.011458,0.57606 -3.338894,0.0125 -4.221288,-0.10943 -9.524999,-1.31564 -0.873125,-0.19857 -2.301875,-0.48743 -3.175,-0.64192 -7.691024,-1.36077 -9.568006,-1.89169 -12.797646,-3.61993 -2.6981146,-1.4438 -4.9452718,-3.93198 -5.5940074,-6.19399 -0.4561694,-1.59057 1.0867317,-2.89402 4.9769104,-4.20453 1.90938,-0.64322 3.492868,-1.37118 3.492868,-1.60573 0,-0.0918 -0.506015,-0.45028 -1.124479,-0.79668 -2.001463,-1.12101 -5.5700783,-3.63228 -7.739062,-5.44605 -6.6819593,-5.58768 -11.1608617,-10.607988 -19.479132,-21.833734 -4.291864,-5.791994 -5.18703,-7.169275 -6.863131,-10.559435 -1.981358,-4.007591 -2.41161,-5.540251 -2.314922,-8.246306 0.08011,-2.242123 0.06195,-2.32228 -0.719396,-3.175001 -2.01631,-2.200496 -4.894043,-6.596345 -6.482866,-9.902828 -1.084962,-2.257904 -2.15029,-5.600191 -2.616163,-8.207775 -0.750375,-4.19999 -1.04135,-13.900303 -0.552904,-18.432265 0.144161,-1.337566 0.374675,-3.660046 0.512254,-5.161067 0.196008,-2.138493 0.424268,-3.101226 1.054715,-4.44846 l 0.804572,-1.719331 -1.21566,-2.827582 -1.215661,-2.8275818 0.161837,-3.5145751 c 0.08901,-1.9330164 0.276812,-4.0166102 0.417338,-4.63020847 1.185024,-5.17432473 1.257939,-5.70528163 1.206907,-8.78855013 -0.0289,-1.74625 -0.144625,-3.6662275 -0.257161,-4.2666165 -0.169933,-0.906614 -0.08735,-1.325072 0.487278,-2.469134 0.431432,-0.858961 0.691888,-1.814159 0.691888,-2.537428 0,-0.637951 0.187984,-1.554116 0.417742,-2.035923 0.413299,-0.866698 1.645905,-1.787774 2.392441,-1.787774 0.212328,0 0.827757,-0.473131 1.367621,-1.051404 1.218511,-1.3052 4.18591,-2.516021 5.542427,-2.261537 0.663724,0.124516 1.076714,0.02187 1.701243,-0.422835 1.661659,-1.183205 3.666347,-1.807526 5.825364,-1.814194 1.118313,-0.0035 2.345726,0.112506 2.727585,0.257688 0.618004,0.234965 0.872249,0.119974 2.3139678,-1.046575 2.5226107,-2.04114 5.5089141,-2.997689 15.0178579,-4.810404 3.3196807,-0.632839 5.0716973,-0.82941 7.3126733,-0.82046 3.761362,0.01502 10.57217,1.141694 13.348298,2.208132 2.167119,0.832489 4.576808,2.536637 5.844496,4.133267 0.435864,0.548963 0.830898,1.036929 0.877853,1.08437 0.04695,0.04744 0.595333,-0.466986 1.218619,-1.143171 3.115102,-3.379486 8.740984,-4.635365 16.641809,-3.71499 4.22623,0.492318 9.670949,1.328028 11.112499,1.705658 0.509323,0.133423 1.878542,0.4467 3.042709,0.696171 3.179984,0.681443 12.044756,3.66923 14.90096,5.022226 3.631873,1.720435 5.67466,3.079071 8.468873,5.63256 l 2.46775,2.255151 3.749958,0.0475 c 2.062476,0.02612 4.940582,0.184033 6.395787,0.35091 1.45521,0.166877 3.65787,0.417754 4.89479,0.557505 4.79372,0.541606 10.66689,1.337869 11.59525,1.572042 0.53485,0.134913 1.56778,0.321983 2.29538,0.41571 1.4969,0.192824 6.77378,1.227035 9.45878,1.853818 2.66326,0.6217074 9.27534,2.9202061 11.6972,4.0661935 1.17005,0.5536454 2.61252,1.2152867 3.2055,1.470314 2.51462,1.0814867 10.2009,6.2345099 14.79685,9.9200889 4.06622,3.2607764 6.44609,5.7242966 6.86629,7.1076236 0.30461,1.002811 -0.20843,0.668699 -1.42197,-0.926042 -0.63673,-0.836744 -2.16201,-2.3547913 -3.38951,-3.3734372 -1.2275,-1.0186458 -2.81567,-2.3533259 -3.52926,-2.9659556 -0.7136,-0.6126298 -1.98346,-1.5785776 -2.82192,-2.1465507 -7.36626,-4.9899365 -9.3711,-6.2474896 -11.87706,-7.4500139 -5.72019,-2.7449225 -11.28622,-4.6187974 -17.16407,-5.7785106 -8.3029,-1.638182 -9.99277,-1.933104 -13.15226,-2.295393 -1.78855,-0.205086 -4.7155,-0.549488 -6.50434,-0.765336 -5.53802,-0.668239 -11.239774,-1.050816 -12.591421,-0.84486 l -1.291776,0.196833 1.494104,1.499893 c 2.881739,2.8929054 4.939875,6.4597048 6.361653,11.0248936 0.40789,1.30968757 1.14468,3.6316296 1.63731,5.1598713 0.89856,2.7875294 1.18215,4.3553851 0.61015,3.3733584 -0.1482,-0.2544322 -0.99188,-2.3975572 -1.87484,-4.7625001 -2.112304,-5.6576537 -3.881583,-9.3717193 -5.0202,-10.5383952 -2.917484,-2.989379 -6.397699,-4.675358 -11.983539,-5.805385 -2.683588,-0.542896 -3.383385,-0.788577 -2.24508,-0.788191 2.520047,8.53e-4 10.52671,2.607729 11.941355,3.887965 0.259607,0.234941 0.472013,0.337584 0.472013,0.228095 0,-0.209135 -4.057461,-4.268446 -6.777771,-6.780861 -2.895001,-2.673756 -8.075323,-5.341771 -14.124312,-7.274428 -1.964531,-0.62767 -4.048125,-1.315447 -4.630208,-1.528395 -0.582083,-0.212947 -2.844271,-0.752374 -5.027083,-1.198726 -3.677397,-0.751971 -5.175049,-0.998165 -11.641666,-1.913738 -1.309688,-0.185431 -3.929063,-0.33111 -5.820833,-0.32373 -3.143451,0.01226 -3.66601,0.08738 -6.06953,0.872448 -2.389137,0.780374 -2.75859,0.992916 -4.034896,2.32124 -0.877219,0.912971 -1.404949,1.693972 -1.404949,2.079217 0,0.339354 0.47625,1.353859 1.058333,2.254455 0.582084,0.900596 1.058334,1.920469 1.058334,2.266384 0,0.345915 0.178902,1.057109 0.39756,1.580432 1.105529,2.645904 1.454734,11.7315085 0.4509,11.7315085 -0.337764,0 -0.372953,-0.3603721 -0.230773,-2.3634052 0.329238,-4.6383293 -0.876424,-10.1648703 -2.779481,-12.7406563 -0.367032,-0.496777 -1.108523,-1.643359 -1.647759,-2.54796 -2.424473,-4.067205 -6.64825,-6.321966 -13.507026,-7.210398 -1.302192,-0.168675 -2.457611,-0.362299 -2.567599,-0.430275 -0.594967,-0.36771 -6.632309,-0.112892 -8.9554044,0.377981 -1.3824479,0.292113 -3.346979,0.676162 -4.3656248,0.853443 -5.6509771,0.983472 -9.7225743,2.406798 -11.6072758,4.057607 l -1.2885261,1.128619 0.9143386,1.301585 c 1.1109702,1.581495 1.4657659,2.497971 1.6082599,4.154312 0.1394405,1.620848 -0.1680177,1.816358 -0.5971984,0.379754 -0.7908686,-2.647289 -2.302035,-4.816686 -3.84279,-5.516624 -2.152775,-0.977969 -5.93827,-0.412003 -7.92319,1.184589 -0.737873,0.593517 -0.758785,0.665634 -0.425983,1.469089 0.278347,0.67199 0.28433,0.989025 0.02923,1.548909 l -0.320753,0.703976 -0.341539,-0.782044 c -0.187846,-0.430124 -0.472844,-1.106181 -0.633328,-1.502348 -0.459392,-1.134044 -1.33114,-1.176058 -3.389191,-0.163345 -1.482464,0.729482 -1.845273,1.037835 -2.079526,1.767398 -0.156067,0.486061 -0.487904,0.997993 -0.737414,1.137626 -0.456833,0.255657 -0.487675,0.235361 -0.558811,-0.367729 -0.09038,-0.766225 -1.844932,0.03488 -2.391568,1.091958 -0.357118,0.690592 -0.502341,3.472105 -0.181278,3.472105 0.07818,0 0.593654,-0.440882 1.145493,-0.979738 0.912336,-0.890873 1.003343,-0.927021 1.003343,-0.398535 0,0.579912 -1.840504,2.172023 -2.51089,2.172023 -0.173156,0 -0.462529,0.447536 -0.643051,0.994525 -0.284528,0.862127 -0.259566,1.170327 0.187505,2.315104 0.415137,1.063007 0.474663,1.6044107 0.305189,2.7757878 -0.389905,2.6949577 -0.378767,2.7361016 0.693591,2.5620818 0.772394,-0.1253423 0.927786,-0.076065 0.859896,0.2726879 -0.04558,0.2341223 -0.499274,0.5657979 -1.008218,0.7370569 -0.749348,0.2521546 -0.958941,0.48307 -1.101943,1.2140476 -0.859687,4.39442409 -1.262322,7.1409613 -1.392913,9.5016261 -0.168095,3.038612 -0.0052,3.7200291 1.676414,7.0114589 0.446077,0.873125 0.812558,1.736328 0.814402,1.918229 0.0088,0.870349 3.14313,0.08711 5.031078,-1.25723 0.519275,-0.369756 0.813243,-0.445594 0.938931,-0.242227 0.488721,0.790766 -3.249267,2.888519 -5.147053,2.888519 -1.215774,0 -1.256451,0.02701 -1.835559,1.218993 -0.419462,0.863379 -0.670535,2.079062 -0.860642,4.167188 -0.147625,1.621507 -0.374338,3.900695 -0.503806,5.064861 -0.290682,2.6138 -0.127625,12.051454 0.268964,15.56749 0.566629,5.023553 2.429273,9.981919 5.47975,14.587118 3.145705,4.74896 5.049808,6.73146 6.914855,7.199557 1.448552,0.363564 6.635749,-0.906671 9.163707,-2.243997 1.9384287,-1.025457 6.6572347,-3.227875 6.9159047,-3.227875 0.1032872,0 -0.10085,0.307709 -0.4536382,0.683798 -0.3527882,0.376089 -2.4273705,1.547885 -4.6101829,2.603991 -5.6456946,2.731545 -9.1891986,3.759198 -11.3151856,3.28152 -0.604669,-0.13586 -1.234102,-0.358813 -1.398742,-0.495452 -0.500995,-0.415789 -0.64753,0.01819 -0.64753,1.917714 0,2.895537 1.994163,7.578449 5.490166,12.892604 1.32324,2.011413 3.940429,5.535762 4.925301,6.632492 0.196019,0.218281 0.808323,1.051719 1.360677,1.852083 0.552354,0.800365 1.7354983,2.348177 2.6292095,3.439584 0.8937112,1.091406 1.7998268,2.23837 2.0135903,2.548808 1.2149115,1.764356 6.85106337,7.620661 9.8021936,10.185081 8.2658926,7.18274 16.4267126,11.2737 24.4639936,12.26362 8.406202,1.03537 19.13909,0.31658 24.456532,-1.63786 1.382448,-0.50812 2.989792,-1.09809 3.571875,-1.31104 4.021642,-1.47129 9.300397,-4.74585 14.2875,-8.86292 2.962291,-2.44551 6.893495,-5.306613 10.846497,-7.894023 1.667433,-1.091406 3.177368,-2.133203 3.355412,-2.315104 0.258506,-0.264107 -0.206598,-0.331778 -2.308889,-0.335935 -3.901322,-0.0077 -7.805283,-0.797317 -13.875997,-2.806515 -3.489464,-1.154893 -8.20296,-2.978695 -9.526398,-3.686067 -0.363802,-0.194451 -1.822317,-0.897617 -3.241146,-1.562591 -1.418828,-0.664974 -2.579687,-1.336002 -2.579687,-1.491173 0,-0.155171 0.0893,-0.239794 0.198438,-0.188051 0.815418,0.386585 5.584321,2.70407 5.955298,2.894023 0.255857,0.131007 1.38695,0.603358 2.513541,1.049668 1.126591,0.44631 2.405535,0.969391 2.842098,1.162402 1.375937,0.608325 7.050177,2.428684 9.405404,3.017358 2.640583,0.659997 6.185125,1.016803 8.967381,0.902689 1.199037,-0.04918 2.037002,0.0299 2.143545,0.202294 0.231974,0.375342 3.222075,-2.449262 6.799995,-6.423628 2.963095,-3.291416 6.09293,-7.578143 7.68651,-10.527703 0.511043,-0.945886 1.311383,-2.315105 1.778533,-3.042709 1.52867,-2.380965 4.54185,-8.411685 5.54049,-11.08903 1.0398,-2.787685 1.90197,-6.027253 2.83877,-10.666522 0.93636,-4.637127 0.78827,-10.981552 -0.48649,-20.842365 -0.65599,-5.07436 -2.27817,-12.086749 -3.44089,-14.874315 -0.46806,-1.122155 -0.44799,-1.454553 0.0816,-1.350815 0.24018,0.04705 0.60889,0.561796 0.81935,1.143879 0.35705,0.987558 0.5357,1.573446 1.5328,5.027084 0.95374,3.303404 1.79688,8.672467 2.54491,16.205729 0.17701,1.782631 0.35868,3.241146 0.40372,3.241146 0.045,0 0.82457,-0.54674 1.7323,-1.214979 0.90774,-0.668238 2.72378,-1.731992 4.03564,-2.363898 5.35794,-2.580841 20.04483,-6.813042 22.18895,-6.394007 0.45395,0.08872 0.42113,0.118532 -0.16212,0.147269 -2.56357,0.126309 -18.73674,5.027129 -21.77018,6.596835 -1.87617,0.970859 -4.74452,3.084204 -5.01178,3.692583 -0.14365,0.326992 -0.39756,0.594531 -0.56425,0.594531 -0.20992,0 -0.34318,1.321504 -0.43357,4.299479 -0.16319,5.376958 -1.17488,10.411253 -3.37711,16.805042 -0.968,2.810408 -4.42411,9.833416 -5.69449,11.571521 -0.31908,0.436562 -0.88882,1.41942 -1.26608,2.184128 -1.078149,2.185392 -4.492733,7.142684 -6.457127,9.374449 -3.470551,3.942922 -7.890619,8.579123 -9.198282,9.648059 -0.727604,0.594773 -2.133272,1.569904 -3.123706,2.166959 -0.990434,0.597054 -2.895434,1.898282 -4.233333,2.891617 -1.337899,0.993336 -2.789732,2.032246 -3.226294,2.308686 l -0.79375,0.50262 1.190625,0.36797 c 0.714376,0.22077 3.019808,0.42605 5.763596,0.5132 4.846203,0.15391 7.90255,-0.11005 11.43432,-0.98754 1.091406,-0.27117 2.341562,-0.5675 2.778125,-0.65852 1.018821,-0.21241 7.316416,-2.513578 7.697446,-2.812684 0.15901,-0.124824 1.52823,-0.59035 3.04271,-1.034503 1.51448,-0.444152 5.0995,-1.577895 7.96671,-2.519428 5.71796,-1.877655 12.01304,-3.559797 13.28737,-3.550588 l 0.8141,0.0059 -0.66146,0.517401 c -0.3638,0.28457 -0.82157,0.520047 -1.01726,0.523283 -0.19569,0.0032 -1.20772,0.253049 -2.24896,0.555141 -1.04124,0.302092 -2.72659,0.785197 -3.74524,1.073566 -1.01865,0.28837 -2.62599,0.806722 -3.57188,1.151895 -0.94588,0.345172 -4.27963,1.461643 -7.40833,2.481046 -3.1287,1.019403 -7.17183,2.404711 -8.98475,3.078471 -3.58465,1.33221 -8.558942,2.56923 -12.314206,3.06231 -3.593999,0.47191 -11.155261,0.17768 -13.349471,-0.51947 l -1.707805,-0.54261 -0.722266,0.58745 c -6.349427,5.16431 -7.057689,5.66339 -11.075665,7.80448 -2.21588,1.1808 -7.681601,3.43195 -10.31875,4.24996 -4.396898,1.36386 -16.422621,1.894 -22.904486,1.00971 -2.908941,-0.39685 -8.124231,-1.91392 -11.092839,-3.22678 l -1.463509,-0.64723 -1.813442,0.92418 c -0.997393,0.5083 -1.94714,0.92418 -2.110549,0.92418 -0.763418,0 -3.7462388,1.43041 -4.3950873,2.10766 -0.6702305,0.69957 -0.7024669,0.82899 -0.4198221,1.68541 0.3232543,0.97947 1.6730029,2.99397 2.3756391,3.54564 0.229243,0.17999 1.6687613,0.97425 3.1989283,1.76502 2.587129,1.337 3.12491,1.50414 7.672917,2.38465 2.689936,0.52078 5.426574,1.07093 6.081418,1.22254 0.654844,0.15162 3.036093,0.62348 5.291666,1.04858 3.742713,0.70537 4.320662,0.75058 6.614583,0.51748 3.321165,-0.33749 6.684938,-0.79548 6.922943,-0.94258 0.105056,-0.0649 1.120449,-0.18297 2.25643,-0.26232 1.13598,-0.0794 2.660731,-0.25594 3.388335,-0.39242 0.727604,-0.13648 5.490104,-0.26248 10.583333,-0.27999 9.316024,-0.032 10.609827,0.0491 17.594791,1.10282 1.81901,0.27442 5.212291,0.74459 7.540625,1.04482 2.328333,0.30024 5.06677,0.67175 6.085416,0.82559 2.761743,0.41707 12.099053,0.6011 14.684373,0.28941 1.23693,-0.14913 3.97537,-0.63241 6.08542,-1.07395 3.36026,-0.70316 5.34085,-1.00987 9.65729,-1.49548 2.20069,-0.24758 6.40515,-0.6825 7.80521,-0.80738 0.80036,-0.0714 1.93146,-0.19546 2.51354,-0.27572 0.58208,-0.0803 4.42518,-0.23532 8.54023,-0.34459 l 7.48189,-0.19868 0.91588,-0.8877 c 0.50373,-0.48823 0.98633,-1.2633 1.07245,-1.72237 0.20913,-1.11472 -0.28066,-2.83457 -1.07664,-3.78053 -1.35373,-1.60883 -1.35783,-2.77586 -0.0113,-3.22026 1.6289,-0.53758 3.82716,-0.3763 6.88998,0.50551 4.37153,1.2586 4.67949,1.32987 5.77639,1.3367 1.22368,0.008 4.77333,-1.17811 5.80067,-1.93765 1.00796,-0.74522 1.96767,-2.45841 2.4653,-4.40086 0.40816,-1.59322 0.36298,-2.4778 -0.20976,-4.10622 -0.33842,-0.96223 -3.12792,-3.39706 -5.11097,-4.46113 -1.30356,-0.69948 -1.91414,-1.492 -1.14947,-1.492 0.57901,0 3.425,1.90859 5.45156,3.65595 2.4726,2.13194 3.73295,2.89293 7.1397,4.31088 4.39485,1.82922 6.6527,2.35866 10.26366,2.4067 1.74625,0.0232 4.54422,-0.11389 6.21771,-0.30472 2.66644,-0.30404 3.59892,-0.29035 7.54062,0.11077 2.47386,0.25174 4.58828,0.51279 4.69872,0.5801 0.39845,0.24286 1.25441,-0.22246 1.25441,-0.68191 0,-0.73173 -5.72684,-2.45244 -12.80621,-3.8478 -8.75843,-1.72631 -12.3075,-2.89693 -15.14269,-4.99466 -1.76897,-1.30883 -5.01722,-4.781545 -5.74527,-6.142276 -0.28597,-0.534481 -0.69132,-0.913866 -0.97642,-0.913866 -0.2681,0 -1.32083,-0.300613 -2.33939,-0.668028 -2.66008,-0.959546 -9.98597,-2.771556 -11.20529,-2.771556 -0.5696,0 -2.8427,-0.294855 -5.05133,-0.655235 -5.45642,-0.890316 -9.4217,-1.136591 -13.54069,-0.840983 -4.92101,0.353168 -6.0219,0.352574 -6.14254,-0.0033 -0.22904,-0.675662 2.83587,-1.01462 8.92066,-0.98656 4.97026,0.02292 6.73412,0.143048 10.68351,0.727604 2.60172,0.385084 5.08314,0.700152 5.51428,0.700152 1.16436,0 9.34209,2.057468 11.07243,2.785758 1.39252,0.586105 2.20829,0.642222 3.42145,0.235363 0.21828,-0.0732 0.91699,-0.783763 1.5527,-1.579017 2.81179,-3.517511 6.8795,-20.128435 6.90938,-28.215212 l 0.005,-1.240815 -2.18282,-0.669529 c -2.36006,-0.723895 -6.33726,-1.665926 -7.27604,-1.723388 -0.63468,-0.03885 -0.32532,-0.549411 0.33291,-0.549411 0.87106,0 5.82535,1.180569 7.00928,1.670256 2.14181,0.885882 2.02712,0.954541 2.22639,-1.332728 0.3248,-3.728223 -0.72785,-14.015512 -1.85881,-18.165614 -0.3616,-1.326897 -0.77498,-2.888789 -0.91863,-3.470872 -0.46375,-1.879211 -2.13783,-7.078048 -3.06716,-9.525001 -1.12869,-2.971912 -2.17507,-5.008619 -3.85114,-7.495995 -0.71889,-1.066859 -1.24251,-2.004303 -1.1636,-2.083207 0.29164,-0.291641 0.96957,0.194125 1.63085,1.168584 0.3741,0.551256 0.96585,1.419004 1.315,1.928327 0.67256,0.981088 2.77668,5.175803 2.77668,5.535504 0,0.116902 0.33887,1.034304 0.75303,2.038671 0.41417,1.004367 1.14172,3.193633 1.61677,4.865036 0.47506,1.671403 1.14649,3.991414 1.49207,5.155581 0.34558,1.164166 0.79891,2.950104 1.0074,3.96875 0.34219,1.671904 0.49687,2.859688 1.11981,8.598958 0.21749,2.003803 0.18886,11.309112 -0.0419,13.626042 -0.087,0.873125 -0.21108,2.123281 -0.27579,2.778125 -0.47276,4.78421 -1.61532,10.537202 -2.99841,15.097617 -0.89575,2.953496 -1.19273,4.285865 -0.98538,4.420756 0.16325,0.106197 3.30502,0.15924 6.98173,0.117872 7.06561,-0.0795 8.57059,0.09092 9.0717,1.027265 0.43336,0.809735 -0.79185,2.253866 -2.63068,3.100733 -1.68524,0.776131 -3.89892,0.884094 -9.68636,0.472412 -2.67987,-0.19063 -3.46382,-0.153122 -5.02708,0.240519 -1.01865,0.256504 -2.13603,0.688135 -2.48308,0.959182 -0.34705,0.271046 -0.79353,0.492811 -0.99219,0.492811 -0.58105,0 -0.42436,0.504503 0.58279,1.876526 1.63679,2.229749 5.08318,5.215469 7.15507,6.198669 2.57491,1.2219 6.58384,2.3828 11.48011,3.32439 2.25558,0.43377 4.69636,0.91746 5.42396,1.07488 2.10181,0.45474 8.40362,2.56263 8.77671,2.93573 0.23278,0.23277 0.27141,0.58728 0.12312,1.12962 l -0.21613,0.79039 -2.75435,-0.0722 c -1.51489,-0.0397 -3.40129,-0.18856 -4.192,-0.33073 -1.8295,-0.32895 -5.47095,-0.32333 -7.69047,0.0119 -0.94589,0.14285 -3.19598,0.2628 -5.0002,0.26655 -3.66336,0.008 -6.6006,-0.57148 -9.41959,-1.85715 -0.87313,-0.39821 -1.88516,-0.81537 -2.24896,-0.92702 -0.3638,-0.11165 -1.34267,-0.54467 -2.17527,-0.96225 -0.83259,-0.41759 -1.58403,-0.75925 -1.66986,-0.75925 -0.0858,0 -0.0811,0.50602 0.0105,1.12448 0.20013,1.35107 -0.20156,3.29383 -1.05308,5.09323 -1.04776,2.21409 -2.09247,2.94308 -5.94721,4.14993 -2.12262,0.66456 -3.15849,0.55099 -7.83481,-0.85893 -3.62609,-1.09327 -4.63666,-1.21639 -6.26727,-0.76354 -1.19418,0.33164 -1.25644,0.78031 -0.28502,2.05391 0.90329,1.18427 1.38319,2.53376 1.39789,3.93088 0.0144,1.36633 -1.2903,3.23615 -2.50193,3.58572 -0.73058,0.21077 -11.00482,0.60203 -15.80908,0.60203 -1.12791,0 -2.05065,0.0672 -2.05052,0.14934 2.4e-4,0.16094 -6.20267,0.81688 -8.26639,0.87416 -0.69034,0.0192 -1.25588,0.0988 -1.25677,0.17697 -8.9e-4,0.0782 -0.26951,0.16178 -0.59693,0.18578 -2.14313,0.15715 -5.98167,0.76334 -9.85573,1.55645 -3.91027,0.80051 -5.12012,0.9346 -9.26041,1.02636 -2.619378,0.058 -5.536409,-0.004 -6.482295,-0.13831 z M 178.13858,93.897644 c 1.1214,-0.272306 2.1651,-0.276383 5.29167,-0.02067 2.14211,0.175194 4.49861,0.317671 5.23667,0.316616 1.95481,-0.0028 3.68049,-0.676255 4.60413,-1.796792 1.335,-1.619586 1.21974,-1.64471 -7.54543,-1.64471 h -7.7523 l -0.294,0.890849 c -0.16171,0.489967 -0.64388,1.234107 -1.07151,1.653646 -0.88521,0.868483 -1.00395,1.253656 -0.32917,1.067803 0.25466,-0.07014 1.09163,-0.280173 1.85994,-0.466738 z M 34.322001,114.92223 c -1.752473,-0.60248 -4.192799,-1.78221 -6.861998,-3.31732 -2.278283,-1.31028 -4.417949,-2.48712 -4.754813,-2.6152 -0.647098,-0.24602 -0.842455,-0.7793 -0.281753,-0.76912 0.181902,0.003 1.104636,0.43751 2.050521,0.96488 4.180374,2.33077 8.449797,4.37602 10.054166,4.81639 1.826857,0.50145 3.822906,1.31582 3.916996,1.59809 0.174784,0.52435 -1.36071,0.27196 -4.123119,-0.67772 z M 15.728363,104.01504 c -0.646954,-0.41799 -1.425605,-1.00064 -1.730336,-1.29479 -0.304731,-0.29415 -0.900044,-0.71375 -1.322917,-0.93245 -0.422873,-0.21869 -1.602297,-1.18366 -2.620943,-2.144371 C 9.0355214,98.682715 8.1372392,97.896486 8.0579846,97.896255 7.8160698,97.895549 0.39687588,90.330336 0.39687588,90.084366 c 0,-0.36287 3.63832482,3.099956 5.56642922,5.297927 0.5106154,0.582083 1.5181913,1.534583 2.2390577,2.116666 0.7208663,0.582084 1.5672712,1.35599 1.8809002,1.719792 0.313628,0.363802 1.845861,1.554429 3.404962,2.645829 1.5591,1.09141 3.091126,2.18878 3.404502,2.4386 0.924794,0.73724 0.111026,0.53585 -1.164364,-0.28814 z M 129.57968,92.692362 c -0.59564,-0.238259 -0.3777,-0.925419 0.26459,-0.834201 0.32742,0.0465 0.59531,0.25322 0.59531,0.459375 0,0.418319 -0.35945,0.575003 -0.8599,0.374826 z M 49.873957,81.756251 c 0,-0.145521 0.119063,-0.264584 0.264584,-0.264584 0.14552,0 0.264583,0.119063 0.264583,0.264584 0,0.145521 -0.119063,0.264583 -0.264583,0.264583 -0.145521,0 -0.264584,-0.119062 -0.264584,-0.264583 z m -2.597921,-1.579148 c -2.100763,-1.158104 -8.514235,-6.711474 -8.160019,-7.065689 0.08926,-0.08926 1.071645,0.658451 2.183075,1.661584 3.103083,2.800721 5.94735,5.079568 6.910104,5.536425 0.828871,0.393324 1.104199,0.65871 0.672574,0.648285 -0.109141,-0.0026 -0.831721,-0.353909 -1.605734,-0.780605 z M -8.2761162,78.735339 c -1.0162058,-1.349578 -3.8794888,-6.739802 -3.6840138,-6.935276 0.07362,-0.07362 1.044212,1.451793 2.1568683,3.389811 1.1126558,1.938017 2.2105116,3.791559 2.4396794,4.118981 0.7680668,1.09737 -0.033922,0.59333 -0.9125339,-0.573516 z M 85.063539,74.613707 c -4.477238,-0.832088 -9.523353,-2.505689 -8.552577,-2.836558 0.171031,-0.05829 0.766344,0.125357 1.322917,0.408109 1.469445,0.746511 4.51591,1.533919 8.247558,2.131714 1.79677,0.287836 3.334661,0.591143 3.417534,0.674016 0.27895,0.27895 -1.903164,0.09334 -4.435432,-0.377281 z M 11.105156,73.224605 C 9.3054654,71.175481 6.7487716,67.805895 6.7479036,67.48198 c -0.00123,-0.458844 -0.1109532,-0.578511 2.5351577,2.764895 1.1517127,1.455209 2.3321477,2.850232 2.6231887,3.100052 0.414045,0.355402 0.441228,0.456134 0.124947,0.463021 -0.22232,0.0048 -0.639039,-0.258563 -0.926041,-0.585343 z m 0.07358,-4.942867 c -2.7268348,-2.898642 -6.8570349,-9.02214 -6.0789585,-9.012757 0.1055389,0.0013 0.6601627,0.745413 1.2324975,1.653646 1.6850781,2.674034 4.399938,6.30045 5.940554,7.935186 0.788569,0.836745 1.308944,1.521354 1.15639,1.521354 -0.152555,0 -1.165272,-0.943843 -2.250483,-2.097429 z M 111.25729,65.517149 c 0,-0.200256 0.80367,-0.795185 1.78594,-1.322064 0.98226,-0.526879 2.41806,-1.31615 3.19067,-1.753934 2.09617,-1.187766 10.52559,-4.083992 11.38078,-3.910273 0.20126,0.04088 -1.70018,0.77074 -4.22542,1.621908 -4.34704,1.46523 -8.21874,3.251147 -10.75617,4.961548 -1.3015,0.877295 -1.3758,0.899051 -1.3758,0.402815 z M 2.4252777,62.620811 C 1.89174,61.846138 1.4552092,60.990421 1.4552092,60.719217 c 0,-0.271205 0.4861691,0.31298 1.0803758,1.298189 0.5942067,0.985208 1.0307376,1.840925 0.9700685,1.901594 -0.060669,0.06067 -0.5468382,-0.523516 -1.0803758,-1.298189 z M 142.67213,62.592236 c 0.762,-0.566071 2.94154,-0.979468 13.35071,-2.53225 2.41904,-0.36086 5.50528,-0.343783 5.50528,0.03046 0,0.182708 -0.32662,0.24515 -0.8599,0.16439 -1.64857,-0.249661 -13.54021,1.479381 -17.92552,2.606364 l -0.66145,0.169989 z M -13.536792,60.258854 C -16.562486,57.47427 -21.568,49.531566 -22.875748,45.439882 c -0.517705,-1.619794 -0.146024,-1.778136 0.448035,-0.190871 1.347068,3.599233 3.918523,8.132739 5.699852,10.048906 0.202921,0.218281 0.861231,1.051719 1.462912,1.852083 0.601681,0.800365 1.633297,1.927629 2.292479,2.505031 1.133091,0.992517 1.528174,1.728303 0.928018,1.728303 -0.148772,0 -0.820325,-0.506016 -1.49234,-1.12448 z m 179.959702,0.33073 c -0.0899,-0.145521 0.0221,-0.264584 0.24897,-0.264584 0.22687,0 0.41249,0.119063 0.41249,0.264584 0,0.14552 -0.11204,0.264583 -0.24897,0.264583 -0.13693,0 -0.32255,-0.119063 -0.41249,-0.264583 z m -38.01732,-2.297408 c 0.191,-0.07643 0.4192,-0.06703 0.50712,0.02089 0.0879,0.08792 -0.0684,0.150453 -0.34726,0.138965 -0.30823,-0.0127 -0.37092,-0.07539 -0.15986,-0.159853 z m 1.32292,-0.264583 c 0.191,-0.07643 0.4192,-0.06703 0.50712,0.02089 0.0879,0.08792 -0.0683,0.150453 -0.34727,0.138964 -0.30822,-0.01269 -0.37092,-0.07539 -0.15985,-0.159852 z M 86.386456,57.493245 c -1.391692,-0.239558 -2.645834,-0.636667 -2.645834,-0.837772 0,-0.115252 0.744141,-0.05132 1.653646,0.142076 0.909505,0.193394 2.32659,0.381576 3.149077,0.418184 0.822486,0.03661 1.440538,0.155856 1.373447,0.264996 -0.126079,0.205101 -2.365407,0.213039 -3.530336,0.01252 z M -2.1829351,56.819271 c 0.1666936,-0.500642 0.992311,-0.571818 0.992311,-0.08555 0,0.245437 -0.2262176,0.416275 -0.5512152,0.416275 -0.3233137,0 -0.5056861,-0.136741 -0.4410958,-0.330729 z m -6.7310021,-1.994713 c -1.3373358,-1.480272 -2.5955748,-3.391038 -2.5944478,-3.939938 6.71e-4,-0.326706 0.181489,-0.183796 0.562463,0.444547 0.308811,0.509323 0.648558,0.985573 0.754994,1.058333 0.106436,0.07276 0.8101681,0.876432 1.5638493,1.785938 1.4830078,1.78962 1.2400109,2.341182 -0.2868585,0.65112 z M 137.17699,55.27543 c 0.79516,-0.282144 1.56362,-0.473697 1.70769,-0.425674 0.3043,0.101433 -2.28919,0.98679 -2.80627,0.957996 -0.19094,-0.01063 0.30342,-0.250178 1.09858,-0.532322 z M 1.1906258,55.054913 c 0,-0.133652 0.4464844,-0.513454 0.9921875,-0.844005 1.0598746,-0.642001 5.3578123,-4.684966 5.3578123,-5.039963 0,-0.11675 -0.4464844,-0.451736 -0.9921875,-0.744413 C 6.002735,48.133856 4.9424104,47.387295 4.1921612,46.767509 3.441912,46.147723 1.9763523,44.945324 0.93536175,44.095511 -1.9942753,41.703903 -7.8643789,35.72149 -8.5822226,34.395833 c -0.8174015,-1.509513 -0.3537855,-1.121347 1.9562246,1.63786 3.172249,3.789116 11.0438009,10.65099 13.6269626,11.879044 1.0842259,0.515449 1.2347375,0.52816 1.8520832,0.156417 1.4201032,-0.855133 5.4807292,-4.284287 6.4480472,-5.445303 2.745581,-3.295362 3.973552,-4.913165 5.356782,-7.057346 1.959829,-3.037984 3.906771,-5.737223 5.326507,-7.384669 l 1.136865,-1.319205 -1.2575,-1.141093 C 24.036969,24.063862 18.576203,21.00391 15.138756,19.711764 13.73166,19.182832 13.166555,18.66001 14.312934,18.947733 c 1.255528,0.315118 5.315486,2.130611 6.913614,3.091565 0.84019,0.505206 2.0634,1.187355 2.718244,1.515887 0.654843,0.328533 1.718057,1.060706 2.362697,1.627052 1.386181,1.217825 1.199713,1.334711 3.451415,-2.163488 1.821726,-2.830196 3.671619,-6.523056 4.501117,-8.985383 0.648277,-1.92438 1.824488,-8.8844467 2.077359,-12.2924796 0.117211,-1.57969882 0.289396,-2.39793142 0.520701,-2.47439515 0.432371,-0.14293174 0.384118,2.60988785 -0.09397,5.36092055 -0.177293,1.0201834 -0.466039,2.8669103 -0.641658,4.1038374 -0.362359,2.5521868 -1.169265,5.7118798 -1.858118,7.2760418 -0.256348,0.582083 -0.712937,1.662591 -1.014642,2.401129 -0.956539,2.341493 -5.245352,8.868311 -7.125587,10.843889 -0.285292,0.299759 -1.800469,2.442884 -3.367059,4.7625 -1.566589,2.319615 -3.96246,5.586701 -5.324157,7.260191 -2.276767,2.798087 -3.282287,3.741624 -8.4370561,7.916973 -0.873125,0.707229 -2.1828125,1.970534 -2.9104166,2.807346 -1.9187208,2.206705 -4.8947915,4.064529 -4.8947915,3.055594 z M 139.30312,54.679739 c 0,-0.273405 1.94221,-0.717981 4.7625,-1.090147 1.52797,-0.20163 5.27844,-0.727962 8.33437,-1.169627 6.89738,-0.996854 11.83342,-1.248196 16.53378,-0.841895 3.57618,0.309126 9.70405,1.450509 10.17591,1.895374 0.38614,0.364043 -0.40669,0.291363 -2.96613,-0.271911 -3.1602,-0.695485 -3.66735,-0.769016 -7.60397,-1.102501 -5.14261,-0.435647 -10.35454,-0.106538 -19.18229,1.211275 -2.4011,0.358437 -5.31813,0.775471 -6.48229,0.926744 -1.16417,0.151272 -2.44409,0.346669 -2.84428,0.434214 -0.40018,0.08755 -0.7276,0.09136 -0.7276,0.0085 z M 62.04479,48.517391 c -0.945885,-0.367146 -2.493698,-0.951263 -3.439583,-1.298039 -3.206403,-1.175513 -6.209929,-2.481431 -6.295152,-2.737101 -0.04667,-0.140014 0.844629,0.105259 1.980668,0.545052 5.741435,2.222673 6.677951,2.59239 8.090888,3.194114 2.662097,1.1337 2.404531,1.36003 -0.336821,0.295974 z m 53.4461,-4.247918 c 3.6e-4,-0.293257 2.59364,-1.732961 2.92347,-1.623018 0.14451,0.04817 -0.45421,0.481734 -1.33049,0.963474 -0.87629,0.481741 -1.59313,0.778535 -1.59298,0.659544 z M 11.80878,42.033136 c -1.577573,-1.16016 -1.017651,-1.596169 0.5924,-0.4613 0.673674,0.474849 1.224862,0.959505 1.224862,1.077013 0,0.434833 -0.720847,0.1906 -1.817262,-0.615713 z m 33.567261,0.04051 c -1.091406,-0.41724 -3.392399,-1.474794 -5.113317,-2.350121 -1.720918,-0.875326 -3.276243,-1.534978 -3.456278,-1.465892 -0.180034,0.06909 -0.535938,-0.104893 -0.790897,-0.38662 -1.058838,-1.170003 0.331914,-0.74368 4.927288,1.510416 2.656543,1.303073 5.395626,2.576033 6.086849,2.8288 0.691224,0.252767 1.256771,0.502933 1.256771,0.555923 0,0.259073 -1.115725,-0.0064 -2.910416,-0.692506 z m 73.559139,0.319282 c 0.0106,-0.406777 4.51819,-2.154975 7.28247,-2.824366 1.59446,-0.38611 3.13714,-0.76881 3.42818,-0.850445 0.35572,-0.09978 0.44244,-0.06065 0.26458,0.119386 -0.14552,0.147297 -1.6338,0.596819 -3.30729,0.998938 -1.67349,0.402118 -3.81661,1.080281 -4.7625,1.507028 -2.41478,1.089459 -2.91113,1.26874 -2.90544,1.049459 z m 11.37211,-3.758204 c 0,-0.212321 4.48998,-1.56667 7.40833,-2.234634 4.32005,-0.98879 5.23526,-1.182226 6.35,-1.342107 0.65484,-0.09392 2.41706,-0.40039 3.91604,-0.681042 1.49897,-0.280652 3.16585,-0.494994 3.70416,-0.476316 0.77431,0.02687 0.64715,0.08356 -0.60874,0.271419 -0.87313,0.130601 -2.36141,0.404517 -3.30729,0.608701 -0.94589,0.204183 -2.67229,0.507121 -3.83646,0.673194 -2.37456,0.33874 -8.46245,1.783743 -11.57552,2.747528 -1.12779,0.349155 -2.05052,0.54412 -2.05052,0.433257 z m -30.0726,-1.003057 c -3.074575,-2.395012 -6.933899,-4.287742 -12.852367,-6.303194 -1.493612,-0.508629 -3.072846,-1.085048 -3.509409,-1.28093 -0.436562,-0.195882 -1.541547,-0.624625 -2.455522,-0.952762 -1.392655,-0.499994 -2.335404,-1.04895 -1.801413,-1.04895 0.194872,0 12.427221,4.600681 14.046518,5.283003 2.886144,1.216134 5.558416,2.810035 7.540623,4.497671 1.3432,1.14359 0.54313,0.982624 -0.96843,-0.194838 z m -125.71541,0.0053 c -0.634152,-1.664471 -1.374486,-5.325813 -1.374486,-6.797557 0,-0.953566 0.510776,-0.311681 0.67195,0.844432 0.183589,1.316893 0.995445,5.064854 1.318178,6.085417 0.272484,0.861662 -0.282379,0.742431 -0.615642,-0.132292 z M 169.42664,34.01408 c -1.72348,-0.377776 -15.4119,-0.422628 -16.16675,-0.05297 -0.2782,0.136235 -0.46302,0.124543 -0.46302,-0.02929 0,-0.424237 2.46478,-0.589884 8.73125,-0.586787 5.78883,0.0029 9.13032,0.263449 10.0169,0.781176 0.37842,0.220984 0.36622,0.251078 -0.095,0.234458 -0.29104,-0.01049 -1.20155,-0.166449 -2.02335,-0.346583 z m -25.75789,-4.64533 c 0.0899,-0.145521 0.28258,-0.264584 0.4281,-0.264584 0.14552,0 0.191,0.119063 0.10106,0.264584 -0.0899,0.14552 -0.28258,0.264583 -0.4281,0.264583 -0.14552,0 -0.191,-0.119063 -0.10106,-0.264583 z m 4.49516,-0.269037 c -0.33064,-0.534978 9.48761,-1.154119 14.55483,-0.917832 5.2966,0.246982 9.13651,0.575724 9.34508,0.800048 0.099,0.106432 -0.77258,0.105632 -1.93674,-0.0018 -3.99124,-0.368247 -17.84597,-0.384616 -19.9179,-0.02353 -1.05943,0.184631 -1.9798,0.249023 -2.04527,0.143095 z m 24.21213,0.02922 c 0,-0.131897 0.23812,-0.177542 0.52916,-0.101432 0.29104,0.07611 0.52917,0.184025 0.52917,0.239813 0,0.05579 -0.23813,0.101433 -0.52917,0.101433 -0.29104,0 -0.52916,-0.107916 -0.52916,-0.239814 z M 67.204165,23.540006 c -1.519819,-0.549055 -3.016957,-0.997068 -6.282524,-1.880025 -1.272576,-0.344083 -2.314373,-0.714903 -2.315104,-0.824044 -0.0024,-0.362922 0.803316,-0.206773 3.787651,0.734024 1.626841,0.512854 3.791331,1.18472 4.809977,1.493036 1.904475,0.576432 2.765945,1.037656 1.838854,0.984508 -0.283766,-0.01627 -1.11125,-0.244642 -1.838854,-0.507499 z M 56.367548,20.391198 c -0.180729,-0.292425 0.236645,-0.608185 0.480963,-0.363867 0.251562,0.251562 0.204678,0.610168 -0.07977,0.610168 -0.136933,0 -0.317469,-0.110835 -0.401191,-0.246301 z m -4.244633,-0.463211 c -0.291041,-0.06543 -1.481666,-0.337707 -2.645833,-0.605063 -3.797873,-0.872197 -6.055208,-1.292777 -7.805208,-1.454243 -2.620667,-0.241799 -7.14375,-1.027875 -7.14375,-1.241527 0,-0.190819 0.645669,-0.13444 3.571875,0.311892 0.873125,0.133177 2.361407,0.30978 3.307292,0.392452 1.868038,0.163268 4.914245,0.738088 7.011458,1.323064 0.727604,0.202951 2.156354,0.513223 3.175,0.689494 1.018646,0.17627 1.965192,0.420343 2.103437,0.542384 0.26066,0.230108 -0.630853,0.253636 -1.574271,0.04155 z M 10.980209,17.991666 c 0,-0.145521 0.18562,-0.264583 0.41249,-0.264583 0.226869,0 0.338905,0.119062 0.248968,0.264583 -0.08994,0.145521 -0.275557,0.264583 -0.41249,0.264583 -0.136932,0 -0.248968,-0.119062 -0.248968,-0.264583 z m 158.485411,0 c 0,-0.145521 0.17157,-0.264583 0.38126,-0.264583 0.20969,0 0.45484,0.119062 0.54478,0.264583 0.0899,0.145521 -0.0816,0.264583 -0.38126,0.264583 -0.29963,0 -0.54478,-0.119062 -0.54478,-0.264583 z M -19.315504,16.823337 c -0.735042,-1.254256 -1.195542,-2.604407 -1.180158,-3.460133 0.0053,-0.292002 0.238178,0.104601 0.517617,0.881341 0.279439,0.776739 0.815944,1.937599 1.192233,2.579687 0.376289,0.642089 0.565099,1.167434 0.419578,1.167434 -0.14552,0 -0.572692,-0.525748 -0.94927,-1.168329 z M 167.61354,15.345833 c 0,-0.145521 0.17859,-0.264584 0.39687,-0.264584 0.21828,0 0.39688,0.119063 0.39688,0.264584 0,0.14552 -0.1786,0.264583 -0.39688,0.264583 -0.21828,0 -0.39687,-0.119063 -0.39687,-0.264583 z M 2.7781258,14.516556 C 1.8322404,14.082017 0.5820842,13.502516 8.9244458e-7,13.228776 -0.58208242,12.955036 -2.1429255,12.255435 -3.4685393,11.674108 -5.4775245,10.793099 -10.696904,7.5875447 -13.039593,5.7959136 c -1.215352,-0.9294717 -0.109431,-0.7115849 1.284242,0.2530193 4.5336287,3.1378653 6.4652443,4.3291801 8.8002754,5.4275291 1.4306452,0.672946 2.64874765,1.223537 2.70689421,1.223537 0.17867361,0 4.45632599,2.072887 4.87839039,2.363996 0.7242646,0.499544 -0.1095107,0.253096 -1.8520832,-0.547439 z M -23.547915,12.170833 c -0.284919,-0.461009 0.137395,-0.854309 0.549809,-0.512036 0.203723,0.169076 0.305159,0.412982 0.225413,0.542015 -0.193008,0.312293 -0.572762,0.297607 -0.775222,-0.02998 z m 2.248958,-1.534584 c 0,-0.116416 0.137745,-0.349411 0.306099,-0.517765 0.231743,-0.2317427 0.03232,-0.5820214 -0.820955,-1.4419793 -0.673042,-0.6783124 -1.542425,-2.0257978 -2.158182,-3.3450371 -0.56712,-1.2150361 -1.031128,-2.2638597 -1.031128,-2.3307191 0,-0.4394796 0.59426,0.4238792 1.302405,1.8921713 0.800989,1.6607997 3.188363,4.3674961 3.852241,4.3674961 0.349665,0 4.456942,-4.1628701 5.482048,-5.5562502 1.039877,-1.4134559 3.915389,-6.5208438 3.915389,-6.9543812 0,-0.3702604 0.4590016,-1.6275584 1.7111876,-4.6872857 0.5771107,-1.4101751 1.0956881,-3.4325698 1.8657045,-7.2760418 l 0.3710538,-1.852083 -0.097589,2.38125 c -0.1060091,2.586707 -0.8400277,5.4801558 -2.4163298,9.5249999 -1.9303161,4.9532566 -3.2014331,7.3474855 -5.3378431,10.0541669 -2.546199,3.2258542 -6.944101,6.8620872 -6.944101,5.7414582 z M 103.14651,10.175047 c -0.19964,-0.5202467 0.0366,-0.759113 0.55428,-0.560458 0.23254,0.089234 0.3376,0.3275491 0.24769,0.561853 -0.20058,0.522691 -0.60113,0.521994 -0.80197,-0.0014 z m 1.56134,-4.155777 c 0.17239,-0.5219191 9.10117,-5.67240129 9.36909,-5.40447515 0.11144,0.11143305 -2.11745,1.44700025 -5.59778,3.35424095 -0.87312,0.4784773 -2.02135,1.2099348 -2.55161,1.625461 -1.04703,0.8204754 -1.38984,0.9398602 -1.2197,0.4247732 z m 26.1286,-2.0132967 c 0,-0.4617018 1.23734,-0.9819323 5.43543,-2.2852972 4.51993,-1.40328595 6.9946,-1.9690362 9.24895,-2.11446187 0.87312,-0.0563244 1.28984,-0.0465439 0.92604,0.0217345 -5.39739,1.01298281 -13.59118,3.34319047 -14.99871,4.26543737 -0.37234,0.2439687 -0.61171,0.2880246 -0.61171,0.1125872 z M 77.126039,3.4395824 c 0,-0.1455208 0.119063,-0.2645833 0.264584,-0.2645833 0.145521,0 0.264583,0.1190625 0.264583,0.2645833 0,0.1455208 -0.119062,0.2645833 -0.264583,0.2645833 -0.145521,0 -0.264584,-0.1190625 -0.264584,-0.2645833 z M 70.72643,1.9359251 c 0.190996,-0.07643 0.4192,-0.067031 0.507118,0.020888 0.08792,0.087919 -0.06835,0.1504527 -0.347265,0.1389643 -0.308225,-0.012696 -0.370919,-0.07539 -0.159853,-0.1598523 z M 67.997915,1.4344112 C 67.270311,1.2307162 65.305779,0.82027565 63.63229,0.52232101 61.9588,0.22436637 59.934738,-0.13823103 59.134373,-0.28345099 56.817439,-0.70384088 50.486952,-0.86605923 47.889582,-0.5715981 c -3.105989,0.35212274 -9.382291,1.32767944 -9.664731,1.50223694 -0.121318,0.0749789 -0.290279,0.0235476 -0.375469,-0.1142917 -0.242602,-0.39253895 0.104091,-0.49860296 3.048898,-0.93275146 1.516883,-0.22363173 3.531875,-0.54746743 4.477761,-0.71963488 2.287266,-0.4163219 10.147897,-0.399465 12.964583,0.0278021 4.09347,0.6209446 8.840609,1.5718015 10.451041,2.0933547 1.818911,0.5890712 1.195791,0.7062716 -0.79375,0.1492936 z M -14.236208,1.1537199 c -0.246921,-0.24692045 0.05147,-0.62455422 0.493491,-0.62455422 0.209693,0 0.38126,0.17859376 0.38126,0.39687501 0,0.39852331 -0.558533,0.54389761 -0.874751,0.22767921 z M 114.69687,0.26458234 c 0.21828,-0.14106418 0.57547,-0.24993516 0.79375,-0.24193552 0.26169,0.0095904 0.21663,0.09200088 -0.13229,0.24193552 -0.72736,0.31255824 -1.14511,0.31255824 -0.66146,0 z M -15.932017,-0.17218715 c -0.176882,-0.0717254 -0.967427,-0.98506015 -1.756767,-2.02963275 -0.789341,-1.0445726 -1.756881,-2.1968791 -2.150088,-2.5606812 -0.393208,-0.3638021 -0.842706,-0.8987106 -0.998884,-1.1886856 -0.491526,-0.9126143 1.428809,0.8988828 2.970079,2.801745 0.77753,0.9599431 1.75198,1.9719744 2.165444,2.2489584 1.050235,0.70356215 0.898127,1.18566458 -0.229784,0.72829615 z M 147.45559,-0.44532493 c 0.191,-0.0764304 0.4192,-0.0670307 0.50712,0.0208882 0.0879,0.0879188 -0.0683,0.15045276 -0.34726,0.13896428 -0.30823,-0.0126957 -0.37092,-0.0753905 -0.15986,-0.15985248 z M 119.72395,-1.7872857 c 0,-0.9119664 13.22787,-4.109712 16.53646,-3.9975753 0.67601,0.022912 0.19809,0.1524783 -1.32291,0.3586559 -4.01276,0.5439415 -10.15116,2.0447552 -13.56983,3.3177632 -1.57374,0.586017 -1.64372,0.5996882 -1.64372,0.3211562 z M -28.815141,-2.6062895 c -0.31566,-0.5107485 -0.482617,-2.6162621 -0.220311,-2.7783757 0.158123,-0.097726 0.31589,0.4434146 0.394804,1.3541763 0.13614,1.571216 0.09978,1.8679823 -0.174493,1.4241994 z M 9.3927088,-3.9687511 c -0.5449229,-0.1745148 -0.56823,-0.2157687 -0.1322916,-0.2341581 0.2910416,-0.012277 0.7077604,0.093094 0.9260418,0.2341581 0.463588,0.2995935 0.141731,0.2995935 -0.7937502,0 z m 27.1710812,0.095388 c -0.246921,-0.2469205 0.05147,-0.6245543 0.493491,-0.6245543 0.209693,0 0.38126,0.1785938 0.38126,0.3968751 0,0.3985232 -0.558533,0.5438975 -0.874751,0.2276792 z M 5.1593757,-4.6593383 C 3.7769278,-4.8586879 1.8719279,-5.1528097 0.92604252,-5.3129423 -0.01984286,-5.473075 -2.3415615,-5.6615456 -4.2333323,-5.731766 -6.125103,-5.801986 -7.7860248,-5.9698158 -7.9242696,-6.1047203 -8.2969742,-6.4684194 -3.8992493,-6.386136 -0.79374908,-5.9713051 2.4582215,-5.5369087 8.4161164,-4.5043714 8.572388,-4.3480998 8.7379473,-4.1825404 7.9978116,-4.2500348 5.1593757,-4.6593383 Z M -27.648956,-7.356432 c 0,-0.1169745 0.425847,-0.6229901 0.946328,-1.1244792 2.077936,-2.0021148 4.998989,-6.7468308 5.651625,-9.1800278 0.165885,-0.618463 0.416083,-1.124479 0.555995,-1.124479 0.376204,0 0.314169,0.547759 -0.274016,2.419526 -0.530067,1.68682 -0.850591,2.290678 -2.73923,5.160635 -1.663565,2.5279362 -4.140702,4.8304603 -4.140702,3.848825 z m 66.947895,-2.896173 c 0.01405,-0.335229 1.252369,-1.125404 2.437548,-1.555403 3.400612,-1.233784 8.672301,-2.681697 11.577053,-3.179732 4.670122,-0.800717 5.560674,-0.893852 10.847917,-1.134487 4.240003,-0.192973 6.059251,-0.166987 8.334374,0.11905 l 2.910417,0.365909 -3.704167,-0.09731 c -4.128553,-0.108462 -12.044183,0.226497 -14.684374,0.621387 -3.507115,0.524555 -6.264924,1.071395 -7.9375,1.573911 -5.782984,1.737463 -8.172031,2.586048 -8.752083,3.108724 -0.446456,0.402295 -1.042906,0.5054257 -1.029185,0.177954 z m -66.053193,-0.855266 c -0.962208,-0.388673 -2.794663,-4.013622 -2.211217,-4.374212 0.133467,-0.08249 0.322585,0.182314 0.420261,0.588448 0.326181,1.356254 1.146316,2.684306 1.951361,3.159857 1.17924,0.696595 1.069985,1.122911 -0.160405,0.625907 z m 18.1433084,-1.738867 c -0.5584699,-0.672915 -1.3390839,-0.991745 -3.2953034,-1.345915 l -1.852083,-0.335317 2.080865,0.134017 c 2.1300827,0.137188 3.1331916,0.542785 3.6277296,1.466838 0.3207179,0.599267 -0.082625,0.657034 -0.5612082,0.08038 z m -16.5411134,-1.726817 c -0.427408,-0.448371 -1.104528,-1.009823 -1.50471,-1.247671 -0.808792,-0.480705 -0.985955,-0.924627 -0.264583,-0.662971 0.705676,0.255962 2.422489,1.655779 2.725783,2.222488 0.40862,0.763514 -0.08474,0.602663 -0.95649,-0.311846 z m 4.514561,-0.170342 c 0.383834,-0.39125 2.449451,-0.655107 2.645479,-0.337927 0.09899,0.160176 -0.252752,0.265156 -0.888433,0.265156 -0.57877,0 -1.270406,0.07705 -1.536969,0.171233 -0.327363,0.115658 -0.398789,0.0837 -0.220077,-0.09846 z m 51.196873,-0.755755 c -2.738972,-1.426227 -5.392548,-1.991706 -10.111192,-2.154705 -2.520404,-0.08706 -4.3592,-0.255438 -4.275131,-0.391464 0.17798,-0.287978 6.748636,-0.0699 8.888766,0.295015 1.863637,0.31777 6.023327,1.800401 6.862714,2.446064 0.880066,0.676955 0.09354,0.564659 -1.365157,-0.19491 z m 47.504005,0.436683 c -0.08372,-0.135466 -0.04369,-0.313376 0.08895,-0.395355 0.132646,-0.08198 0.309445,0.02886 0.392887,0.246301 0.164491,0.428657 -0.233035,0.551629 -0.48184,0.149054 z m -83.6910913,-3.772645 c 0.2515163,-0.754549 7.9164108,-3.083793 11.2556513,-3.42042 3.4500808,-0.347801 4.1307373,-0.154894 0.986644,0.279627 -3.0949502,0.42773 -6.14909272,1.193521 -8.4971622,2.130565 -2.5385989,1.013079 -3.8653805,1.37097 -3.7451331,1.010228 z m 34.4672943,-3.254358 c -1.018646,-0.3336 -3.042708,-0.785969 -4.497916,-1.005264 -1.624707,-0.244839 -2.237181,-0.409133 -1.586976,-0.425701 2.079855,-0.053 8.33385,1.41856 8.33385,1.960945 0,0.187779 -0.204274,0.139641 -2.248958,-0.52998 z m 15.478124,0.432486 c 0,-0.536425 4.461801,-1.488084 8.202083,-1.749425 4.63557,-0.323897 9.4906,-0.400622 10.092624,-0.159495 0.44281,0.177358 -0.33357,0.254606 -2.684291,0.267083 -5.327865,0.02828 -12.050912,0.810093 -15.147395,1.76147 -0.254661,0.07824 -0.463021,0.02441 -0.463021,-0.119633 z m -63.333909,-0.302257 c 0.384586,-0.371231 3.193573,-1.007341 3.530037,-0.799395 0.18279,0.11297 -0.10963,0.260827 -0.698698,0.353284 -0.557179,0.08745 -1.474094,0.273726 -2.037589,0.413943 -0.563495,0.140218 -0.920682,0.154693 -0.79375,0.03217 z m 28.3476465,-0.574411 c 0.1537501,-0.15375 0.435721,-0.227487 0.6266021,-0.16386 0.1981584,0.06605 0.078225,0.185987 -0.2795457,0.279546 -0.4400934,0.115087 -0.543395,0.08065 -0.3470564,-0.115686 z m 4.2945975,-1.013764 c 0,-0.145521 0.119063,-0.264583 0.264583,-0.264583 0.145521,0 0.264584,0.119062 0.264584,0.264583 0,0.145521 -0.119063,0.264583 -0.264584,0.264583 -0.14552,0 -0.264583,-0.119062 -0.264583,-0.264583 z m 3.704167,-0.02276 c -0.802942,-0.10948 -0.286031,-0.168479 1.587499,-0.181192 2.854803,-0.01937 3.264156,0.09237 0.926042,0.252775 -0.727604,0.04992 -1.858698,0.0177 -2.513541,-0.07158 z"
       id="path2" /></g></svg>
